<svg xmlns="http://www.w3.org/2000/svg" xmlns:xlink="http://www.w3.org/1999/xlink" width="480" zoomAndPan="magnify" viewBox="0 0 360 367.91998" height="480" preserveAspectRatio="xMidYMid meet" version="1.0"><defs><clipPath id="653f4aed6e"><path d="M 250 50 L 266 50 L 266 70 L 250 70 Z M 250 50 " clip-rule="nonzero"/></clipPath><clipPath id="d3ecd8246f"><path d="M 117.847656 12.683594 L 295.84375 61.085938 L 222.648438 330.25 L 44.652344 281.847656 Z M 117.847656 12.683594 " clip-rule="nonzero"/></clipPath><clipPath id="62b792982f"><path d="M 117.847656 12.683594 L 295.84375 61.085938 L 222.648438 330.25 L 44.652344 281.847656 Z M 117.847656 12.683594 " clip-rule="nonzero"/></clipPath><clipPath id="0208cf98e9"><path d="M 117.847656 12.683594 L 295.84375 61.085938 L 222.648438 330.25 L 44.652344 281.847656 Z M 117.847656 12.683594 " clip-rule="nonzero"/></clipPath><clipPath id="e7aa495bdd"><path d="M 205 51 L 254 51 L 254 134 L 205 134 Z M 205 51 " clip-rule="nonzero"/></clipPath><clipPath id="57558c9c85"><path d="M 117.847656 12.683594 L 295.84375 61.085938 L 222.648438 330.25 L 44.652344 281.847656 Z M 117.847656 12.683594 " clip-rule="nonzero"/></clipPath><clipPath id="a62082f350"><path d="M 117.847656 12.683594 L 295.84375 61.085938 L 222.648438 330.25 L 44.652344 281.847656 Z M 117.847656 12.683594 " clip-rule="nonzero"/></clipPath><clipPath id="e8f48cf390"><path d="M 117.847656 12.683594 L 295.84375 61.085938 L 222.648438 330.25 L 44.652344 281.847656 Z M 117.847656 12.683594 " clip-rule="nonzero"/></clipPath><clipPath id="3a4679e425"><path d="M 171 94 L 208 94 L 208 119 L 171 119 Z M 171 94 " clip-rule="nonzero"/></clipPath><clipPath id="b6e2b2bb94"><path d="M 117.847656 12.683594 L 295.84375 61.085938 L 222.648438 330.25 L 44.652344 281.847656 Z M 117.847656 12.683594 " clip-rule="nonzero"/></clipPath><clipPath id="eaa6c80046"><path d="M 117.847656 12.683594 L 295.84375 61.085938 L 222.648438 330.25 L 44.652344 281.847656 Z M 117.847656 12.683594 " clip-rule="nonzero"/></clipPath><clipPath id="fc5f3a2f24"><path d="M 117.847656 12.683594 L 295.84375 61.085938 L 222.648438 330.25 L 44.652344 281.847656 Z M 117.847656 12.683594 " clip-rule="nonzero"/></clipPath><clipPath id="942bcf4615"><path d="M 243 107 L 267 107 L 267 134 L 243 134 Z M 243 107 " clip-rule="nonzero"/></clipPath><clipPath id="dc19cf3837"><path d="M 117.847656 12.683594 L 295.84375 61.085938 L 222.648438 330.25 L 44.652344 281.847656 Z M 117.847656 12.683594 " clip-rule="nonzero"/></clipPath><clipPath id="626770febb"><path d="M 117.847656 12.683594 L 295.84375 61.085938 L 222.648438 330.25 L 44.652344 281.847656 Z M 117.847656 12.683594 " clip-rule="nonzero"/></clipPath><clipPath id="0661a54917"><path d="M 117.847656 12.683594 L 295.84375 61.085938 L 222.648438 330.25 L 44.652344 281.847656 Z M 117.847656 12.683594 " clip-rule="nonzero"/></clipPath><clipPath id="7b0c191004"><path d="M 48 123 L 271 123 L 271 298 L 48 298 Z M 48 123 " clip-rule="nonzero"/></clipPath><clipPath id="22f3766746"><path d="M 117.847656 12.683594 L 295.84375 61.085938 L 222.648438 330.25 L 44.652344 281.847656 Z M 117.847656 12.683594 " clip-rule="nonzero"/></clipPath><clipPath id="8d661e1a17"><path d="M 117.847656 12.683594 L 295.84375 61.085938 L 222.648438 330.25 L 44.652344 281.847656 Z M 117.847656 12.683594 " clip-rule="nonzero"/></clipPath><clipPath id="61f9af252f"><path d="M 117.847656 12.683594 L 295.84375 61.085938 L 222.648438 330.25 L 44.652344 281.847656 Z M 117.847656 12.683594 " clip-rule="nonzero"/></clipPath><clipPath id="8d2eb1293d"><path d="M 84 105 L 241 105 L 241 270 L 84 270 Z M 84 105 " clip-rule="nonzero"/></clipPath><clipPath id="4b95714136"><path d="M 117.847656 12.683594 L 295.84375 61.085938 L 222.648438 330.25 L 44.652344 281.847656 Z M 117.847656 12.683594 " clip-rule="nonzero"/></clipPath><clipPath id="930881e869"><path d="M 117.847656 12.683594 L 295.84375 61.085938 L 222.648438 330.25 L 44.652344 281.847656 Z M 117.847656 12.683594 " clip-rule="nonzero"/></clipPath><clipPath id="264c2afc9e"><path d="M 117.847656 12.683594 L 295.84375 61.085938 L 222.648438 330.25 L 44.652344 281.847656 Z M 117.847656 12.683594 " clip-rule="nonzero"/></clipPath><clipPath id="c5b5abdcc6"><path d="M 164 117 L 190 117 L 190 155 L 164 155 Z M 164 117 " clip-rule="nonzero"/></clipPath><clipPath id="8f117cb2c2"><path d="M 117.847656 12.683594 L 295.84375 61.085938 L 222.648438 330.25 L 44.652344 281.847656 Z M 117.847656 12.683594 " clip-rule="nonzero"/></clipPath><clipPath id="ef2b2b2e73"><path d="M 117.847656 12.683594 L 295.84375 61.085938 L 222.648438 330.25 L 44.652344 281.847656 Z M 117.847656 12.683594 " clip-rule="nonzero"/></clipPath><clipPath id="7ade6df2bd"><path d="M 117.847656 12.683594 L 295.84375 61.085938 L 222.648438 330.25 L 44.652344 281.847656 Z M 117.847656 12.683594 " clip-rule="nonzero"/></clipPath><clipPath id="475f92cf55"><path d="M 161 159 L 175 159 L 175 174 L 161 174 Z M 161 159 " clip-rule="nonzero"/></clipPath><clipPath id="f452e1c847"><path d="M 117.847656 12.683594 L 295.84375 61.085938 L 222.648438 330.25 L 44.652344 281.847656 Z M 117.847656 12.683594 " clip-rule="nonzero"/></clipPath><clipPath id="f57cbf2131"><path d="M 117.847656 12.683594 L 295.84375 61.085938 L 222.648438 330.25 L 44.652344 281.847656 Z M 117.847656 12.683594 " clip-rule="nonzero"/></clipPath><clipPath id="b330c445de"><path d="M 117.847656 12.683594 L 295.84375 61.085938 L 222.648438 330.25 L 44.652344 281.847656 Z M 117.847656 12.683594 " clip-rule="nonzero"/></clipPath><clipPath id="96d7e8d134"><path d="M 209 185 L 221 185 L 221 198 L 209 198 Z M 209 185 " clip-rule="nonzero"/></clipPath><clipPath id="860d61f50e"><path d="M 117.847656 12.683594 L 295.84375 61.085938 L 222.648438 330.25 L 44.652344 281.847656 Z M 117.847656 12.683594 " clip-rule="nonzero"/></clipPath><clipPath id="00725f00b0"><path d="M 117.847656 12.683594 L 295.84375 61.085938 L 222.648438 330.25 L 44.652344 281.847656 Z M 117.847656 12.683594 " clip-rule="nonzero"/></clipPath><clipPath id="5db2cb13e6"><path d="M 117.847656 12.683594 L 295.84375 61.085938 L 222.648438 330.25 L 44.652344 281.847656 Z M 117.847656 12.683594 " clip-rule="nonzero"/></clipPath><clipPath id="323a685d4d"><path d="M 168 174 L 181 174 L 181 187 L 168 187 Z M 168 174 " clip-rule="nonzero"/></clipPath><clipPath id="43c3f024b2"><path d="M 117.847656 12.683594 L 295.84375 61.085938 L 222.648438 330.25 L 44.652344 281.847656 Z M 117.847656 12.683594 " clip-rule="nonzero"/></clipPath><clipPath id="45fdc1c49a"><path d="M 117.847656 12.683594 L 295.84375 61.085938 L 222.648438 330.25 L 44.652344 281.847656 Z M 117.847656 12.683594 " clip-rule="nonzero"/></clipPath><clipPath id="dec541ef3e"><path d="M 117.847656 12.683594 L 295.84375 61.085938 L 222.648438 330.25 L 44.652344 281.847656 Z M 117.847656 12.683594 " clip-rule="nonzero"/></clipPath><clipPath id="543410310d"><path d="M 184 187 L 202 187 L 202 198 L 184 198 Z M 184 187 " clip-rule="nonzero"/></clipPath><clipPath id="8d90b69285"><path d="M 117.847656 12.683594 L 295.84375 61.085938 L 222.648438 330.25 L 44.652344 281.847656 Z M 117.847656 12.683594 " clip-rule="nonzero"/></clipPath><clipPath id="c44763286e"><path d="M 117.847656 12.683594 L 295.84375 61.085938 L 222.648438 330.25 L 44.652344 281.847656 Z M 117.847656 12.683594 " clip-rule="nonzero"/></clipPath><clipPath id="0eca87c0b6"><path d="M 117.847656 12.683594 L 295.84375 61.085938 L 222.648438 330.25 L 44.652344 281.847656 Z M 117.847656 12.683594 " clip-rule="nonzero"/></clipPath></defs><g clip-path="url(#653f4aed6e)"><g clip-path="url(#d3ecd8246f)"><g clip-path="url(#62b792982f)"><g clip-path="url(#0208cf98e9)"><path fill="#497b4d" d="M 253.105469 69.058594 C 251.554688 69.039062 250.816406 68.363281 250.890625 67.027344 C 251.078125 63.652344 251.175781 60.28125 251.1875 56.910156 C 251.1875 55.152344 252.058594 53.320312 253.789062 51.410156 C 257.140625 50.164062 260.019531 50.832031 262.429688 53.417969 C 264.507812 55.652344 266.671875 60.445312 264.363281 63.167969 C 263.949219 63.652344 263.117188 64.125 261.863281 64.589844 C 258.730469 65.757812 255.8125 67.246094 253.105469 69.058594 Z M 253.105469 69.058594 " fill-opacity="1" fill-rule="nonzero"/></g></g></g></g><g clip-path="url(#e7aa495bdd)"><g clip-path="url(#57558c9c85)"><g clip-path="url(#a62082f350)"><g clip-path="url(#e8f48cf390)"><path fill="#5a905c" d="M 253.789062 51.410156 C 252.058594 53.320312 251.191406 55.152344 251.1875 56.910156 C 251.179688 60.277344 251.078125 63.652344 250.890625 67.027344 C 250.816406 68.359375 251.554688 69.039062 253.105469 69.058594 C 245.648438 74.804688 239.90625 81.128906 237.371094 90.226562 C 236.503906 93.339844 235.75 96.441406 235.113281 99.519531 C 235.027344 99.957031 235.265625 100.390625 235.675781 100.558594 C 240.328125 102.386719 244.703125 104.789062 248.792969 107.765625 C 245.449219 113.574219 243.855469 119.878906 244.003906 126.679688 C 242.03125 125.949219 240.140625 125.082031 238.34375 124.082031 C 237.496094 123.613281 236.199219 123.5 234.441406 123.746094 C 226.667969 128.4375 221.253906 131.488281 218.203125 132.898438 C 215.507812 134.152344 213.375 133.53125 211.804688 131.039062 C 209.273438 127.011719 207.050781 122.746094 205.136719 118.25 C 207.789062 110.417969 208.089844 102.386719 206.042969 94.167969 L 216.1875 95.324219 C 216.511719 95.367188 216.820312 95.175781 216.929688 94.863281 C 220.824219 84.089844 226.636719 74.269531 234.363281 65.40625 C 238.679688 60.445312 243.871094 56.488281 249.332031 53.265625 C 250.746094 52.4375 252.230469 51.820312 253.789062 51.410156 Z M 253.789062 51.410156 " fill-opacity="1" fill-rule="nonzero"/></g></g></g></g><g clip-path="url(#3a4679e425)"><g clip-path="url(#b6e2b2bb94)"><g clip-path="url(#eaa6c80046)"><g clip-path="url(#fc5f3a2f24)"><path fill="#709e65" d="M 206.042969 94.167969 C 208.09375 102.390625 207.789062 110.417969 205.136719 118.253906 C 204.042969 115.347656 202.433594 113.679688 200.3125 113.25 C 198.722656 112.925781 192.910156 112.324219 182.867188 111.441406 C 182.238281 111.386719 180.371094 110.980469 177.265625 110.222656 C 176.964844 110.144531 176.699219 109.964844 176.519531 109.707031 C 176.066406 109.039062 175.632812 108.636719 175.230469 108.492188 C 173.128906 107.757812 171.902344 106.84375 171.550781 105.75 C 175.339844 101.542969 180.234375 98.660156 186.246094 97.105469 C 193.46875 95.222656 200.066406 94.246094 206.042969 94.167969 Z M 206.042969 94.167969 " fill-opacity="1" fill-rule="nonzero"/></g></g></g></g><g clip-path="url(#942bcf4615)"><g clip-path="url(#dc19cf3837)"><g clip-path="url(#626770febb)"><g clip-path="url(#0661a54917)"><path fill="#497b4d" d="M 248.796875 107.765625 C 256.882812 113.828125 263.222656 120.773438 266.007812 130.691406 C 265.492188 132.832031 263.847656 133.890625 261.070312 133.867188 C 260.773438 133.863281 260.472656 133.8125 260.191406 133.707031 C 258.347656 133.007812 256.464844 132.4375 254.539062 132 C 252.277344 131.488281 248.765625 129.710938 244.003906 126.679688 C 243.855469 119.878906 245.453125 113.574219 248.796875 107.765625 Z M 248.796875 107.765625 " fill-opacity="1" fill-rule="nonzero"/></g></g></g></g><g clip-path="url(#7b0c191004)"><g clip-path="url(#22f3766746)"><g clip-path="url(#8d661e1a17)"><g clip-path="url(#61f9af252f)"><path fill="#d7312a" d="M 266.007812 130.691406 C 270.875 141.324219 271.402344 152.699219 267.589844 164.816406 C 264.832031 173.582031 261.925781 181.300781 258.867188 187.972656 C 250.394531 206.46875 239.804688 224.023438 227.105469 240.640625 C 217.980469 252.5625 207.460938 263.074219 195.542969 272.179688 C 170.8125 291.066406 142.976562 299.542969 112.023438 297.605469 C 102.371094 297.003906 92.917969 295.234375 83.664062 292.296875 C 80.40625 291.269531 77.34375 289.652344 74.328125 288.824219 C 73.742188 288.664062 73.179688 288.441406 72.648438 288.15625 C 71.496094 287.546875 70.355469 286.996094 69.238281 286.503906 C 63.328125 283.890625 57.941406 280.3125 53.074219 275.769531 C 49.136719 272.09375 44.644531 263.308594 55.175781 263.972656 C 58.011719 264.152344 60.914062 264.335938 63.890625 264.519531 C 71.113281 264.980469 78.023438 264.695312 84.621094 263.660156 C 90.980469 267.234375 98.8125 269.265625 108.128906 269.761719 C 123.820312 270.601562 138.097656 269.027344 150.964844 265.035156 C 166.59375 260.195312 180.230469 251.589844 193.375 240.792969 C 201.214844 234.355469 207.722656 228.042969 212.898438 221.859375 C 219.359375 214.152344 223.574219 206.6875 227.035156 197.5 C 231.734375 185.0625 235.738281 172.070312 239.050781 158.535156 C 242.074219 146.203125 242.148438 134.644531 234.441406 123.746094 C 236.195312 123.5 237.496094 123.613281 238.339844 124.085938 C 240.140625 125.085938 242.027344 125.949219 244.003906 126.679688 C 248.765625 129.710938 252.277344 131.484375 254.535156 132 C 256.460938 132.4375 258.347656 133.003906 260.1875 133.707031 C 260.472656 133.8125 260.769531 133.867188 261.070312 133.867188 C 263.847656 133.890625 265.492188 132.832031 266.007812 130.691406 Z M 266.007812 130.691406 " fill-opacity="1" fill-rule="nonzero"/></g></g></g></g><g clip-path="url(#8d2eb1293d)"><g clip-path="url(#4b95714136)"><g clip-path="url(#930881e869)"><g clip-path="url(#264c2afc9e)"><path fill="#e13c36" d="M 171.550781 105.75 C 171.902344 106.84375 173.128906 107.757812 175.230469 108.492188 C 175.636719 108.632812 176.066406 109.039062 176.519531 109.707031 C 176.699219 109.964844 176.960938 110.144531 177.265625 110.222656 C 180.375 110.980469 182.242188 111.386719 182.867188 111.441406 C 192.910156 112.324219 198.722656 112.925781 200.3125 113.25 C 202.433594 113.679688 204.042969 115.347656 205.136719 118.253906 C 207.050781 122.75 209.273438 127.011719 211.808594 131.039062 C 213.375 133.53125 215.507812 134.152344 218.203125 132.902344 C 221.253906 131.492188 226.667969 128.441406 234.441406 123.75 C 242.148438 134.644531 242.074219 146.203125 239.050781 158.535156 C 235.738281 172.070312 231.734375 185.0625 227.039062 197.503906 C 223.574219 206.6875 219.359375 214.152344 212.898438 221.859375 C 207.722656 228.042969 201.21875 234.355469 193.378906 240.792969 C 180.230469 251.589844 166.597656 260.195312 150.964844 265.035156 C 138.097656 269.027344 123.820312 270.601562 108.128906 269.761719 C 98.816406 269.265625 90.980469 267.234375 84.621094 263.660156 C 100.242188 259.8125 113.035156 251.855469 123.007812 239.792969 C 140.070312 219.144531 148.335938 192.898438 152.429688 166.703125 C 153.261719 161.371094 154.246094 151.847656 155.382812 138.136719 C 155.675781 134.648438 156.414062 131.347656 157.199219 127.757812 C 159.242188 118.367188 164.027344 111.03125 171.550781 105.75 Z M 169.25 154.347656 C 174.636719 156.105469 177.984375 152.558594 178.863281 147.476562 C 179.984375 141.011719 180.851562 134.621094 185.320312 131.613281 C 188.390625 129.542969 189.667969 126.78125 189.160156 123.332031 C 188.117188 116.25 179.765625 116.011719 175.429688 120.082031 C 167.910156 127.160156 165.191406 137.683594 164.59375 147.609375 C 164.394531 151.03125 165.945312 153.277344 169.25 154.347656 Z M 168.769531 159.386719 C 165.164062 159.234375 162.109375 162.253906 161.949219 166.132812 C 161.785156 170.011719 164.574219 173.277344 168.179688 173.429688 C 171.78125 173.582031 174.835938 170.5625 175 166.683594 C 175.164062 162.808594 172.375 159.539062 168.769531 159.386719 Z M 217.347656 185.960938 C 214.53125 184.648438 211.136719 185.953125 209.773438 188.875 C 208.410156 191.800781 209.589844 195.238281 212.40625 196.550781 C 215.222656 197.867188 218.613281 196.5625 219.976562 193.636719 C 221.339844 190.714844 220.164062 187.277344 217.347656 185.960938 Z M 180.144531 181.863281 C 180.976562 178.796875 179.167969 175.632812 176.101562 174.800781 C 173.03125 173.964844 169.871094 175.773438 169.035156 178.84375 C 168.203125 181.910156 170.011719 185.074219 173.078125 185.90625 C 176.148438 186.742188 179.308594 184.929688 180.144531 181.863281 Z M 191.179688 197.394531 C 194.671875 198.386719 199.574219 197.4375 201.429688 193.867188 C 201.695312 193.367188 201.683594 192.90625 201.398438 192.480469 C 200.574219 191.242188 199.589844 191.171875 198.375 192.390625 C 196.585938 194.183594 194.5 194.746094 192.121094 194.070312 C 189.742188 193.398438 188.261719 191.832031 187.675781 189.371094 C 187.28125 187.683594 186.410156 187.226562 185.0625 187.855469 C 184.59375 188.070312 184.34375 188.457031 184.304688 189.019531 C 184.015625 193.035156 187.695312 196.410156 191.179688 197.394531 Z M 191.179688 197.394531 " fill-opacity="1" fill-rule="nonzero"/></g></g></g></g><g clip-path="url(#c5b5abdcc6)"><g clip-path="url(#8f117cb2c2)"><g clip-path="url(#ef2b2b2e73)"><g clip-path="url(#7ade6df2bd)"><path fill="#f69a9a" d="M 178.863281 147.476562 C 177.984375 152.558594 174.636719 156.105469 169.25 154.347656 C 165.945312 153.277344 164.394531 151.03125 164.59375 147.609375 C 165.191406 137.683594 167.914062 127.160156 175.429688 120.082031 C 179.765625 116.011719 188.121094 116.25 189.160156 123.332031 C 189.671875 126.785156 188.390625 129.542969 185.320312 131.613281 C 180.847656 134.621094 179.988281 141.015625 178.863281 147.476562 Z M 178.863281 147.476562 " fill-opacity="1" fill-rule="nonzero"/></g></g></g></g><g clip-path="url(#475f92cf55)"><g clip-path="url(#f452e1c847)"><g clip-path="url(#f57cbf2131)"><g clip-path="url(#b330c445de)"><path fill="#f69a9a" d="M 174.992188 166.679688 C 174.972656 167.140625 174.910156 167.59375 174.808594 168.042969 C 174.703125 168.492188 174.5625 168.925781 174.378906 169.34375 C 174.199219 169.761719 173.980469 170.160156 173.726562 170.53125 C 173.472656 170.90625 173.1875 171.25 172.871094 171.5625 C 172.554688 171.875 172.210938 172.152344 171.84375 172.394531 C 171.476562 172.632812 171.089844 172.835938 170.6875 172.996094 C 170.285156 173.15625 169.871094 173.269531 169.449219 173.34375 C 169.023438 173.414062 168.597656 173.441406 168.167969 173.421875 C 167.738281 173.40625 167.316406 173.34375 166.902344 173.234375 C 166.484375 173.128906 166.082031 172.976562 165.695312 172.785156 C 165.304688 172.589844 164.9375 172.359375 164.59375 172.085938 C 164.246094 171.816406 163.929688 171.511719 163.640625 171.171875 C 163.351562 170.835938 163.097656 170.46875 162.875 170.074219 C 162.652344 169.679688 162.46875 169.269531 162.320312 168.835938 C 162.175781 168.402344 162.070312 167.957031 162.007812 167.503906 C 161.941406 167.046875 161.917969 166.589844 161.9375 166.128906 C 161.957031 165.667969 162.019531 165.210938 162.121094 164.765625 C 162.222656 164.316406 162.367188 163.882812 162.546875 163.460938 C 162.730469 163.042969 162.949219 162.648438 163.203125 162.273438 C 163.457031 161.902344 163.742188 161.558594 164.058594 161.246094 C 164.375 160.933594 164.71875 160.65625 165.085938 160.414062 C 165.453125 160.171875 165.835938 159.972656 166.242188 159.8125 C 166.644531 159.652344 167.058594 159.535156 167.480469 159.464844 C 167.90625 159.390625 168.332031 159.367188 168.761719 159.382812 C 169.1875 159.402344 169.613281 159.464844 170.027344 159.570312 C 170.445312 159.679688 170.847656 159.828125 171.234375 160.023438 C 171.625 160.214844 171.992188 160.449219 172.335938 160.71875 C 172.683594 160.992188 173 161.296875 173.289062 161.632812 C 173.578125 161.972656 173.832031 162.339844 174.054688 162.730469 C 174.277344 163.125 174.460938 163.539062 174.605469 163.972656 C 174.753906 164.402344 174.859375 164.847656 174.921875 165.304688 C 174.988281 165.757812 175.011719 166.21875 174.992188 166.679688 Z M 174.992188 166.679688 " fill-opacity="1" fill-rule="nonzero"/></g></g></g></g><g clip-path="url(#96d7e8d134)"><g clip-path="url(#860d61f50e)"><g clip-path="url(#00725f00b0)"><g clip-path="url(#5db2cb13e6)"><path fill="#150e0d" d="M 217.34375 185.960938 C 217.679688 186.117188 217.996094 186.304688 218.292969 186.527344 C 218.589844 186.75 218.859375 186.996094 219.109375 187.273438 C 219.355469 187.550781 219.574219 187.851562 219.761719 188.175781 C 219.949219 188.5 220.105469 188.839844 220.226562 189.195312 C 220.351562 189.550781 220.4375 189.917969 220.488281 190.292969 C 220.539062 190.667969 220.554688 191.046875 220.53125 191.429688 C 220.511719 191.808594 220.453125 192.1875 220.359375 192.558594 C 220.265625 192.929688 220.136719 193.289062 219.976562 193.636719 C 219.8125 193.984375 219.621094 194.3125 219.394531 194.625 C 219.171875 194.933594 218.917969 195.21875 218.640625 195.480469 C 218.363281 195.742188 218.0625 195.976562 217.742188 196.175781 C 217.421875 196.378906 217.085938 196.546875 216.734375 196.683594 C 216.382812 196.820312 216.023438 196.917969 215.652344 196.980469 C 215.285156 197.042969 214.914062 197.070312 214.542969 197.058594 C 214.171875 197.046875 213.804688 197 213.445312 196.914062 C 213.085938 196.828125 212.738281 196.707031 212.402344 196.550781 C 212.066406 196.394531 211.75 196.207031 211.453125 195.984375 C 211.15625 195.765625 210.886719 195.515625 210.636719 195.238281 C 210.390625 194.960938 210.171875 194.660156 209.984375 194.335938 C 209.796875 194.011719 209.640625 193.671875 209.519531 193.316406 C 209.398438 192.960938 209.308594 192.59375 209.257812 192.21875 C 209.207031 191.84375 209.191406 191.464844 209.214844 191.082031 C 209.234375 190.703125 209.292969 190.324219 209.386719 189.953125 C 209.480469 189.582031 209.609375 189.222656 209.773438 188.875 C 209.933594 188.527344 210.128906 188.199219 210.351562 187.886719 C 210.574219 187.578125 210.828125 187.292969 211.105469 187.03125 C 211.382812 186.769531 211.683594 186.539062 212.003906 186.335938 C 212.324219 186.132812 212.660156 185.964844 213.011719 185.828125 C 213.363281 185.695312 213.722656 185.59375 214.09375 185.53125 C 214.460938 185.46875 214.832031 185.441406 215.203125 185.453125 C 215.574219 185.464844 215.941406 185.511719 216.300781 185.597656 C 216.660156 185.683594 217.007812 185.804688 217.34375 185.960938 Z M 217.34375 185.960938 " fill-opacity="1" fill-rule="nonzero"/></g></g></g></g><g clip-path="url(#323a685d4d)"><g clip-path="url(#43c3f024b2)"><g clip-path="url(#45fdc1c49a)"><g clip-path="url(#dec541ef3e)"><path fill="#150e0d" d="M 180.144531 181.863281 C 180.042969 182.226562 179.910156 182.578125 179.742188 182.917969 C 179.574219 183.257812 179.375 183.574219 179.144531 183.875 C 178.910156 184.171875 178.652344 184.445312 178.367188 184.695312 C 178.082031 184.941406 177.777344 185.160156 177.449219 185.347656 C 177.121094 185.535156 176.777344 185.691406 176.421875 185.808594 C 176.0625 185.929688 175.695312 186.015625 175.320312 186.0625 C 174.945312 186.109375 174.570312 186.121094 174.191406 186.09375 C 173.816406 186.066406 173.445312 186.003906 173.078125 185.90625 C 172.714844 185.808594 172.363281 185.671875 172.027344 185.503906 C 171.6875 185.335938 171.367188 185.136719 171.070312 184.90625 C 170.769531 184.675781 170.496094 184.417969 170.25 184.132812 C 170 183.847656 169.78125 183.539062 169.59375 183.210938 C 169.40625 182.882812 169.253906 182.539062 169.132812 182.183594 C 169.011719 181.824219 168.929688 181.457031 168.882812 181.082031 C 168.832031 180.707031 168.824219 180.332031 168.847656 179.953125 C 168.875 179.578125 168.9375 179.207031 169.035156 178.84375 C 169.136719 178.476562 169.269531 178.125 169.4375 177.789062 C 169.605469 177.449219 169.804688 177.132812 170.035156 176.832031 C 170.269531 176.535156 170.527344 176.261719 170.8125 176.011719 C 171.097656 175.761719 171.402344 175.546875 171.730469 175.359375 C 172.058594 175.171875 172.402344 175.015625 172.761719 174.894531 C 173.117188 174.777344 173.484375 174.691406 173.859375 174.644531 C 174.234375 174.597656 174.609375 174.585938 174.988281 174.613281 C 175.363281 174.636719 175.734375 174.699219 176.101562 174.800781 C 176.464844 174.898438 176.816406 175.03125 177.15625 175.199219 C 177.492188 175.367188 177.8125 175.570312 178.109375 175.800781 C 178.410156 176.03125 178.683594 176.289062 178.929688 176.574219 C 179.179688 176.859375 179.398438 177.164062 179.585938 177.492188 C 179.773438 177.820312 179.925781 178.164062 180.046875 178.523438 C 180.167969 178.882812 180.25 179.25 180.300781 179.621094 C 180.347656 179.996094 180.359375 180.375 180.332031 180.75 C 180.304688 181.128906 180.242188 181.5 180.144531 181.863281 Z M 180.144531 181.863281 " fill-opacity="1" fill-rule="nonzero"/></g></g></g></g><g clip-path="url(#543410310d)"><g clip-path="url(#8d90b69285)"><g clip-path="url(#c44763286e)"><g clip-path="url(#0eca87c0b6)"><path fill="#150e0d" d="M 191.179688 197.394531 C 187.695312 196.410156 184.015625 193.035156 184.300781 189.019531 C 184.339844 188.460938 184.59375 188.074219 185.0625 187.855469 C 186.40625 187.226562 187.28125 187.6875 187.675781 189.371094 C 188.261719 191.832031 189.742188 193.398438 192.121094 194.074219 C 194.5 194.746094 196.582031 194.1875 198.371094 192.394531 C 199.589844 191.175781 200.574219 191.242188 201.394531 192.480469 C 201.679688 192.90625 201.695312 193.371094 201.429688 193.867188 C 199.578125 197.4375 194.671875 198.386719 191.179688 197.394531 Z M 191.179688 197.394531 " fill-opacity="1" fill-rule="nonzero"/></g></g></g></g></svg>