<svg xmlns="http://www.w3.org/2000/svg" xmlns:xlink="http://www.w3.org/1999/xlink" width="480" zoomAndPan="magnify" viewBox="0 0 360 367.91998" height="480" preserveAspectRatio="xMidYMid meet" version="1.0"><defs><clipPath id="521ce0d654"><path d="M 61 49 L 324 49 L 324 273 L 61 273 Z M 61 49 " clip-rule="nonzero"/></clipPath><clipPath id="7c5cf592b5"><path d="M 85.269531 43.75 L 341.65625 141.636719 L 275.0625 316.066406 L 18.671875 218.179688 Z M 85.269531 43.75 " clip-rule="nonzero"/></clipPath><clipPath id="e423450cec"><path d="M 85.269531 43.75 L 341.65625 141.636719 L 275.0625 316.066406 L 18.671875 218.179688 Z M 85.269531 43.75 " clip-rule="nonzero"/></clipPath><clipPath id="cf7a5c3508"><path d="M 85.269531 43.75 L 341.65625 141.636719 L 275.0625 316.066406 L 18.671875 218.179688 Z M 85.269531 43.75 " clip-rule="nonzero"/></clipPath><clipPath id="57d622eb17"><path d="M 73 51 L 318 51 L 318 259 L 73 259 Z M 73 51 " clip-rule="nonzero"/></clipPath><clipPath id="3ee829e5ec"><path d="M 85.269531 43.75 L 341.65625 141.636719 L 275.0625 316.066406 L 18.671875 218.179688 Z M 85.269531 43.75 " clip-rule="nonzero"/></clipPath><clipPath id="5c0d019b76"><path d="M 85.269531 43.75 L 341.65625 141.636719 L 275.0625 316.066406 L 18.671875 218.179688 Z M 85.269531 43.75 " clip-rule="nonzero"/></clipPath><clipPath id="194b727559"><path d="M 85.269531 43.75 L 341.65625 141.636719 L 275.0625 316.066406 L 18.671875 218.179688 Z M 85.269531 43.75 " clip-rule="nonzero"/></clipPath><clipPath id="9dbb40ab5c"><path d="M 77 52 L 315 52 L 315 255 L 77 255 Z M 77 52 " clip-rule="nonzero"/></clipPath><clipPath id="6713fb872e"><path d="M 85.269531 43.75 L 341.65625 141.636719 L 275.0625 316.066406 L 18.671875 218.179688 Z M 85.269531 43.75 " clip-rule="nonzero"/></clipPath><clipPath id="1bd2b90f93"><path d="M 85.269531 43.75 L 341.65625 141.636719 L 275.0625 316.066406 L 18.671875 218.179688 Z M 85.269531 43.75 " clip-rule="nonzero"/></clipPath><clipPath id="3fb71dda17"><path d="M 85.269531 43.75 L 341.65625 141.636719 L 275.0625 316.066406 L 18.671875 218.179688 Z M 85.269531 43.75 " clip-rule="nonzero"/></clipPath><clipPath id="4eae7e9f96"><path d="M 92 55 L 294 55 L 294 223 L 92 223 Z M 92 55 " clip-rule="nonzero"/></clipPath><clipPath id="0515ea68b9"><path d="M 85.269531 43.75 L 341.65625 141.636719 L 275.0625 316.066406 L 18.671875 218.179688 Z M 85.269531 43.75 " clip-rule="nonzero"/></clipPath><clipPath id="d5f4fc76ef"><path d="M 85.269531 43.75 L 341.65625 141.636719 L 275.0625 316.066406 L 18.671875 218.179688 Z M 85.269531 43.75 " clip-rule="nonzero"/></clipPath><clipPath id="ca256b6d64"><path d="M 85.269531 43.75 L 341.65625 141.636719 L 275.0625 316.066406 L 18.671875 218.179688 Z M 85.269531 43.75 " clip-rule="nonzero"/></clipPath><clipPath id="ba9b271199"><path d="M 112 145 L 132 145 L 132 165 L 112 165 Z M 112 145 " clip-rule="nonzero"/></clipPath><clipPath id="72e8dd3f86"><path d="M 85.269531 43.75 L 341.65625 141.636719 L 275.0625 316.066406 L 18.671875 218.179688 Z M 85.269531 43.75 " clip-rule="nonzero"/></clipPath><clipPath id="9981c2d066"><path d="M 85.269531 43.75 L 341.65625 141.636719 L 275.0625 316.066406 L 18.671875 218.179688 Z M 85.269531 43.75 " clip-rule="nonzero"/></clipPath><clipPath id="feab67b23c"><path d="M 85.269531 43.75 L 341.65625 141.636719 L 275.0625 316.066406 L 18.671875 218.179688 Z M 85.269531 43.75 " clip-rule="nonzero"/></clipPath><clipPath id="69e8836e59"><path d="M 196 201 L 217 201 L 217 222 L 196 222 Z M 196 201 " clip-rule="nonzero"/></clipPath><clipPath id="66a3e14bb7"><path d="M 85.269531 43.75 L 341.65625 141.636719 L 275.0625 316.066406 L 18.671875 218.179688 Z M 85.269531 43.75 " clip-rule="nonzero"/></clipPath><clipPath id="d6287c5ab7"><path d="M 85.269531 43.75 L 341.65625 141.636719 L 275.0625 316.066406 L 18.671875 218.179688 Z M 85.269531 43.75 " clip-rule="nonzero"/></clipPath><clipPath id="2a460b699b"><path d="M 85.269531 43.75 L 341.65625 141.636719 L 275.0625 316.066406 L 18.671875 218.179688 Z M 85.269531 43.75 " clip-rule="nonzero"/></clipPath><clipPath id="eff1369ea0"><path d="M 143 168 L 187 168 L 187 204 L 143 204 Z M 143 168 " clip-rule="nonzero"/></clipPath><clipPath id="167fe38327"><path d="M 85.269531 43.75 L 341.65625 141.636719 L 275.0625 316.066406 L 18.671875 218.179688 Z M 85.269531 43.75 " clip-rule="nonzero"/></clipPath><clipPath id="c079a4ed55"><path d="M 85.269531 43.75 L 341.65625 141.636719 L 275.0625 316.066406 L 18.671875 218.179688 Z M 85.269531 43.75 " clip-rule="nonzero"/></clipPath><clipPath id="6d05aceaaf"><path d="M 85.269531 43.75 L 341.65625 141.636719 L 275.0625 316.066406 L 18.671875 218.179688 Z M 85.269531 43.75 " clip-rule="nonzero"/></clipPath><clipPath id="b9bad34d83"><path d="M 220 158 L 228 158 L 228 167 L 220 167 Z M 220 158 " clip-rule="nonzero"/></clipPath><clipPath id="996004d901"><path d="M 85.269531 43.75 L 341.65625 141.636719 L 275.0625 316.066406 L 18.671875 218.179688 Z M 85.269531 43.75 " clip-rule="nonzero"/></clipPath><clipPath id="31c2b1f884"><path d="M 85.269531 43.75 L 341.65625 141.636719 L 275.0625 316.066406 L 18.671875 218.179688 Z M 85.269531 43.75 " clip-rule="nonzero"/></clipPath><clipPath id="8f42b10b9a"><path d="M 85.269531 43.75 L 341.65625 141.636719 L 275.0625 316.066406 L 18.671875 218.179688 Z M 85.269531 43.75 " clip-rule="nonzero"/></clipPath><clipPath id="430bb4a418"><path d="M 242 199 L 252 199 L 252 206 L 242 206 Z M 242 199 " clip-rule="nonzero"/></clipPath><clipPath id="67a20c0249"><path d="M 85.269531 43.75 L 341.65625 141.636719 L 275.0625 316.066406 L 18.671875 218.179688 Z M 85.269531 43.75 " clip-rule="nonzero"/></clipPath><clipPath id="95250bcfde"><path d="M 85.269531 43.75 L 341.65625 141.636719 L 275.0625 316.066406 L 18.671875 218.179688 Z M 85.269531 43.75 " clip-rule="nonzero"/></clipPath><clipPath id="db0f06df93"><path d="M 85.269531 43.75 L 341.65625 141.636719 L 275.0625 316.066406 L 18.671875 218.179688 Z M 85.269531 43.75 " clip-rule="nonzero"/></clipPath><clipPath id="dac012f745"><path d="M 167 224 L 176 224 L 176 234 L 167 234 Z M 167 224 " clip-rule="nonzero"/></clipPath><clipPath id="69960e9d6a"><path d="M 85.269531 43.75 L 341.65625 141.636719 L 275.0625 316.066406 L 18.671875 218.179688 Z M 85.269531 43.75 " clip-rule="nonzero"/></clipPath><clipPath id="7cd982d7e7"><path d="M 85.269531 43.75 L 341.65625 141.636719 L 275.0625 316.066406 L 18.671875 218.179688 Z M 85.269531 43.75 " clip-rule="nonzero"/></clipPath><clipPath id="5e5039f7ab"><path d="M 85.269531 43.75 L 341.65625 141.636719 L 275.0625 316.066406 L 18.671875 218.179688 Z M 85.269531 43.75 " clip-rule="nonzero"/></clipPath><clipPath id="fbe3d637f5"><path d="M 177 150 L 184 150 L 184 161 L 177 161 Z M 177 150 " clip-rule="nonzero"/></clipPath><clipPath id="41376c43d2"><path d="M 85.269531 43.75 L 341.65625 141.636719 L 275.0625 316.066406 L 18.671875 218.179688 Z M 85.269531 43.75 " clip-rule="nonzero"/></clipPath><clipPath id="377143cdf4"><path d="M 85.269531 43.75 L 341.65625 141.636719 L 275.0625 316.066406 L 18.671875 218.179688 Z M 85.269531 43.75 " clip-rule="nonzero"/></clipPath><clipPath id="ddf0630e30"><path d="M 85.269531 43.75 L 341.65625 141.636719 L 275.0625 316.066406 L 18.671875 218.179688 Z M 85.269531 43.75 " clip-rule="nonzero"/></clipPath><clipPath id="c7a66bdb94"><path d="M 154 109 L 159 109 L 159 120 L 154 120 Z M 154 109 " clip-rule="nonzero"/></clipPath><clipPath id="cebc957be4"><path d="M 85.269531 43.75 L 341.65625 141.636719 L 275.0625 316.066406 L 18.671875 218.179688 Z M 85.269531 43.75 " clip-rule="nonzero"/></clipPath><clipPath id="8b4f20af9e"><path d="M 85.269531 43.75 L 341.65625 141.636719 L 275.0625 316.066406 L 18.671875 218.179688 Z M 85.269531 43.75 " clip-rule="nonzero"/></clipPath><clipPath id="5db5b226b8"><path d="M 85.269531 43.75 L 341.65625 141.636719 L 275.0625 316.066406 L 18.671875 218.179688 Z M 85.269531 43.75 " clip-rule="nonzero"/></clipPath><clipPath id="4041e20ba2"><path d="M 109 111 L 114 111 L 114 122 L 109 122 Z M 109 111 " clip-rule="nonzero"/></clipPath><clipPath id="1d23402bd2"><path d="M 85.269531 43.75 L 341.65625 141.636719 L 275.0625 316.066406 L 18.671875 218.179688 Z M 85.269531 43.75 " clip-rule="nonzero"/></clipPath><clipPath id="a72ef6a0fc"><path d="M 85.269531 43.75 L 341.65625 141.636719 L 275.0625 316.066406 L 18.671875 218.179688 Z M 85.269531 43.75 " clip-rule="nonzero"/></clipPath><clipPath id="2c1e281f67"><path d="M 85.269531 43.75 L 341.65625 141.636719 L 275.0625 316.066406 L 18.671875 218.179688 Z M 85.269531 43.75 " clip-rule="nonzero"/></clipPath><clipPath id="f8f7a61cc9"><path d="M 116 186 L 121 186 L 121 197 L 116 197 Z M 116 186 " clip-rule="nonzero"/></clipPath><clipPath id="64b15bf5e1"><path d="M 85.269531 43.75 L 341.65625 141.636719 L 275.0625 316.066406 L 18.671875 218.179688 Z M 85.269531 43.75 " clip-rule="nonzero"/></clipPath><clipPath id="a858fce6c6"><path d="M 85.269531 43.75 L 341.65625 141.636719 L 275.0625 316.066406 L 18.671875 218.179688 Z M 85.269531 43.75 " clip-rule="nonzero"/></clipPath><clipPath id="d9b36be1ef"><path d="M 85.269531 43.75 L 341.65625 141.636719 L 275.0625 316.066406 L 18.671875 218.179688 Z M 85.269531 43.75 " clip-rule="nonzero"/></clipPath></defs><g clip-path="url(#521ce0d654)"><g clip-path="url(#7c5cf592b5)"><g clip-path="url(#e423450cec)"><g clip-path="url(#cf7a5c3508)"><path fill="#428535" d="M 322.886719 189.894531 C 308.28125 225.605469 277.3125 254.265625 240.503906 266.042969 C 203.078125 277.988281 160.367188 272.238281 127.414062 250.796875 C 100.589844 233.359375 80.609375 206.273438 69.882812 176.164062 C 63.007812 156.863281 59.800781 135.960938 63.203125 115.777344 C 67.246094 91.765625 79.71875 66.382812 95.183594 50.332031 C 96.429688 49.035156 98.371094 48.695312 99.957031 49.578125 C 100.992188 50.136719 102.039062 50.699219 103.0625 51.273438 C 104.003906 51.78125 104.957031 52.308594 105.898438 52.8125 C 174.835938 90.53125 251.183594 135.976562 314.601562 181.578125 C 315.5625 182.277344 316.511719 182.949219 317.457031 183.640625 C 318.992188 184.753906 320.523438 185.867188 322.058594 186.984375 C 322.960938 187.640625 323.304688 188.847656 322.886719 189.894531 Z M 322.886719 189.894531 " fill-opacity="1" fill-rule="nonzero"/></g></g></g></g><g clip-path="url(#57d622eb17)"><g clip-path="url(#3ee829e5ec)"><g clip-path="url(#5c0d019b76)"><g clip-path="url(#194b727559)"><path fill="#d1e880" d="M 314.601562 181.578125 C 251.183594 135.976562 174.835938 90.53125 105.898438 52.8125 C 104.957031 52.308594 104.003906 51.78125 103.0625 51.273438 C 82.234375 76.625 71.472656 110.238281 74.132812 142.96875 C 77.125 179.824219 97.097656 214.835938 127.175781 235.980469 C 157.246094 257.109375 196.851562 263.992188 232.382812 254.226562 C 247.007812 250.203125 260.898438 243.503906 273.335938 234.753906 C 291.914062 221.675781 307.171875 203.917969 317.457031 183.640625 C 316.511719 182.949219 315.5625 182.277344 314.601562 181.578125 Z M 314.601562 181.578125 " fill-opacity="1" fill-rule="nonzero"/></g></g></g></g><g clip-path="url(#9dbb40ab5c)"><g clip-path="url(#6713fb872e)"><g clip-path="url(#1bd2b90f93)"><g clip-path="url(#3fb71dda17)"><path fill="#eb5e54" d="M 314.601562 181.578125 C 303.449219 200.523438 289.394531 217.863281 271.742188 231.019531 C 251.472656 246.132812 226.207031 255.433594 200.730469 254.125 C 185.34375 253.332031 167.847656 249.191406 153.8125 242.789062 C 116.96875 225.984375 87.75 193.710938 79.519531 154.46875 C 72.066406 119.035156 84.507812 82.132812 105.898438 52.8125 C 107.761719 53.835938 109.625 54.855469 111.484375 55.878906 C 171.292969 88.777344 236.21875 127.265625 293.167969 166.507812 C 300.460938 171.523438 307.605469 176.550781 314.601562 181.578125 Z M 314.601562 181.578125 " fill-opacity="1" fill-rule="nonzero"/></g></g></g></g><g clip-path="url(#4eae7e9f96)"><g clip-path="url(#0515ea68b9)"><g clip-path="url(#d5f4fc76ef)"><g clip-path="url(#ca256b6d64)"><path fill="#f76c57" d="M 293.167969 166.507812 C 273.597656 194.316406 243.929688 215.488281 210.445312 221.390625 C 174.480469 227.738281 134.742188 214.773438 112.371094 185.902344 C 97.601562 166.855469 90.96875 142.125 92.132812 118.074219 C 93.191406 96.171875 100.414062 74.851562 111.484375 55.878906 C 171.292969 88.777344 236.21875 127.265625 293.167969 166.507812 Z M 293.167969 166.507812 " fill-opacity="1" fill-rule="nonzero"/></g></g></g></g><g clip-path="url(#ba9b271199)"><g clip-path="url(#72e8dd3f86)"><g clip-path="url(#9981c2d066)"><g clip-path="url(#feab67b23c)"><path fill="#524327" d="M 131.074219 158.351562 C 130.84375 158.953125 130.558594 159.527344 130.214844 160.070312 C 129.871094 160.617188 129.480469 161.125 129.035156 161.59375 C 128.59375 162.058594 128.105469 162.480469 127.582031 162.851562 C 127.054688 163.226562 126.496094 163.542969 125.90625 163.804688 C 125.320312 164.070312 124.710938 164.273438 124.082031 164.414062 C 123.453125 164.558594 122.8125 164.636719 122.167969 164.65625 C 121.523438 164.671875 120.882812 164.628906 120.246094 164.519531 C 119.609375 164.410156 118.988281 164.242188 118.386719 164.011719 C 117.78125 163.78125 117.207031 163.492188 116.660156 163.152344 C 116.113281 162.808594 115.605469 162.414062 115.136719 161.972656 C 114.667969 161.527344 114.246094 161.042969 113.871094 160.515625 C 113.496094 159.992188 113.179688 159.433594 112.914062 158.84375 C 112.652344 158.257812 112.445312 157.648438 112.300781 157.019531 C 112.160156 156.390625 112.078125 155.753906 112.058594 155.109375 C 112.039062 154.464844 112.085938 153.828125 112.191406 153.191406 C 112.300781 152.554688 112.46875 151.9375 112.699219 151.335938 C 112.929688 150.734375 113.214844 150.160156 113.558594 149.613281 C 113.902344 149.070312 114.292969 148.5625 114.738281 148.09375 C 115.179688 147.625 115.664062 147.207031 116.191406 146.832031 C 116.71875 146.460938 117.277344 146.144531 117.863281 145.878906 C 118.453125 145.617188 119.0625 145.414062 119.691406 145.273438 C 120.320312 145.128906 120.960938 145.046875 121.605469 145.03125 C 122.25 145.011719 122.890625 145.058594 123.527344 145.167969 C 124.164062 145.277344 124.785156 145.445312 125.386719 145.675781 C 125.988281 145.90625 126.566406 146.191406 127.113281 146.535156 C 127.660156 146.878906 128.167969 147.273438 128.636719 147.714844 C 129.105469 148.160156 129.527344 148.644531 129.902344 149.167969 C 130.273438 149.695312 130.59375 150.253906 130.859375 150.839844 C 131.121094 151.429688 131.328125 152.039062 131.46875 152.667969 C 131.613281 153.292969 131.695312 153.929688 131.714844 154.574219 C 131.734375 155.21875 131.6875 155.859375 131.582031 156.496094 C 131.472656 157.128906 131.304688 157.75 131.074219 158.351562 Z M 131.074219 158.351562 " fill-opacity="1" fill-rule="nonzero"/></g></g></g></g><g clip-path="url(#69e8836e59)"><g clip-path="url(#66a3e14bb7)"><g clip-path="url(#d6287c5ab7)"><g clip-path="url(#2a460b699b)"><path fill="#524327" d="M 215.53125 215.257812 C 215.300781 215.859375 215.015625 216.433594 214.671875 216.980469 C 214.328125 217.523438 213.9375 218.03125 213.492188 218.5 C 213.050781 218.96875 212.566406 219.386719 212.039062 219.761719 C 211.511719 220.132812 210.953125 220.449219 210.367188 220.714844 C 209.777344 220.976562 209.167969 221.179688 208.539062 221.320312 C 207.910156 221.464844 207.273438 221.546875 206.625 221.5625 C 205.980469 221.582031 205.339844 221.535156 204.703125 221.425781 C 204.066406 221.316406 203.445312 221.148438 202.84375 220.917969 C 202.242188 220.6875 201.664062 220.402344 201.117188 220.058594 C 200.570312 219.714844 200.0625 219.320312 199.59375 218.878906 C 199.125 218.433594 198.703125 217.949219 198.328125 217.425781 C 197.957031 216.898438 197.636719 216.339844 197.371094 215.753906 C 197.109375 215.164062 196.902344 214.554688 196.761719 213.925781 C 196.617188 213.296875 196.535156 212.664062 196.515625 212.019531 C 196.496094 211.375 196.542969 210.734375 196.648438 210.097656 C 196.757812 209.464844 196.925781 208.84375 197.15625 208.242188 C 197.386719 207.640625 197.671875 207.066406 198.015625 206.523438 C 198.359375 205.976562 198.753906 205.46875 199.195312 205 C 199.636719 204.535156 200.125 204.113281 200.648438 203.742188 C 201.175781 203.367188 201.734375 203.050781 202.324219 202.789062 C 202.910156 202.523438 203.519531 202.320312 204.148438 202.179688 C 204.777344 202.035156 205.417969 201.957031 206.0625 201.9375 C 206.707031 201.921875 207.347656 201.964844 207.984375 202.074219 C 208.621094 202.183594 209.242188 202.351562 209.84375 202.582031 C 210.449219 202.8125 211.023438 203.101562 211.570312 203.441406 C 212.117188 203.785156 212.625 204.179688 213.09375 204.621094 C 213.5625 205.066406 213.984375 205.550781 214.359375 206.078125 C 214.734375 206.601562 215.050781 207.160156 215.316406 207.75 C 215.578125 208.335938 215.785156 208.945312 215.929688 209.574219 C 216.070312 210.203125 216.152344 210.839844 216.171875 211.484375 C 216.191406 212.128906 216.144531 212.765625 216.039062 213.402344 C 215.929688 214.039062 215.761719 214.65625 215.53125 215.257812 Z M 215.53125 215.257812 " fill-opacity="1" fill-rule="nonzero"/></g></g></g></g><g clip-path="url(#eff1369ea0)"><g clip-path="url(#167fe38327)"><g clip-path="url(#c079a4ed55)"><g clip-path="url(#6d05aceaaf)"><path fill="#524327" d="M 158.335938 201.933594 C 153.304688 200.011719 148.894531 196.410156 146.183594 191.757812 C 142.140625 184.84375 141.960938 175.824219 145.734375 168.769531 C 145.960938 168.363281 146.460938 168.207031 146.890625 168.425781 C 147.304688 168.640625 147.464844 169.175781 147.234375 169.582031 C 143.734375 176.117188 143.902344 184.496094 147.648438 190.894531 C 151.386719 197.308594 158.621094 201.570312 166.039062 201.75 C 173.472656 201.941406 180.875 198.042969 184.933594 191.828125 C 185.191406 191.433594 185.710938 191.324219 186.105469 191.582031 C 186.5 191.84375 186.613281 192.363281 186.355469 192.753906 C 181.984375 199.453125 173.992188 203.65625 165.996094 203.453125 C 163.367188 203.378906 160.769531 202.847656 158.328125 201.914062 Z M 158.335938 201.933594 " fill-opacity="1" fill-rule="nonzero"/></g></g></g></g><g clip-path="url(#b9bad34d83)"><g clip-path="url(#996004d901)"><g clip-path="url(#31c2b1f884)"><g clip-path="url(#8f42b10b9a)"><path fill="#524327" d="M 227.269531 158.996094 C 227.460938 159.160156 227.558594 159.417969 227.566406 159.769531 C 227.570312 160.121094 227.484375 160.535156 227.300781 161.015625 C 227.121094 161.492188 226.863281 162 226.523438 162.539062 C 226.183594 163.074219 225.789062 163.597656 225.34375 164.109375 C 224.894531 164.621094 224.429688 165.082031 223.941406 165.488281 C 223.457031 165.898438 222.988281 166.222656 222.535156 166.46875 C 222.085938 166.710938 221.683594 166.851562 221.335938 166.894531 C 220.988281 166.9375 220.71875 166.875 220.527344 166.707031 C 220.335938 166.539062 220.238281 166.28125 220.230469 165.929688 C 220.226562 165.582031 220.3125 165.167969 220.496094 164.6875 C 220.675781 164.207031 220.933594 163.699219 221.273438 163.164062 C 221.613281 162.628906 222.007812 162.105469 222.453125 161.59375 C 222.902344 161.082031 223.367188 160.621094 223.855469 160.210938 C 224.339844 159.804688 224.808594 159.476562 225.261719 159.234375 C 225.710938 158.992188 226.113281 158.847656 226.460938 158.808594 C 226.808594 158.765625 227.078125 158.828125 227.269531 158.996094 Z M 227.269531 158.996094 " fill-opacity="1" fill-rule="nonzero"/></g></g></g></g><g clip-path="url(#430bb4a418)"><g clip-path="url(#67a20c0249)"><g clip-path="url(#95250bcfde)"><g clip-path="url(#db0f06df93)"><path fill="#524327" d="M 251.078125 199.792969 C 251.214844 200.007812 251.234375 200.285156 251.136719 200.621094 C 251.042969 200.957031 250.839844 201.328125 250.527344 201.734375 C 250.214844 202.140625 249.816406 202.550781 249.335938 202.96875 C 248.855469 203.382812 248.324219 203.769531 247.75 204.128906 C 247.171875 204.488281 246.59375 204.792969 246.007812 205.042969 C 245.425781 205.292969 244.882812 205.46875 244.378906 205.570312 C 243.875 205.675781 243.449219 205.695312 243.105469 205.632812 C 242.761719 205.574219 242.519531 205.433594 242.386719 205.21875 C 242.25 205.003906 242.230469 204.730469 242.328125 204.390625 C 242.421875 204.054688 242.628906 203.683594 242.941406 203.277344 C 243.253906 202.871094 243.648438 202.460938 244.128906 202.046875 C 244.609375 201.632812 245.140625 201.246094 245.714844 200.886719 C 246.292969 200.527344 246.875 200.21875 247.457031 199.96875 C 248.042969 199.71875 248.585938 199.542969 249.089844 199.441406 C 249.589844 199.339844 250.015625 199.320312 250.359375 199.378906 C 250.707031 199.441406 250.945312 199.578125 251.078125 199.792969 Z M 251.078125 199.792969 " fill-opacity="1" fill-rule="nonzero"/></g></g></g></g><g clip-path="url(#dac012f745)"><g clip-path="url(#69960e9d6a)"><g clip-path="url(#7cd982d7e7)"><g clip-path="url(#5e5039f7ab)"><path fill="#524327" d="M 174.957031 225.175781 C 175.152344 225.339844 175.253906 225.597656 175.261719 225.945312 C 175.273438 226.296875 175.1875 226.710938 175.011719 227.191406 C 174.835938 227.675781 174.582031 228.183594 174.246094 228.722656 C 173.914062 229.265625 173.527344 229.792969 173.085938 230.308594 C 172.644531 230.824219 172.179688 231.289062 171.699219 231.703125 C 171.21875 232.117188 170.75 232.445312 170.304688 232.695312 C 169.855469 232.941406 169.457031 233.089844 169.109375 233.132812 C 168.761719 233.179688 168.492188 233.121094 168.296875 232.953125 C 168.105469 232.789062 168.003906 232.53125 167.992188 232.183594 C 167.984375 231.832031 168.066406 231.417969 168.242188 230.9375 C 168.417969 230.453125 168.671875 229.945312 169.007812 229.40625 C 169.339844 228.863281 169.730469 228.335938 170.171875 227.820312 C 170.613281 227.304688 171.074219 226.839844 171.554688 226.425781 C 172.039062 226.011719 172.503906 225.683594 172.953125 225.433594 C 173.402344 225.1875 173.800781 225.039062 174.148438 224.996094 C 174.496094 224.949219 174.765625 225.007812 174.957031 225.175781 Z M 174.957031 225.175781 " fill-opacity="1" fill-rule="nonzero"/></g></g></g></g><g clip-path="url(#fbe3d637f5)"><g clip-path="url(#41376c43d2)"><g clip-path="url(#377143cdf4)"><g clip-path="url(#ddf0630e30)"><path fill="#524327" d="M 182.46875 151.023438 C 182.703125 151.128906 182.875 151.34375 182.988281 151.679688 C 183.097656 152.011719 183.140625 152.433594 183.113281 152.949219 C 183.085938 153.460938 182.988281 154.023438 182.824219 154.636719 C 182.660156 155.25 182.441406 155.867188 182.167969 156.488281 C 181.890625 157.109375 181.582031 157.6875 181.238281 158.21875 C 180.894531 158.753906 180.542969 159.203125 180.183594 159.570312 C 179.824219 159.9375 179.484375 160.191406 179.160156 160.332031 C 178.839844 160.472656 178.5625 160.492188 178.328125 160.390625 C 178.09375 160.285156 177.921875 160.066406 177.808594 159.734375 C 177.699219 159.398438 177.65625 158.976562 177.683594 158.464844 C 177.710938 157.953125 177.808594 157.390625 177.972656 156.777344 C 178.136719 156.164062 178.355469 155.546875 178.628906 154.925781 C 178.90625 154.304688 179.214844 153.726562 179.558594 153.191406 C 179.902344 152.660156 180.253906 152.207031 180.613281 151.84375 C 180.972656 151.476562 181.3125 151.222656 181.636719 151.082031 C 181.957031 150.9375 182.234375 150.921875 182.46875 151.023438 Z M 182.46875 151.023438 " fill-opacity="1" fill-rule="nonzero"/></g></g></g></g><g clip-path="url(#c7a66bdb94)"><g clip-path="url(#cebc957be4)"><g clip-path="url(#8b4f20af9e)"><g clip-path="url(#5db5b226b8)"><path fill="#524327" d="M 158.757812 114.667969 C 158.628906 115.335938 158.453125 115.964844 158.238281 116.5625 C 158.019531 117.160156 157.777344 117.675781 157.507812 118.113281 C 157.238281 118.550781 156.960938 118.871094 156.679688 119.082031 C 156.398438 119.292969 156.132812 119.371094 155.878906 119.324219 C 155.628906 119.273438 155.410156 119.097656 155.230469 118.796875 C 155.046875 118.496094 154.914062 118.09375 154.828125 117.589844 C 154.742188 117.082031 154.710938 116.511719 154.734375 115.878906 C 154.757812 115.242188 154.835938 114.59375 154.964844 113.925781 C 155.09375 113.257812 155.265625 112.628906 155.484375 112.03125 C 155.699219 111.433594 155.941406 110.917969 156.210938 110.480469 C 156.480469 110.042969 156.757812 109.722656 157.039062 109.511719 C 157.324219 109.300781 157.589844 109.222656 157.839844 109.269531 C 158.09375 109.320312 158.308594 109.496094 158.492188 109.796875 C 158.675781 110.097656 158.808594 110.5 158.894531 111.003906 C 158.980469 111.511719 159.011719 112.082031 158.988281 112.714844 C 158.964844 113.351562 158.886719 114 158.757812 114.667969 Z M 158.757812 114.667969 " fill-opacity="1" fill-rule="nonzero"/></g></g></g></g><g clip-path="url(#4041e20ba2)"><g clip-path="url(#1d23402bd2)"><g clip-path="url(#a72ef6a0fc)"><g clip-path="url(#2c1e281f67)"><path fill="#524327" d="M 113.476562 116.945312 C 113.375 117.613281 113.226562 118.253906 113.035156 118.859375 C 112.84375 119.464844 112.625 119.988281 112.371094 120.4375 C 112.121094 120.882812 111.859375 121.21875 111.585938 121.441406 C 111.3125 121.660156 111.046875 121.75 110.796875 121.710938 C 110.542969 121.671875 110.316406 121.507812 110.121094 121.214844 C 109.929688 120.921875 109.777344 120.523438 109.671875 120.023438 C 109.5625 119.519531 109.507812 118.953125 109.507812 118.316406 C 109.503906 117.683594 109.554688 117.027344 109.65625 116.359375 C 109.757812 115.6875 109.90625 115.046875 110.097656 114.441406 C 110.289062 113.835938 110.511719 113.3125 110.761719 112.863281 C 111.011719 112.417969 111.277344 112.082031 111.550781 111.863281 C 111.824219 111.640625 112.085938 111.550781 112.339844 111.589844 C 112.59375 111.628906 112.816406 111.792969 113.011719 112.085938 C 113.207031 112.378906 113.355469 112.777344 113.464844 113.277344 C 113.570312 113.78125 113.625 114.347656 113.628906 114.984375 C 113.628906 115.621094 113.578125 116.273438 113.476562 116.945312 Z M 113.476562 116.945312 " fill-opacity="1" fill-rule="nonzero"/></g></g></g></g><g clip-path="url(#f8f7a61cc9)"><g clip-path="url(#64b15bf5e1)"><g clip-path="url(#a858fce6c6)"><g clip-path="url(#d9b36be1ef)"><path fill="#524327" d="M 120.4375 191.492188 C 120.335938 192.164062 120.1875 192.800781 119.996094 193.40625 C 119.804688 194.011719 119.585938 194.539062 119.332031 194.984375 C 119.082031 195.433594 118.820312 195.765625 118.546875 195.988281 C 118.273438 196.207031 118.007812 196.300781 117.757812 196.261719 C 117.503906 196.222656 117.277344 196.054688 117.082031 195.761719 C 116.890625 195.46875 116.738281 195.074219 116.632812 194.570312 C 116.523438 194.066406 116.46875 193.5 116.46875 192.863281 C 116.464844 192.230469 116.515625 191.578125 116.617188 190.90625 C 116.71875 190.234375 116.867188 189.59375 117.058594 188.988281 C 117.25 188.386719 117.472656 187.859375 117.722656 187.410156 C 117.976562 186.964844 118.238281 186.628906 118.511719 186.410156 C 118.785156 186.1875 119.046875 186.097656 119.300781 186.136719 C 119.554688 186.175781 119.777344 186.339844 119.972656 186.632812 C 120.167969 186.925781 120.316406 187.324219 120.425781 187.824219 C 120.53125 188.328125 120.585938 188.898438 120.589844 189.53125 C 120.589844 190.167969 120.539062 190.820312 120.4375 191.492188 Z M 120.4375 191.492188 " fill-opacity="1" fill-rule="nonzero"/></g></g></g></g></svg>