<svg xmlns="http://www.w3.org/2000/svg" xmlns:xlink="http://www.w3.org/1999/xlink" width="480" zoomAndPan="magnify" viewBox="0 0 360 367.91998" height="480" preserveAspectRatio="xMidYMid meet" version="1.0"><path fill="#428535" d="M 124.355469 101.273438 C 118.335938 125.226562 100.253906 144.195312 87.351562 165.246094 C 74.449219 186.300781 64.003906 210.761719 68.054688 235.117188 C 71.375 255.148438 84.410156 272.699219 100.832031 284.640625 C 117.230469 296.585938 136.816406 303.433594 156.578125 308.019531 C 188.117188 315.332031 222.199219 316.996094 251.988281 304.320312 C 281.777344 291.644531 305.832031 261.972656 304.527344 229.597656 C 303.355469 200.945312 283.722656 176.371094 277.371094 148.40625 C 273.167969 129.902344 274.871094 110.292969 269.558594 92.078125 C 259.976562 59.371094 227.332031 35.992188 191.96875 38.121094 C 152.441406 40.511719 134.535156 60.722656 124.355469 101.273438 Z M 124.355469 101.273438 " fill-opacity="1" fill-rule="nonzero"/><path fill="#acc955" d="M 217.042969 50.351562 C 160.9375 36.058594 145.644531 72.820312 132.566406 113.4375 C 125.460938 135.511719 109.085938 153.257812 96.734375 172.871094 C 24.234375 288.011719 217.375 332.992188 269.292969 281.007812 C 312.140625 238.109375 286.492188 209.808594 269.9375 163.585938 C 257.078125 127.6875 269.027344 63.582031 217.019531 50.328125 Z M 217.042969 50.351562 " fill-opacity="1" fill-rule="nonzero"/><path fill="#524327" d="M 167.734375 133.625 C 167.734375 134.425781 167.65625 135.21875 167.5 136.003906 C 167.34375 136.789062 167.113281 137.550781 166.808594 138.289062 C 166.5 139.03125 166.125 139.730469 165.683594 140.398438 C 165.238281 141.0625 164.734375 141.679688 164.167969 142.246094 C 163.601562 142.808594 162.988281 143.316406 162.324219 143.761719 C 161.660156 144.203125 160.957031 144.578125 160.21875 144.886719 C 159.480469 145.191406 158.71875 145.421875 157.9375 145.578125 C 157.152344 145.734375 156.359375 145.8125 155.5625 145.8125 C 154.761719 145.8125 153.96875 145.734375 153.1875 145.578125 C 152.402344 145.421875 151.640625 145.191406 150.902344 144.886719 C 150.164062 144.578125 149.464844 144.203125 148.796875 143.761719 C 148.132812 143.316406 147.519531 142.808594 146.953125 142.246094 C 146.390625 141.679688 145.882812 141.0625 145.441406 140.398438 C 144.996094 139.730469 144.621094 139.03125 144.316406 138.289062 C 144.007812 137.550781 143.777344 136.789062 143.621094 136.003906 C 143.46875 135.21875 143.390625 134.425781 143.390625 133.625 C 143.390625 132.824219 143.46875 132.035156 143.621094 131.25 C 143.777344 130.464844 144.007812 129.703125 144.316406 128.960938 C 144.621094 128.222656 144.996094 127.519531 145.441406 126.855469 C 145.882812 126.191406 146.390625 125.574219 146.953125 125.007812 C 147.519531 124.441406 148.132812 123.9375 148.796875 123.492188 C 149.464844 123.046875 150.164062 122.671875 150.902344 122.367188 C 151.640625 122.058594 152.402344 121.828125 153.1875 121.671875 C 153.96875 121.515625 154.761719 121.4375 155.5625 121.4375 C 156.359375 121.4375 157.152344 121.515625 157.9375 121.671875 C 158.71875 121.828125 159.480469 122.058594 160.21875 122.367188 C 160.957031 122.671875 161.660156 123.046875 162.324219 123.492188 C 162.988281 123.9375 163.601562 124.441406 164.167969 125.007812 C 164.734375 125.574219 165.238281 126.191406 165.683594 126.855469 C 166.125 127.519531 166.5 128.222656 166.808594 128.960938 C 167.113281 129.703125 167.34375 130.464844 167.5 131.25 C 167.65625 132.035156 167.734375 132.824219 167.734375 133.625 Z M 167.734375 133.625 " fill-opacity="1" fill-rule="nonzero"/><path fill="#524327" d="M 244.085938 141.382812 C 244.085938 142.183594 244.007812 142.976562 243.851562 143.757812 C 243.695312 144.542969 243.464844 145.308594 243.160156 146.046875 C 242.855469 146.785156 242.480469 147.488281 242.035156 148.152344 C 241.589844 148.820312 241.085938 149.433594 240.523438 150 C 239.957031 150.566406 239.339844 151.070312 238.675781 151.515625 C 238.011719 151.960938 237.3125 152.335938 236.574219 152.640625 C 235.835938 152.949219 235.074219 153.179688 234.289062 153.335938 C 233.503906 153.492188 232.714844 153.570312 231.914062 153.570312 C 231.117188 153.570312 230.324219 153.492188 229.539062 153.335938 C 228.757812 153.179688 227.996094 152.949219 227.257812 152.640625 C 226.519531 152.335938 225.816406 151.960938 225.152344 151.515625 C 224.488281 151.070312 223.871094 150.566406 223.308594 150 C 222.742188 149.433594 222.238281 148.820312 221.792969 148.152344 C 221.351562 147.488281 220.976562 146.785156 220.667969 146.046875 C 220.363281 145.308594 220.132812 144.542969 219.976562 143.757812 C 219.820312 142.976562 219.742188 142.183594 219.742188 141.382812 C 219.742188 140.582031 219.820312 139.789062 219.976562 139.003906 C 220.132812 138.21875 220.363281 137.457031 220.667969 136.71875 C 220.976562 135.980469 221.351562 135.277344 221.792969 134.609375 C 222.238281 133.945312 222.742188 133.328125 223.308594 132.765625 C 223.871094 132.199219 224.488281 131.691406 225.152344 131.25 C 225.816406 130.804688 226.519531 130.429688 227.257812 130.121094 C 227.996094 129.816406 228.757812 129.585938 229.539062 129.429688 C 230.324219 129.273438 231.117188 129.195312 231.914062 129.195312 C 232.714844 129.195312 233.503906 129.273438 234.289062 129.429688 C 235.074219 129.585938 235.835938 129.816406 236.574219 130.121094 C 237.3125 130.429688 238.011719 130.804688 238.675781 131.25 C 239.339844 131.691406 239.957031 132.199219 240.523438 132.765625 C 241.085938 133.328125 241.589844 133.945312 242.035156 134.609375 C 242.480469 135.277344 242.855469 135.980469 243.160156 136.71875 C 243.464844 137.457031 243.695312 138.21875 243.851562 139.003906 C 244.007812 139.789062 244.085938 140.582031 244.085938 141.382812 Z M 244.085938 141.382812 " fill-opacity="1" fill-rule="nonzero"/><path fill="#524327" d="M 193.804688 153.257812 C 189.796875 153.257812 185.792969 151.863281 182.761719 149.183594 C 177.558594 144.550781 175.8125 136.550781 178.621094 130.167969 C 178.867188 129.617188 179.53125 129.347656 180.082031 129.617188 C 180.636719 129.859375 180.902344 130.523438 180.660156 131.078125 C 178.269531 136.507812 179.796875 143.597656 184.242188 147.542969 C 188.667969 151.488281 195.882812 152.171875 200.996094 149.160156 C 206.109375 146.144531 208.964844 139.5 207.660156 133.691406 C 207.527344 133.09375 207.902344 132.496094 208.5 132.363281 C 209.097656 132.207031 209.695312 132.605469 209.828125 133.207031 C 211.355469 140.007812 208.125 147.519531 202.125 151.066406 C 199.601562 152.550781 196.726562 153.28125 193.828125 153.28125 Z M 193.804688 153.257812 " fill-opacity="1" fill-rule="nonzero"/><path fill="#a65f29" d="M 247.074219 233.367188 C 246.320312 243.757812 243.15625 253.351562 238.246094 261.664062 C 226.757812 281.050781 205.578125 293.328125 182.316406 291.621094 C 149.121094 289.164062 124.246094 259.113281 126.789062 224.5 C 127.476562 215.019531 130.175781 206.175781 134.402344 198.398438 C 139.957031 188.09375 148.191406 179.628906 158.039062 173.957031 C 158.039062 173.957031 158.039062 173.933594 158.0625 173.933594 C 167.953125 168.238281 179.464844 165.359375 191.546875 166.246094 C 211.242188 167.707031 227.996094 178.875 237.847656 194.917969 C 244.617188 205.953125 248.113281 219.273438 247.074219 233.367188 Z M 247.074219 233.367188 " fill-opacity="1" fill-rule="nonzero"/><path fill="#9e4e20" d="M 238.246094 261.664062 C 226.757812 281.050781 205.578125 293.328125 182.316406 291.621094 C 149.121094 289.164062 124.246094 259.113281 126.789062 224.5 C 127.476562 215.019531 130.175781 206.175781 134.402344 198.398438 C 129.757812 213.6875 130.886719 230.796875 138.035156 245.132812 C 147.769531 264.675781 168.351562 278.371094 190.152344 279.765625 C 207.769531 280.898438 225.628906 273.960938 238.246094 261.664062 Z M 238.246094 261.664062 " fill-opacity="1" fill-rule="nonzero"/></svg>