<svg xmlns="http://www.w3.org/2000/svg" xmlns:xlink="http://www.w3.org/1999/xlink" width="480" zoomAndPan="magnify" viewBox="0 0 360 367.91998" height="480" preserveAspectRatio="xMidYMid meet" version="1.0"><defs><clipPath id="fb401e2788"><path d="M 179 186 L 280.460938 186 L 280.460938 323.867188 L 179 323.867188 Z M 179 186 " clip-rule="nonzero"/></clipPath><clipPath id="b263f143a9"><path d="M 179 199 L 253 199 L 253 323.867188 L 179 323.867188 Z M 179 199 " clip-rule="nonzero"/></clipPath></defs><path fill="#ffffff" d="M 234.296875 195.367188 C 234.457031 205.984375 233.8125 216.65625 232.367188 227.292969 C 203.96875 230.058594 174.980469 226.578125 146.742188 215.320312 C 148.6875 190.40625 142.632812 165.550781 134.542969 141.925781 C 126.46875 118.28125 116.324219 95.332031 109.625 71.277344 C 107.179688 62.425781 105.230469 52.773438 108.660156 44.242188 C 110.570312 39.476562 113.984375 35.730469 118.234375 33.035156 C 125.539062 28.378906 135.308594 26.878906 143.917969 28.859375 C 157.527344 31.964844 168.636719 41.65625 178.105469 51.933594 C 213.433594 90.300781 233.636719 142.066406 234.296875 195.367188 Z M 234.296875 195.367188 " fill-opacity="1" fill-rule="nonzero"/><path fill="#524327" d="M 167.101562 156.878906 C 167.101562 157.492188 167.042969 158.101562 166.921875 158.707031 C 166.800781 159.308594 166.625 159.894531 166.386719 160.464844 C 166.152344 161.03125 165.863281 161.570312 165.523438 162.082031 C 165.179688 162.59375 164.789062 163.066406 164.355469 163.503906 C 163.921875 163.9375 163.445312 164.324219 162.933594 164.667969 C 162.421875 165.007812 161.882812 165.296875 161.3125 165.53125 C 160.746094 165.769531 160.160156 165.945312 159.554688 166.066406 C 158.949219 166.1875 158.339844 166.246094 157.726562 166.246094 C 157.109375 166.246094 156.5 166.1875 155.894531 166.066406 C 155.292969 165.945312 154.707031 165.769531 154.136719 165.53125 C 153.566406 165.296875 153.027344 165.007812 152.515625 164.667969 C 152.003906 164.324219 151.53125 163.9375 151.09375 163.503906 C 150.660156 163.066406 150.269531 162.59375 149.929688 162.082031 C 149.585938 161.570312 149.296875 161.03125 149.0625 160.464844 C 148.824219 159.894531 148.648438 159.308594 148.527344 158.707031 C 148.40625 158.101562 148.347656 157.492188 148.347656 156.878906 C 148.347656 156.261719 148.40625 155.652344 148.527344 155.050781 C 148.648438 154.445312 148.824219 153.859375 149.0625 153.292969 C 149.296875 152.722656 149.585938 152.183594 149.929688 151.671875 C 150.269531 151.160156 150.660156 150.6875 151.09375 150.253906 C 151.53125 149.816406 152.003906 149.429688 152.515625 149.089844 C 153.027344 148.746094 153.566406 148.457031 154.136719 148.222656 C 154.707031 147.988281 155.292969 147.808594 155.894531 147.6875 C 156.5 147.570312 157.109375 147.507812 157.726562 147.507812 C 158.339844 147.507812 158.949219 147.570312 159.554688 147.6875 C 160.160156 147.808594 160.746094 147.988281 161.3125 148.222656 C 161.882812 148.457031 162.421875 148.746094 162.933594 149.089844 C 163.445312 149.429688 163.921875 149.816406 164.355469 150.253906 C 164.789062 150.6875 165.179688 151.160156 165.523438 151.671875 C 165.863281 152.183594 166.152344 152.722656 166.386719 153.292969 C 166.625 153.859375 166.800781 154.445312 166.921875 155.050781 C 167.042969 155.652344 167.101562 156.261719 167.101562 156.878906 Z M 167.101562 156.878906 " fill-opacity="1" fill-rule="nonzero"/><path fill="#524327" d="M 218.007812 148.847656 C 218.007812 149.460938 217.945312 150.070312 217.828125 150.675781 C 217.707031 151.277344 217.527344 151.863281 217.292969 152.433594 C 217.058594 153 216.769531 153.539062 216.425781 154.050781 C 216.085938 154.5625 215.695312 155.039062 215.261719 155.472656 C 214.824219 155.90625 214.351562 156.296875 213.839844 156.636719 C 213.328125 156.980469 212.785156 157.265625 212.21875 157.503906 C 211.648438 157.738281 211.0625 157.917969 210.457031 158.035156 C 209.855469 158.15625 209.246094 158.214844 208.628906 158.214844 C 208.011719 158.214844 207.402344 158.15625 206.800781 158.035156 C 206.195312 157.917969 205.609375 157.738281 205.039062 157.503906 C 204.472656 157.265625 203.929688 156.980469 203.417969 156.636719 C 202.90625 156.296875 202.433594 155.90625 202 155.472656 C 201.5625 155.039062 201.175781 154.5625 200.832031 154.050781 C 200.492188 153.539062 200.203125 153 199.964844 152.433594 C 199.730469 151.863281 199.550781 151.277344 199.433594 150.675781 C 199.3125 150.070312 199.253906 149.460938 199.253906 148.847656 C 199.253906 148.234375 199.3125 147.625 199.433594 147.019531 C 199.550781 146.417969 199.730469 145.832031 199.964844 145.261719 C 200.203125 144.695312 200.492188 144.152344 200.832031 143.644531 C 201.175781 143.132812 201.5625 142.65625 202 142.222656 C 202.433594 141.789062 202.90625 141.398438 203.417969 141.058594 C 203.929688 140.714844 204.472656 140.425781 205.039062 140.191406 C 205.609375 139.957031 206.195312 139.777344 206.800781 139.660156 C 207.402344 139.539062 208.011719 139.480469 208.628906 139.480469 C 209.246094 139.480469 209.855469 139.539062 210.457031 139.660156 C 211.0625 139.777344 211.648438 139.957031 212.21875 140.191406 C 212.785156 140.425781 213.328125 140.714844 213.839844 141.058594 C 214.351562 141.398438 214.824219 141.789062 215.261719 142.222656 C 215.695312 142.65625 216.085938 143.132812 216.425781 143.644531 C 216.769531 144.152344 217.058594 144.695312 217.292969 145.261719 C 217.527344 145.832031 217.707031 146.417969 217.828125 147.019531 C 217.945312 147.625 218.007812 148.234375 218.007812 148.847656 Z M 218.007812 148.847656 " fill-opacity="1" fill-rule="nonzero"/><path fill="#524327" d="M 185.5 167.960938 C 183.015625 167.960938 180.460938 167.121094 178.425781 165.480469 C 174.960938 162.695312 173.121094 157.914062 173.621094 153.003906 C 173.675781 152.503906 174.105469 152.167969 174.605469 152.203125 C 175.085938 152.257812 175.441406 152.683594 175.40625 153.183594 C 174.960938 157.484375 176.550781 161.660156 179.550781 164.085938 C 182.730469 166.65625 187.554688 166.851562 190.519531 164.53125 C 192.359375 163.105469 193.589844 160.695312 193.824219 158.109375 C 194.035156 155.769531 193.5 153.203125 192.25 150.703125 C 192.035156 150.257812 192.214844 149.722656 192.644531 149.507812 C 193.089844 149.292969 193.625 149.472656 193.839844 149.902344 C 195.234375 152.683594 195.839844 155.574219 195.589844 158.25 C 195.304688 161.375 193.859375 164.160156 191.609375 165.925781 C 189.875 167.261719 187.714844 167.941406 185.480469 167.941406 Z M 185.5 167.960938 " fill-opacity="1" fill-rule="nonzero"/><path fill="#fac83e" d="M 239.796875 216.140625 C 238.136719 221.402344 236.4375 226.527344 234.722656 231.539062 C 230.492188 243.90625 226.132812 255.59375 221.972656 267.195312 C 221.738281 267.816406 221.507812 268.441406 221.238281 269.050781 C 217.898438 276.8125 211.738281 283.109375 203.894531 286.429688 C 197.339844 289.214844 191.125 291.125 184.785156 292.390625 C 179.320312 298.726562 174.550781 305.558594 170.476562 312.824219 C 163.996094 315 157.832031 312.929688 154.847656 308.449219 C 156.171875 302.902344 156.886719 297.671875 157.011719 292.570312 C 157.0625 290.535156 157.027344 288.519531 156.902344 286.5 C 153.296875 283.644531 150.1875 280.238281 147.703125 276.507812 C 146.328125 274.421875 145.132812 272.242188 144.027344 269.996094 C 142.347656 266.621094 141.5625 262.855469 141.738281 259.09375 C 142.203125 249.492188 142.792969 240.300781 143.417969 231.238281 C 135.363281 225.8125 130.273438 226.363281 120.984375 229.238281 C 120.859375 229.273438 120.734375 229.328125 120.589844 229.363281 C 120.859375 228.613281 121.109375 227.898438 121.378906 227.222656 C 125.933594 215.121094 130.46875 212.339844 141.257812 203.417969 C 144.152344 201.007812 147.402344 198.9375 151.007812 197.867188 C 153.007812 197.261719 155.136719 196.992188 157.207031 197.136719 C 157.617188 196.332031 158.046875 195.53125 158.476562 194.746094 C 168.011719 198.242188 175.996094 206.234375 179.335938 215.90625 C 179.496094 216.355469 179.640625 216.78125 179.765625 217.226562 C 180.675781 211.054688 184.140625 205.324219 189.105469 201.5625 C 190.320312 200.632812 191.609375 199.828125 192.984375 199.167969 C 197.625 200.0625 202.253906 201.132812 206.824219 202.398438 C 218.363281 205.574219 229.582031 210.035156 239.816406 216.140625 Z M 239.796875 216.140625 " fill-opacity="1" fill-rule="nonzero"/><path fill="#f5b431" d="M 182.875 293.835938 C 174.835938 297.851562 164.90625 296.921875 156.992188 292.570312 C 157.046875 290.535156 157.011719 288.519531 156.886719 286.5 C 153.277344 283.644531 150.167969 280.238281 147.6875 276.507812 C 146.3125 274.421875 145.113281 272.242188 144.007812 269.996094 C 142.328125 266.621094 141.542969 262.855469 141.722656 259.09375 C 142.1875 249.492188 142.773438 240.300781 143.398438 231.238281 C 135.34375 225.8125 130.253906 226.363281 120.964844 229.238281 C 121.074219 228.558594 121.214844 227.882812 121.359375 227.222656 C 125.914062 215.121094 130.449219 212.339844 141.238281 203.417969 C 144.132812 201.007812 147.382812 198.9375 150.992188 197.867188 C 152.992188 197.261719 155.117188 196.992188 157.1875 197.136719 C 157.601562 196.332031 158.027344 195.53125 158.457031 194.746094 C 167.996094 198.242188 175.980469 206.234375 179.320312 215.90625 C 181.125 237.695312 178.355469 259.929688 171.210938 281.328125 C 172.460938 287.179688 177.121094 292.175781 182.875 293.835938 Z M 182.875 293.835938 " fill-opacity="1" fill-rule="nonzero"/><path fill="#524327" d="M 184.765625 292.40625 C 179.300781 298.726562 174.53125 305.558594 170.460938 312.824219 C 163.976562 315 157.8125 312.929688 154.832031 308.449219 C 156.6875 300.6875 157.332031 293.566406 156.886719 286.5 C 160.386719 289.265625 166.886719 291.445312 168.65625 291.996094 C 168.960938 292.085938 169.28125 292.160156 169.601562 292.195312 C 171.621094 292.40625 179.515625 293.140625 184.765625 292.40625 Z M 184.765625 292.40625 " fill-opacity="1" fill-rule="nonzero"/><path fill="#f5b431" d="M 234.722656 231.539062 C 230.492188 243.90625 226.132812 255.59375 221.972656 267.195312 C 221.738281 267.816406 221.507812 268.441406 221.238281 269.050781 C 220.328125 243.460938 208.449219 218.371094 189.089844 201.5625 C 190.304688 200.632812 191.589844 199.828125 192.964844 199.167969 C 197.609375 200.0625 202.234375 201.132812 206.808594 202.398438 C 217.71875 210.375 227.222656 220.296875 234.722656 231.539062 Z M 234.722656 231.539062 " fill-opacity="1" fill-rule="nonzero"/><path fill="#ffe77a" d="M 178.910156 214.800781 C 178.910156 214.800781 178.785156 214.660156 178.710938 214.585938 C 172.710938 207.824219 164.386719 202.828125 155.652344 200.488281 C 154.582031 200.203125 153.421875 200.542969 152.632812 201.328125 C 122.574219 231.09375 104.425781 272.546875 102.980469 314.820312 C 102.710938 314.570312 102.355469 314.429688 101.980469 314.214844 C 101.660156 314.035156 101.300781 313.785156 100.960938 313.394531 C 90.746094 301.367188 87.101562 284.769531 88.296875 269.050781 C 89.476562 253.328125 95.050781 238.265625 101.550781 223.902344 C 112.820312 206.894531 130.253906 194.457031 149.707031 189 C 151.5625 188.460938 153.5625 188.730469 155.277344 189.621094 C 163.601562 193.976562 172.050781 200.847656 176.835938 210.035156 C 177.585938 211.445312 178.230469 212.910156 178.765625 214.445312 C 178.820312 214.550781 178.871094 214.675781 178.910156 214.800781 Z M 178.910156 214.800781 " fill-opacity="1" fill-rule="nonzero"/><path fill="#fff396" d="M 178.765625 214.445312 C 178.765625 214.445312 178.730469 214.535156 178.710938 214.585938 C 172.710938 207.824219 164.386719 202.828125 155.652344 200.488281 C 154.582031 200.203125 153.421875 200.542969 152.632812 201.328125 C 122.574219 231.09375 104.425781 272.546875 102.980469 314.820312 C 102.710938 314.570312 102.355469 314.429688 101.980469 314.214844 C 100.945312 271.101562 119.378906 227.828125 151.277344 198.722656 C 152.277344 197.8125 153.671875 197.421875 154.972656 197.742188 C 163.316406 199.722656 170.816406 203.933594 176.835938 210.035156 C 177.585938 211.445312 178.230469 212.910156 178.765625 214.445312 Z M 178.765625 214.445312 " fill-opacity="1" fill-rule="nonzero"/><g clip-path="url(#fb401e2788)"><path fill="#ffe77a" d="M 280.289062 241.675781 C 279.59375 268.800781 273.25 296.546875 257.910156 318.550781 C 256.640625 320.371094 254.90625 321.816406 252.925781 322.742188 C 252.300781 323.046875 251.640625 323.296875 250.976562 323.492188 C 250.585938 323.601562 250.191406 323.707031 249.800781 323.816406 C 244.957031 301.792969 239.957031 278.292969 230.847656 257.664062 C 221.757812 237.035156 208.183594 215.121094 189.394531 203.058594 C 185.515625 205.933594 182.175781 212.304688 179.800781 216.871094 C 179.960938 214.105469 180.460938 211.269531 181.230469 208.449219 C 182.875 202.363281 185.820312 196.367188 189.605469 191.441406 C 191.714844 188.675781 195 187.054688 198.503906 186.980469 C 209.664062 186.75 220.863281 192.066406 232.257812 192.726562 C 238.207031 193.066406 244.246094 192.101562 250.390625 190.175781 C 254.835938 188.785156 259.675781 189.695312 263.375 192.511719 C 269.304688 197.0625 273.734375 203.667969 276.359375 210.734375 C 280.003906 220.546875 280.554688 231.21875 280.289062 241.675781 Z M 280.289062 241.675781 " fill-opacity="1" fill-rule="nonzero"/></g><g clip-path="url(#b263f143a9)"><path fill="#fff396" d="M 252.925781 322.742188 C 252.300781 323.046875 251.640625 323.296875 250.976562 323.492188 C 250.585938 323.601562 250.191406 323.707031 249.800781 323.816406 C 244.957031 301.792969 239.957031 278.292969 230.847656 257.664062 C 221.757812 237.035156 208.183594 215.121094 189.394531 203.058594 C 185.515625 205.933594 182.175781 212.304688 179.800781 216.871094 C 179.960938 214.105469 180.460938 211.269531 181.230469 208.449219 C 182.800781 205.738281 184.605469 203.203125 186.605469 200.882812 C 187.589844 199.757812 189.230469 199.507812 190.464844 200.347656 C 208.664062 212.929688 222.023438 231.699219 231.332031 251.8125 C 240.992188 272.691406 246.671875 295.136719 252.300781 317.425781 C 252.730469 319.175781 253.175781 320.996094 252.925781 322.742188 Z M 252.925781 322.742188 " fill-opacity="1" fill-rule="nonzero"/></g></svg>