<svg xmlns="http://www.w3.org/2000/svg" xmlns:xlink="http://www.w3.org/1999/xlink" width="480" zoomAndPan="magnify" viewBox="0 0 360 367.91998" height="480" preserveAspectRatio="xMidYMid meet" version="1.0"><defs><clipPath id="66500c96d0"><path d="M 100 39.792969 L 200 39.792969 L 200 108 L 100 108 Z M 100 39.792969 " clip-rule="nonzero"/></clipPath></defs><g clip-path="url(#66500c96d0)"><path fill="#abd451" d="M 163.6875 50.980469 C 181.835938 61.601562 194.21875 77.859375 199.425781 95.285156 C 200.847656 100.039062 197.976562 104.933594 193.132812 106.015625 C 175.367188 109.996094 155.113281 107.152344 136.964844 96.53125 C 118.820312 85.910156 106.4375 69.652344 101.226562 52.226562 C 99.808594 47.472656 102.679688 42.578125 107.523438 41.492188 C 125.289062 37.515625 145.542969 40.359375 163.6875 50.980469 Z M 163.6875 50.980469 " fill-opacity="1" fill-rule="nonzero"/></g><path fill="#fec933" d="M 299.183594 186.328125 C 299.703125 187.542969 300.203125 188.765625 300.679688 190 C 301.15625 191.230469 301.609375 192.472656 302.042969 193.71875 C 302.472656 194.964844 302.882812 196.214844 303.269531 197.472656 C 303.65625 198.730469 304.019531 199.992188 304.359375 201.253906 C 304.699219 202.519531 305.019531 203.785156 305.3125 205.054688 C 305.605469 206.324219 305.875 207.597656 306.117188 208.867188 C 306.363281 210.136719 306.585938 211.410156 306.78125 212.679688 C 306.976562 213.949219 307.148438 215.214844 307.296875 216.480469 C 307.445312 217.746094 307.570312 219.007812 307.667969 220.265625 C 307.765625 221.523438 307.839844 222.773438 307.886719 224.023438 C 307.9375 225.269531 307.960938 226.507812 307.960938 227.742188 C 307.957031 228.976562 307.933594 230.203125 307.882812 231.417969 C 307.832031 232.636719 307.753906 233.84375 307.65625 235.039062 C 307.554688 236.238281 307.429688 237.421875 307.28125 238.597656 C 307.132812 239.773438 306.957031 240.9375 306.757812 242.085938 C 306.558594 243.238281 306.335938 244.371094 306.089844 245.496094 C 305.84375 246.617188 305.570312 247.722656 305.277344 248.8125 C 304.980469 249.90625 304.664062 250.980469 304.320312 252.039062 C 303.980469 253.097656 303.613281 254.136719 303.226562 255.160156 C 302.835938 256.179688 302.425781 257.183594 301.992188 258.167969 C 301.558594 259.152344 301.101562 260.113281 300.621094 261.058594 C 300.144531 262 299.644531 262.921875 299.121094 263.824219 C 298.601562 264.722656 298.058594 265.601562 297.496094 266.457031 C 296.929688 267.3125 296.347656 268.144531 295.742188 268.953125 C 295.140625 269.757812 294.515625 270.542969 293.871094 271.300781 C 293.226562 272.058594 292.566406 272.792969 291.886719 273.5 C 291.203125 274.210938 290.503906 274.890625 289.789062 275.546875 C 289.070312 276.203125 288.335938 276.828125 287.585938 277.429688 C 286.835938 278.03125 286.066406 278.605469 285.285156 279.148438 C 284.5 279.695312 283.699219 280.210938 282.886719 280.699219 C 282.074219 281.1875 281.246094 281.648438 280.402344 282.078125 C 279.558594 282.507812 278.703125 282.910156 277.832031 283.28125 C 276.964844 283.652344 276.082031 283.992188 275.1875 284.304688 C 274.292969 284.613281 273.390625 284.894531 272.472656 285.144531 C 271.558594 285.394531 270.632812 285.613281 269.695312 285.800781 C 268.757812 285.992188 267.8125 286.148438 266.859375 286.273438 C 265.90625 286.402344 264.941406 286.496094 263.972656 286.5625 C 263.003906 286.625 262.027344 286.660156 261.046875 286.660156 C 260.0625 286.664062 259.074219 286.632812 258.082031 286.574219 C 257.085938 286.515625 256.089844 286.421875 255.085938 286.300781 C 254.085938 286.175781 253.078125 286.023438 252.070312 285.839844 C 251.0625 285.65625 250.050781 285.441406 249.039062 285.195312 C 248.027344 284.949219 247.015625 284.671875 246.003906 284.363281 C 244.992188 284.058594 243.976562 283.722656 242.964844 283.355469 C 241.953125 282.988281 240.945312 282.589844 239.9375 282.164062 C 238.929688 281.738281 237.925781 281.28125 236.921875 280.796875 C 235.921875 280.3125 234.921875 279.800781 233.929688 279.257812 C 232.9375 278.71875 231.949219 278.148438 230.964844 277.550781 C 229.984375 276.953125 229.007812 276.328125 228.039062 275.675781 C 227.070312 275.027344 226.109375 274.347656 225.15625 273.644531 C 224.199219 272.9375 223.257812 272.207031 222.320312 271.453125 C 221.386719 270.699219 220.460938 269.917969 219.546875 269.113281 C 218.628906 268.308594 217.726562 267.480469 216.832031 266.628906 C 215.941406 265.773438 215.058594 264.902344 214.191406 264.003906 C 213.324219 263.105469 212.46875 262.1875 211.625 261.246094 C 210.785156 260.304688 209.957031 259.34375 209.144531 258.363281 C 208.332031 257.382812 207.53125 256.382812 206.75 255.363281 C 205.96875 254.34375 205.203125 253.304688 204.453125 252.25 C 203.703125 251.195312 202.96875 250.121094 202.253906 249.03125 C 201.539062 247.941406 200.839844 246.839844 200.160156 245.71875 C 199.480469 244.597656 198.820312 243.464844 198.179688 242.316406 C 197.535156 241.167969 196.914062 240.007812 196.3125 238.832031 C 195.707031 237.660156 195.125 236.476562 194.566406 235.28125 C 194.003906 234.082031 193.460938 232.878906 192.941406 231.660156 C 192.421875 230.445312 191.921875 229.222656 191.445312 227.988281 C 190.96875 226.757812 190.515625 225.515625 190.082031 224.269531 C 189.652344 223.023438 189.242188 221.773438 188.855469 220.515625 C 188.46875 219.257812 188.105469 218 187.765625 216.734375 C 187.421875 215.46875 187.105469 214.203125 186.8125 212.933594 C 186.519531 211.664062 186.25 210.394531 186.007812 209.121094 C 185.761719 207.851562 185.539062 206.582031 185.34375 205.308594 C 185.148438 204.039062 184.976562 202.773438 184.828125 201.507812 C 184.679688 200.242188 184.554688 198.980469 184.457031 197.722656 C 184.359375 196.464844 184.285156 195.214844 184.238281 193.96875 C 184.1875 192.71875 184.164062 191.480469 184.164062 190.246094 C 184.167969 189.011719 184.191406 187.789062 184.242188 186.570312 C 184.292969 185.355469 184.371094 184.144531 184.46875 182.949219 C 184.570312 181.75 184.695312 180.566406 184.84375 179.390625 C 184.992188 178.214844 185.167969 177.050781 185.367188 175.902344 C 185.566406 174.753906 185.789062 173.617188 186.035156 172.496094 C 186.28125 171.371094 186.554688 170.265625 186.847656 169.175781 C 187.144531 168.082031 187.460938 167.007812 187.804688 165.949219 C 188.144531 164.894531 188.511719 163.851562 188.898438 162.832031 C 189.289062 161.808594 189.699219 160.804688 190.132812 159.820312 C 190.566406 158.835938 191.023438 157.875 191.503906 156.929688 C 191.980469 155.988281 192.480469 155.066406 193.003906 154.164062 C 193.523438 153.265625 194.066406 152.386719 194.628906 151.53125 C 195.195312 150.675781 195.777344 149.84375 196.382812 149.039062 C 196.984375 148.230469 197.609375 147.445312 198.253906 146.6875 C 198.894531 145.929688 199.558594 145.195312 200.238281 144.488281 C 200.921875 143.78125 201.621094 143.097656 202.335938 142.441406 C 203.054688 141.789062 203.789062 141.160156 204.539062 140.558594 C 205.289062 139.957031 206.058594 139.382812 206.839844 138.839844 C 207.625 138.292969 208.421875 137.777344 209.238281 137.289062 C 210.050781 136.800781 210.878906 136.339844 211.722656 135.910156 C 212.566406 135.480469 213.421875 135.078125 214.292969 134.707031 C 215.160156 134.335938 216.042969 133.996094 216.9375 133.6875 C 217.832031 133.375 218.734375 133.09375 219.652344 132.84375 C 220.566406 132.59375 221.492188 132.375 222.429688 132.1875 C 223.367188 131.996094 224.3125 131.839844 225.265625 131.714844 C 226.21875 131.585938 227.179688 131.492188 228.152344 131.425781 C 229.121094 131.363281 230.097656 131.328125 231.078125 131.328125 C 232.0625 131.324219 233.050781 131.355469 234.042969 131.414062 C 235.039062 131.476562 236.035156 131.566406 237.039062 131.6875 C 238.039062 131.8125 239.046875 131.964844 240.054688 132.148438 C 241.0625 132.332031 242.074219 132.550781 243.085938 132.792969 C 244.097656 133.039062 245.109375 133.316406 246.121094 133.625 C 247.132812 133.929688 248.148438 134.269531 249.160156 134.632812 C 250.171875 135 251.179688 135.398438 252.1875 135.824219 C 253.195312 136.25 254.199219 136.707031 255.203125 137.191406 C 256.203125 137.675781 257.203125 138.1875 258.195312 138.730469 C 259.1875 139.269531 260.175781 139.839844 261.160156 140.4375 C 262.140625 141.035156 263.117188 141.660156 264.085938 142.3125 C 265.054688 142.964844 266.015625 143.640625 266.96875 144.347656 C 267.921875 145.050781 268.867188 145.78125 269.804688 146.535156 C 270.738281 147.292969 271.664062 148.070312 272.578125 148.875 C 273.496094 149.679688 274.398438 150.507812 275.292969 151.363281 C 276.183594 152.214844 277.066406 153.089844 277.933594 153.984375 C 278.800781 154.882812 279.65625 155.800781 280.5 156.742188 C 281.339844 157.683594 282.167969 158.644531 282.980469 159.625 C 283.792969 160.605469 284.59375 161.605469 285.375 162.625 C 286.15625 163.644531 286.921875 164.683594 287.671875 165.738281 C 288.421875 166.792969 289.15625 167.867188 289.871094 168.957031 C 290.585938 170.046875 291.285156 171.148438 291.964844 172.269531 C 292.644531 173.390625 293.304688 174.523438 293.945312 175.671875 C 294.589844 176.820312 295.210938 177.980469 295.8125 179.15625 C 296.414062 180.328125 297 181.511719 297.558594 182.710938 C 298.121094 183.90625 298.664062 185.113281 299.183594 186.328125 Z M 299.183594 186.328125 " fill-opacity="1" fill-rule="nonzero"/><path fill="#b55e67" d="M 264.8125 70.582031 C 256.847656 71.238281 248.949219 72.433594 241.300781 74.480469 C 188.996094 89.113281 150.246094 131.867188 124.109375 177.550781 C 121.007812 183.453125 129.6875 188.140625 132.984375 182.460938 C 152.191406 153.023438 178.230469 123.742188 209.769531 106.386719 C 205.90625 120.574219 207.058594 135.707031 212.207031 149.523438 C 215.234375 157.21875 226.910156 153.582031 224.984375 145.503906 C 221.792969 132.996094 222.488281 118.410156 228.796875 107.003906 C 230.855469 102.765625 234.148438 99.402344 237.136719 95.863281 C 237.378906 95.535156 237.554688 95.175781 237.75 94.824219 C 246.703125 92.316406 255.992188 90.8125 265.613281 90.558594 C 271.441406 90.582031 276.125 85.539062 275.617188 79.726562 C 275.164062 74.222656 270.324219 70.128906 264.8125 70.582031 Z M 264.8125 70.582031 " fill-opacity="1" fill-rule="nonzero"/><path fill="#4a254b" d="M 205.175781 155.53125 C 204.53125 155.53125 203.914062 155.148438 203.644531 154.515625 C 203.28125 153.671875 203.671875 152.695312 204.519531 152.332031 C 204.976562 152.136719 214.78125 148.027344 223.273438 151.117188 C 223.410156 148.878906 224.269531 145.765625 227.34375 142.695312 C 227.996094 142.042969 229.050781 142.042969 229.703125 142.695312 C 230.351562 143.34375 230.351562 144.398438 229.703125 145.050781 C 225.546875 149.199219 226.722656 153.183594 226.777344 153.355469 C 226.980469 154.015625 226.761719 154.742188 226.214844 155.167969 C 225.667969 155.589844 224.921875 155.648438 224.332031 155.292969 C 216.835938 150.800781 205.941406 155.351562 205.835938 155.398438 C 205.617188 155.488281 205.398438 155.53125 205.175781 155.53125 Z M 205.175781 155.53125 " fill-opacity="1" fill-rule="nonzero"/><path fill="#ffffff" d="M 232.417969 203.339844 C 232.417969 204.15625 232.335938 204.960938 232.179688 205.757812 C 232.019531 206.558594 231.785156 207.332031 231.472656 208.085938 C 231.160156 208.835938 230.777344 209.550781 230.324219 210.226562 C 229.875 210.902344 229.359375 211.53125 228.78125 212.105469 C 228.207031 212.679688 227.582031 213.195312 226.902344 213.644531 C 226.226562 214.097656 225.511719 214.480469 224.757812 214.792969 C 224.003906 215.101562 223.230469 215.335938 222.429688 215.496094 C 221.632812 215.65625 220.824219 215.734375 220.007812 215.734375 C 219.195312 215.734375 218.386719 215.65625 217.589844 215.496094 C 216.789062 215.335938 216.015625 215.101562 215.261719 214.792969 C 214.507812 214.480469 213.792969 214.097656 213.117188 213.644531 C 212.4375 213.195312 211.8125 212.679688 211.234375 212.105469 C 210.660156 211.53125 210.144531 210.902344 209.691406 210.226562 C 209.242188 209.550781 208.859375 208.835938 208.546875 208.085938 C 208.234375 207.332031 208 206.558594 207.839844 205.757812 C 207.679688 204.960938 207.601562 204.15625 207.601562 203.339844 C 207.601562 202.527344 207.679688 201.722656 207.839844 200.921875 C 208 200.125 208.234375 199.351562 208.546875 198.597656 C 208.859375 197.847656 209.242188 197.132812 209.691406 196.457031 C 210.144531 195.78125 210.660156 195.152344 211.234375 194.578125 C 211.8125 194.003906 212.4375 193.488281 213.117188 193.035156 C 213.792969 192.585938 214.507812 192.203125 215.261719 191.890625 C 216.015625 191.578125 216.789062 191.34375 217.589844 191.1875 C 218.386719 191.027344 219.195312 190.949219 220.007812 190.949219 C 220.824219 190.949219 221.632812 191.027344 222.429688 191.1875 C 223.230469 191.34375 224.003906 191.578125 224.757812 191.890625 C 225.511719 192.203125 226.226562 192.585938 226.902344 193.035156 C 227.582031 193.488281 228.207031 194.003906 228.78125 194.578125 C 229.359375 195.152344 229.875 195.78125 230.324219 196.457031 C 230.777344 197.132812 231.160156 197.847656 231.472656 198.597656 C 231.785156 199.351562 232.019531 200.125 232.179688 200.921875 C 232.335938 201.722656 232.417969 202.527344 232.417969 203.339844 Z M 232.417969 203.339844 " fill-opacity="1" fill-rule="nonzero"/><path fill="#4a254b" d="M 218.980469 203.339844 C 218.980469 203.710938 218.941406 204.078125 218.871094 204.441406 C 218.796875 204.804688 218.691406 205.15625 218.550781 205.496094 C 218.40625 205.839844 218.234375 206.164062 218.027344 206.472656 C 217.824219 206.777344 217.589844 207.0625 217.328125 207.324219 C 217.066406 207.585938 216.78125 207.820312 216.472656 208.027344 C 216.164062 208.230469 215.839844 208.40625 215.496094 208.546875 C 215.15625 208.6875 214.800781 208.792969 214.4375 208.867188 C 214.074219 208.9375 213.710938 208.976562 213.339844 208.976562 C 212.96875 208.976562 212.601562 208.9375 212.238281 208.867188 C 211.875 208.792969 211.523438 208.6875 211.179688 208.546875 C 210.839844 208.40625 210.511719 208.230469 210.207031 208.027344 C 209.898438 207.820312 209.613281 207.585938 209.351562 207.324219 C 209.089844 207.0625 208.855469 206.777344 208.648438 206.472656 C 208.445312 206.164062 208.269531 205.839844 208.128906 205.496094 C 207.988281 205.15625 207.878906 204.804688 207.808594 204.441406 C 207.734375 204.078125 207.699219 203.710938 207.699219 203.339844 C 207.699219 202.972656 207.734375 202.605469 207.808594 202.242188 C 207.878906 201.878906 207.988281 201.527344 208.128906 201.183594 C 208.269531 200.84375 208.445312 200.519531 208.648438 200.210938 C 208.855469 199.902344 209.089844 199.621094 209.351562 199.359375 C 209.613281 199.097656 209.898438 198.863281 210.207031 198.65625 C 210.511719 198.453125 210.839844 198.277344 211.179688 198.136719 C 211.523438 197.996094 211.875 197.886719 212.238281 197.816406 C 212.601562 197.742188 212.96875 197.707031 213.339844 197.707031 C 213.710938 197.707031 214.074219 197.742188 214.4375 197.816406 C 214.800781 197.886719 215.15625 197.996094 215.496094 198.136719 C 215.839844 198.277344 216.164062 198.453125 216.472656 198.65625 C 216.78125 198.863281 217.066406 199.097656 217.328125 199.359375 C 217.589844 199.621094 217.824219 199.902344 218.027344 200.210938 C 218.234375 200.519531 218.40625 200.84375 218.550781 201.183594 C 218.691406 201.527344 218.796875 201.878906 218.871094 202.242188 C 218.941406 202.605469 218.980469 202.972656 218.980469 203.339844 Z M 218.980469 203.339844 " fill-opacity="1" fill-rule="nonzero"/><path fill="#4a254b" d="M 234.1875 220.496094 C 233.226562 220.496094 232.511719 221.363281 232.65625 222.316406 C 233.574219 228.203125 238.667969 232.714844 244.824219 232.714844 C 250.980469 232.714844 256.070312 228.203125 256.992188 222.316406 C 257.136719 221.363281 256.417969 220.496094 255.457031 220.496094 Z M 234.1875 220.496094 " fill-opacity="1" fill-rule="nonzero"/><path fill="#ffffff" d="M 282.042969 203.339844 C 282.042969 204.15625 281.964844 204.960938 281.804688 205.757812 C 281.648438 206.558594 281.410156 207.332031 281.097656 208.085938 C 280.789062 208.835938 280.40625 209.550781 279.953125 210.226562 C 279.5 210.902344 278.984375 211.53125 278.410156 212.105469 C 277.832031 212.679688 277.207031 213.195312 276.53125 213.644531 C 275.851562 214.097656 275.136719 214.480469 274.382812 214.792969 C 273.632812 215.101562 272.855469 215.335938 272.058594 215.496094 C 271.257812 215.65625 270.449219 215.734375 269.636719 215.734375 C 268.820312 215.734375 268.015625 215.65625 267.214844 215.496094 C 266.417969 215.335938 265.640625 215.101562 264.886719 214.792969 C 264.136719 214.480469 263.421875 214.097656 262.742188 213.644531 C 262.066406 213.195312 261.4375 212.679688 260.863281 212.105469 C 260.285156 211.53125 259.773438 210.902344 259.320312 210.226562 C 258.867188 209.550781 258.484375 208.835938 258.171875 208.085938 C 257.863281 207.332031 257.625 206.558594 257.46875 205.757812 C 257.308594 204.960938 257.230469 204.15625 257.230469 203.339844 C 257.230469 202.527344 257.308594 201.722656 257.46875 200.921875 C 257.625 200.125 257.863281 199.351562 258.171875 198.597656 C 258.484375 197.847656 258.867188 197.132812 259.320312 196.457031 C 259.773438 195.78125 260.285156 195.152344 260.863281 194.578125 C 261.4375 194.003906 262.066406 193.488281 262.742188 193.035156 C 263.421875 192.585938 264.136719 192.203125 264.886719 191.890625 C 265.640625 191.578125 266.417969 191.34375 267.214844 191.1875 C 268.015625 191.027344 268.820312 190.949219 269.636719 190.949219 C 270.449219 190.949219 271.257812 191.027344 272.058594 191.1875 C 272.855469 191.34375 273.632812 191.578125 274.382812 191.890625 C 275.136719 192.203125 275.851562 192.585938 276.53125 193.035156 C 277.207031 193.488281 277.832031 194.003906 278.410156 194.578125 C 278.984375 195.152344 279.5 195.78125 279.953125 196.457031 C 280.40625 197.132812 280.789062 197.847656 281.097656 198.597656 C 281.410156 199.351562 281.648438 200.125 281.804688 200.921875 C 281.964844 201.722656 282.042969 202.527344 282.042969 203.339844 Z M 282.042969 203.339844 " fill-opacity="1" fill-rule="nonzero"/><path fill="#4a254b" d="M 268.605469 203.339844 C 268.605469 203.710938 268.570312 204.078125 268.496094 204.441406 C 268.425781 204.804688 268.316406 205.15625 268.175781 205.496094 C 268.035156 205.839844 267.859375 206.164062 267.65625 206.472656 C 267.449219 206.777344 267.214844 207.0625 266.953125 207.324219 C 266.691406 207.585938 266.40625 207.820312 266.097656 208.027344 C 265.792969 208.230469 265.464844 208.40625 265.125 208.546875 C 264.78125 208.6875 264.429688 208.792969 264.066406 208.867188 C 263.703125 208.9375 263.335938 208.976562 262.964844 208.976562 C 262.59375 208.976562 262.230469 208.9375 261.867188 208.867188 C 261.503906 208.792969 261.148438 208.6875 260.808594 208.546875 C 260.464844 208.40625 260.140625 208.230469 259.832031 208.027344 C 259.523438 207.820312 259.238281 207.585938 258.976562 207.324219 C 258.714844 207.0625 258.480469 206.777344 258.277344 206.472656 C 258.070312 206.164062 257.898438 205.839844 257.753906 205.496094 C 257.613281 205.15625 257.507812 204.804688 257.433594 204.441406 C 257.363281 204.078125 257.324219 203.710938 257.324219 203.339844 C 257.324219 202.972656 257.363281 202.605469 257.433594 202.242188 C 257.507812 201.878906 257.613281 201.527344 257.753906 201.183594 C 257.898438 200.84375 258.070312 200.519531 258.277344 200.210938 C 258.480469 199.902344 258.714844 199.621094 258.976562 199.359375 C 259.238281 199.097656 259.523438 198.863281 259.832031 198.65625 C 260.140625 198.453125 260.464844 198.277344 260.808594 198.136719 C 261.148438 197.996094 261.503906 197.886719 261.867188 197.816406 C 262.230469 197.742188 262.59375 197.707031 262.964844 197.707031 C 263.335938 197.707031 263.703125 197.742188 264.066406 197.816406 C 264.429688 197.886719 264.78125 197.996094 265.125 198.136719 C 265.464844 198.277344 265.792969 198.453125 266.097656 198.65625 C 266.40625 198.863281 266.691406 199.097656 266.953125 199.359375 C 267.214844 199.621094 267.449219 199.902344 267.65625 200.210938 C 267.859375 200.519531 268.035156 200.84375 268.175781 201.183594 C 268.316406 201.527344 268.425781 201.878906 268.496094 202.242188 C 268.570312 202.605469 268.605469 202.972656 268.605469 203.339844 Z M 268.605469 203.339844 " fill-opacity="1" fill-rule="nonzero"/><path fill="#fec933" d="M 163 141.921875 C 163.707031 142.550781 164.390625 143.199219 165.054688 143.875 C 165.71875 144.550781 166.359375 145.246094 166.976562 145.96875 C 167.59375 146.6875 168.1875 147.429688 168.757812 148.195312 C 169.328125 148.960938 169.875 149.75 170.398438 150.554688 C 170.917969 151.363281 171.417969 152.191406 171.886719 153.039062 C 172.359375 153.886719 172.808594 154.753906 173.230469 155.640625 C 173.652344 156.53125 174.046875 157.433594 174.417969 158.359375 C 174.785156 159.28125 175.128906 160.222656 175.445312 161.179688 C 175.761719 162.136719 176.054688 163.109375 176.316406 164.097656 C 176.582031 165.089844 176.816406 166.09375 177.027344 167.113281 C 177.234375 168.128906 177.417969 169.164062 177.574219 170.207031 C 177.726562 171.253906 177.855469 172.3125 177.957031 173.382812 C 178.054688 174.453125 178.128906 175.535156 178.171875 176.628906 C 178.214844 177.71875 178.234375 178.824219 178.222656 179.933594 C 178.210938 181.046875 178.171875 182.167969 178.105469 183.292969 C 178.039062 184.421875 177.945312 185.558594 177.824219 186.703125 C 177.703125 187.84375 177.554688 188.992188 177.378906 190.144531 C 177.203125 191.296875 177 192.457031 176.769531 193.617188 C 176.539062 194.78125 176.28125 195.945312 175.996094 197.113281 C 175.710938 198.28125 175.402344 199.449219 175.0625 200.621094 C 174.726562 201.789062 174.363281 202.960938 173.972656 204.128906 C 173.582031 205.300781 173.167969 206.46875 172.726562 207.636719 C 172.285156 208.804688 171.816406 209.96875 171.324219 211.132812 C 170.832031 212.292969 170.316406 213.449219 169.773438 214.605469 C 169.234375 215.757812 168.667969 216.90625 168.078125 218.046875 C 167.492188 219.191406 166.878906 220.324219 166.242188 221.453125 C 165.609375 222.582031 164.949219 223.699219 164.269531 224.8125 C 163.589844 225.925781 162.886719 227.027344 162.164062 228.117188 C 161.441406 229.210938 160.695312 230.289062 159.929688 231.359375 C 159.164062 232.429688 158.378906 233.488281 157.574219 234.535156 C 156.769531 235.578125 155.945312 236.613281 155.101562 237.628906 C 154.257812 238.648438 153.398438 239.652344 152.519531 240.640625 C 151.640625 241.628906 150.746094 242.601562 149.835938 243.558594 C 148.921875 244.515625 147.996094 245.457031 147.050781 246.378906 C 146.105469 247.300781 145.148438 248.203125 144.175781 249.089844 C 143.203125 249.976562 142.21875 250.84375 141.21875 251.691406 C 140.21875 252.539062 139.207031 253.367188 138.183594 254.171875 C 137.15625 254.980469 136.121094 255.765625 135.078125 256.527344 C 134.03125 257.292969 132.976562 258.035156 131.910156 258.753906 C 130.84375 259.476562 129.769531 260.171875 128.6875 260.84375 C 127.605469 261.519531 126.515625 262.167969 125.421875 262.792969 C 124.324219 263.421875 123.222656 264.023438 122.113281 264.597656 C 121.003906 265.175781 119.890625 265.726562 118.777344 266.25 C 117.660156 266.777344 116.539062 267.277344 115.414062 267.75 C 114.292969 268.226562 113.167969 268.671875 112.039062 269.09375 C 110.914062 269.515625 109.785156 269.90625 108.65625 270.273438 C 107.53125 270.640625 106.402344 270.980469 105.277344 271.292969 C 104.152344 271.605469 103.027344 271.886719 101.90625 272.144531 C 100.785156 272.398438 99.667969 272.628906 98.554688 272.828125 C 97.441406 273.027344 96.332031 273.199219 95.226562 273.339844 C 94.125 273.484375 93.027344 273.597656 91.933594 273.683594 C 90.84375 273.769531 89.761719 273.824219 88.683594 273.851562 C 87.609375 273.882812 86.542969 273.878906 85.484375 273.851562 C 84.425781 273.820312 83.375 273.765625 82.339844 273.675781 C 81.300781 273.589844 80.273438 273.476562 79.261719 273.332031 C 78.246094 273.1875 77.242188 273.015625 76.253906 272.816406 C 75.265625 272.613281 74.289062 272.386719 73.328125 272.128906 C 72.367188 271.871094 71.417969 271.585938 70.488281 271.273438 C 69.554688 270.960938 68.640625 270.621094 67.742188 270.253906 C 66.839844 269.882812 65.960938 269.488281 65.09375 269.066406 C 64.230469 268.644531 63.382812 268.199219 62.554688 267.722656 C 61.726562 267.246094 60.917969 266.746094 60.128906 266.21875 C 59.339844 265.691406 58.570312 265.140625 57.820312 264.5625 C 57.070312 263.984375 56.339844 263.382812 55.632812 262.757812 C 54.925781 262.128906 54.242188 261.480469 53.578125 260.804688 C 52.917969 260.128906 52.277344 259.433594 51.660156 258.710938 C 51.039062 257.992188 50.445312 257.246094 49.875 256.484375 C 49.304688 255.71875 48.757812 254.929688 48.238281 254.125 C 47.714844 253.316406 47.21875 252.488281 46.746094 251.640625 C 46.273438 250.792969 45.828125 249.921875 45.40625 249.035156 C 44.984375 248.148438 44.585938 247.246094 44.21875 246.320312 C 43.847656 245.398438 43.503906 244.457031 43.1875 243.5 C 42.871094 242.542969 42.582031 241.570312 42.316406 240.582031 C 42.054688 239.589844 41.816406 238.585938 41.609375 237.566406 C 41.398438 236.550781 41.214844 235.515625 41.0625 234.46875 C 40.90625 233.425781 40.777344 232.367188 40.679688 231.296875 C 40.578125 230.226562 40.507812 229.144531 40.460938 228.050781 C 40.417969 226.957031 40.402344 225.855469 40.410156 224.746094 C 40.421875 223.632812 40.460938 222.511719 40.527344 221.382812 C 40.59375 220.257812 40.6875 219.121094 40.808594 217.976562 C 40.929688 216.835938 41.078125 215.6875 41.253906 214.535156 C 41.429688 213.378906 41.632812 212.222656 41.863281 211.0625 C 42.09375 209.898438 42.351562 208.734375 42.636719 207.566406 C 42.921875 206.398438 43.234375 205.230469 43.570312 204.058594 C 43.90625 202.890625 44.273438 201.71875 44.664062 200.546875 C 45.050781 199.378906 45.46875 198.210938 45.910156 197.042969 C 46.351562 195.875 46.816406 194.710938 47.308594 193.546875 C 47.800781 192.386719 48.316406 191.226562 48.859375 190.074219 C 49.398438 188.921875 49.964844 187.773438 50.554688 186.632812 C 51.144531 185.488281 51.753906 184.355469 52.390625 183.226562 C 53.027344 182.097656 53.683594 180.976562 54.363281 179.867188 C 55.046875 178.753906 55.746094 177.652344 56.472656 176.5625 C 57.195312 175.46875 57.9375 174.390625 58.703125 173.320312 C 59.46875 172.25 60.253906 171.191406 61.058594 170.144531 C 61.863281 169.101562 62.6875 168.066406 63.53125 167.050781 C 64.375 166.03125 65.234375 165.027344 66.113281 164.039062 C 66.992188 163.050781 67.886719 162.078125 68.800781 161.121094 C 69.710938 160.164062 70.640625 159.222656 71.582031 158.300781 C 72.527344 157.378906 73.484375 156.476562 74.457031 155.589844 C 75.429688 154.703125 76.417969 153.835938 77.417969 152.988281 C 78.417969 152.140625 79.429688 151.3125 80.453125 150.507812 C 81.476562 149.699219 82.511719 148.914062 83.558594 148.148438 C 84.601562 147.386719 85.660156 146.644531 86.722656 145.925781 C 87.789062 145.203125 88.863281 144.507812 89.945312 143.835938 C 91.027344 143.160156 92.117188 142.511719 93.214844 141.886719 C 94.3125 141.257812 95.414062 140.65625 96.519531 140.082031 C 97.628906 139.503906 98.742188 138.953125 99.859375 138.429688 C 100.976562 137.902344 102.097656 137.402344 103.21875 136.929688 C 104.34375 136.453125 105.46875 136.007812 106.59375 135.585938 C 107.722656 135.164062 108.847656 134.773438 109.976562 134.40625 C 111.105469 134.039062 112.230469 133.699219 113.355469 133.386719 C 114.484375 133.074219 115.605469 132.792969 116.726562 132.535156 C 117.847656 132.28125 118.964844 132.050781 120.078125 131.851562 C 121.195312 131.652344 122.300781 131.480469 123.40625 131.339844 C 124.511719 131.195312 125.609375 131.082031 126.699219 130.996094 C 127.789062 130.910156 128.875 130.855469 129.949219 130.828125 C 131.027344 130.796875 132.09375 130.796875 133.152344 130.828125 C 134.210938 130.855469 135.257812 130.914062 136.296875 131.003906 C 137.332031 131.089844 138.359375 131.203125 139.375 131.347656 C 140.390625 131.492188 141.390625 131.664062 142.378906 131.863281 C 143.371094 132.066406 144.34375 132.292969 145.308594 132.550781 C 146.269531 132.808594 147.214844 133.09375 148.148438 133.40625 C 149.078125 133.71875 149.996094 134.058594 150.894531 134.425781 C 151.792969 134.796875 152.675781 135.191406 153.539062 135.613281 C 154.40625 136.035156 155.25 136.480469 156.078125 136.957031 C 156.90625 137.433594 157.71875 137.933594 158.507812 138.460938 C 159.296875 138.988281 160.066406 139.539062 160.816406 140.117188 C 161.566406 140.695312 162.292969 141.296875 163 141.921875 Z M 163 141.921875 " fill-opacity="1" fill-rule="nonzero"/><path fill="#4a254b" d="M 143.851562 210.496094 C 142.007812 210.496094 140.515625 209.003906 140.515625 207.164062 C 140.515625 203.488281 137.882812 200.503906 134.648438 200.503906 C 131.414062 200.503906 128.78125 203.488281 128.78125 207.164062 C 128.78125 209.003906 127.285156 210.496094 125.445312 210.496094 C 123.605469 210.496094 122.109375 209.003906 122.109375 207.164062 C 122.109375 199.816406 127.734375 193.839844 134.648438 193.839844 C 141.5625 193.839844 147.1875 199.816406 147.1875 207.164062 C 147.1875 209.003906 145.691406 210.496094 143.851562 210.496094 Z M 143.851562 210.496094 " fill-opacity="1" fill-rule="nonzero"/><path fill="#4a254b" d="M 96.363281 210.496094 C 94.523438 210.496094 93.03125 209.003906 93.03125 207.164062 C 93.03125 203.488281 90.398438 200.503906 87.164062 200.503906 C 83.925781 200.503906 81.296875 203.488281 81.296875 207.164062 C 81.296875 209.003906 79.800781 210.496094 77.960938 210.496094 C 76.121094 210.496094 74.625 209.003906 74.625 207.164062 C 74.625 199.816406 80.25 193.839844 87.164062 193.839844 C 94.078125 193.839844 99.699219 199.816406 99.699219 207.164062 C 99.699219 209.003906 98.210938 210.496094 96.363281 210.496094 Z M 96.363281 210.496094 " fill-opacity="1" fill-rule="nonzero"/><path fill="#4a254b" d="M 100.773438 220.496094 C 99.8125 220.496094 99.097656 221.363281 99.242188 222.316406 C 100.160156 228.203125 105.253906 232.714844 111.410156 232.714844 C 117.566406 232.714844 122.65625 228.203125 123.578125 222.316406 C 123.722656 221.367188 123.003906 220.496094 122.042969 220.496094 Z M 100.773438 220.496094 " fill-opacity="1" fill-rule="nonzero"/></svg>