<svg xmlns="http://www.w3.org/2000/svg" xmlns:xlink="http://www.w3.org/1999/xlink" width="480" zoomAndPan="magnify" viewBox="0 0 360 367.91998" height="480" preserveAspectRatio="xMidYMid meet" version="1.0"><path fill="#428535" d="M 91.773438 145.730469 C 80.539062 163.9375 63.710938 178.625 44.136719 187.265625 C 43.792969 187.4375 43.472656 187.589844 43.105469 187.738281 C 37.425781 167.410156 36.03125 145.859375 39.203125 124.996094 C 40.75 114.726562 43.535156 104.328125 49.925781 96.15625 C 56.398438 87.878906 66.21875 82.539062 76.53125 80.4375 C 86.542969 78.421875 97.007812 79.367188 106.867188 82.089844 C 107.148438 82.15625 107.425781 82.21875 107.683594 82.304688 C 108.796875 105.140625 103.203125 127.226562 91.773438 145.730469 Z M 91.773438 145.730469 " fill-opacity="1" fill-rule="nonzero"/><path fill="#60943b" d="M 106.867188 82.089844 C 87.359375 89.464844 72.09375 106.277344 62.59375 125.019531 C 52.777344 144.382812 48.253906 165.910156 44.136719 187.265625 C 43.792969 187.4375 43.472656 187.589844 43.105469 187.738281 C 37.425781 167.410156 36.03125 145.859375 39.203125 124.996094 C 40.75 114.726562 43.535156 104.328125 49.925781 96.15625 C 56.398438 87.878906 66.21875 82.539062 76.53125 80.4375 C 86.542969 78.421875 97.007812 79.367188 106.867188 82.089844 Z M 106.867188 82.089844 " fill-opacity="1" fill-rule="nonzero"/><path fill="#275437" d="M 133.304688 72.933594 C 113.515625 76.152344 94.882812 85.304688 80.28125 99.117188 C 64.117188 114.402344 53.375 134.945312 50.011719 156.925781 C 49.925781 157.503906 50.332031 158.0625 50.910156 158.148438 C 51.511719 158.234375 52.046875 157.824219 52.132812 157.246094 C 55.433594 135.71875 65.941406 115.625 81.761719 100.679688 C 96.085938 87.128906 114.394531 78.144531 133.839844 75.015625 C 133.605469 74.328125 133.433594 73.640625 133.304688 72.933594 Z M 133.304688 72.933594 " fill-opacity="1" fill-rule="nonzero"/><path fill="#275437" d="M 94.648438 123.109375 C 94.046875 123.109375 93.574219 122.617188 93.597656 122.015625 C 93.703125 112.945312 91.539062 103.554688 87.550781 95.511719 C 77.390625 94.613281 66.992188 96.972656 58.199219 102.183594 C 57.6875 102.480469 57.042969 102.3125 56.722656 101.816406 C 56.421875 101.304688 56.59375 100.660156 57.105469 100.359375 C 66.453125 94.828125 77.539062 92.359375 88.34375 93.453125 C 88.710938 93.496094 89.03125 93.710938 89.203125 94.035156 C 93.53125 102.503906 95.847656 112.453125 95.761719 122.058594 C 95.761719 122.636719 95.269531 123.109375 94.691406 123.109375 Z M 94.648438 123.109375 " fill-opacity="1" fill-rule="nonzero"/><path fill="#275437" d="M 76.382812 141.359375 C 75.886719 141.359375 75.4375 141.015625 75.332031 140.5 C 73.785156 132.84375 70.613281 125.445312 66.15625 119.035156 C 58.886719 120.367188 52.539062 122.488281 46.195312 125.660156 C 45.65625 125.941406 45.015625 125.726562 44.757812 125.191406 C 44.5 124.652344 44.714844 124.011719 45.230469 123.753906 C 51.855469 120.40625 58.800781 118.136719 66.453125 116.804688 C 66.863281 116.742188 67.269531 116.890625 67.503906 117.234375 C 72.351562 124.011719 75.78125 131.902344 77.433594 140.070312 C 77.539062 140.648438 77.175781 141.207031 76.59375 141.335938 C 76.53125 141.335938 76.445312 141.335938 76.382812 141.335938 Z M 76.382812 141.359375 " fill-opacity="1" fill-rule="nonzero"/><path fill="#275437" d="M 63.496094 159.753906 C 62.980469 159.753906 62.53125 159.390625 62.445312 158.855469 C 61.480469 152.9375 58.542969 147.53125 54.191406 143.585938 C 50.351562 145.152344 46.878906 147.597656 44.136719 150.683594 C 43.726562 151.136719 43.0625 151.15625 42.613281 150.769531 C 42.164062 150.386719 42.140625 149.699219 42.527344 149.25 C 45.65625 145.753906 49.625 143.007812 54.019531 141.335938 C 54.382812 141.207031 54.792969 141.273438 55.089844 141.527344 C 60.109375 145.839844 63.472656 151.863281 64.566406 158.492188 C 64.652344 159.070312 64.269531 159.625 63.6875 159.710938 C 63.625 159.710938 63.582031 159.710938 63.515625 159.710938 Z M 63.496094 159.753906 " fill-opacity="1" fill-rule="nonzero"/><path fill="#428535" d="M 133.710938 153.109375 C 129.015625 170.605469 115.722656 185.574219 98.871094 192.285156 C 97.648438 175.429688 86.84375 160.25 86.394531 143.332031 C 86.136719 133.316406 89.714844 123.238281 96.277344 115.667969 C 102.667969 108.273438 111.820312 103.320312 121.492188 101.988281 C 121.746094 101.945312 122.003906 101.902344 122.261719 101.882812 C 134.398438 115.96875 138.429688 135.609375 133.753906 153.128906 Z M 133.710938 153.109375 " fill-opacity="1" fill-rule="nonzero"/><path fill="#60943b" d="M 121.46875 101.96875 C 114.867188 115.949219 110.707031 131.066406 109.183594 146.441406 C 108.304688 155.382812 108.304688 164.453125 106.652344 173.265625 C 105.367188 180.039062 102.988281 186.792969 98.871094 192.285156 C 97.648438 175.429688 86.84375 160.25 86.394531 143.332031 C 86.136719 133.316406 89.714844 123.238281 96.277344 115.667969 C 102.667969 108.273438 111.820312 103.320312 121.492188 101.988281 Z M 121.46875 101.96875 " fill-opacity="1" fill-rule="nonzero"/><path fill="#275437" d="M 135.40625 79.003906 C 135.253906 78.636719 135.105469 78.273438 134.933594 77.910156 C 134.847656 77.714844 134.761719 77.5 134.675781 77.308594 C 125.691406 88.09375 118.597656 101.625 114.03125 116.890625 C 109.675781 131.449219 107.382812 147.511719 106.78125 167.476562 C 106.78125 168.074219 107.234375 168.570312 107.832031 168.570312 L 107.875 168.570312 C 108.457031 168.570312 108.925781 168.117188 108.949219 167.519531 C 109.527344 147.746094 111.800781 131.835938 116.109375 117.46875 C 120.484375 102.824219 127.238281 89.832031 135.726562 79.367188 C 135.621094 79.238281 135.511719 79.089844 135.40625 78.960938 Z M 135.40625 79.003906 " fill-opacity="1" fill-rule="nonzero"/><path fill="#275437" d="M 118.273438 166.746094 C 117.824219 166.746094 117.394531 166.445312 117.246094 165.996094 C 115.617188 160.742188 112.65625 156.003906 108.691406 152.230469 C 104.9375 154.566406 101.636719 157.527344 98.808594 161 C 98.441406 161.449219 97.757812 161.535156 97.304688 161.148438 C 96.855469 160.785156 96.769531 160.097656 97.15625 159.648438 C 100.308594 155.765625 104.039062 152.507812 108.285156 149.976562 C 108.691406 149.742188 109.207031 149.785156 109.546875 150.105469 C 114.117188 154.222656 117.480469 159.5 119.304688 165.375 C 119.476562 165.929688 119.152344 166.53125 118.597656 166.722656 C 118.488281 166.765625 118.382812 166.765625 118.273438 166.765625 Z M 118.273438 166.746094 " fill-opacity="1" fill-rule="nonzero"/><path fill="#275437" d="M 127.171875 149.976562 C 126.699219 149.976562 126.25 149.65625 126.144531 149.164062 C 123.976562 140.351562 119.582031 132.265625 113.386719 125.746094 C 106.652344 129.5 100.652344 134.304688 95.527344 140.070312 C 95.140625 140.519531 94.453125 140.542969 94.003906 140.15625 C 93.554688 139.769531 93.511719 139.085938 93.917969 138.632812 C 99.386719 132.480469 105.839844 127.378906 113.085938 123.453125 C 113.515625 123.21875 114.03125 123.304688 114.371094 123.644531 C 121.125 130.550781 125.90625 139.191406 128.222656 148.625 C 128.371094 149.207031 128.007812 149.785156 127.429688 149.914062 C 127.34375 149.914062 127.257812 149.933594 127.171875 149.933594 Z M 127.171875 149.976562 " fill-opacity="1" fill-rule="nonzero"/><path fill="#fac83e" d="M 320.257812 223.03125 C 317.988281 235.253906 314.429688 247.132812 310.226562 258.820312 C 308.167969 264.589844 305.960938 270.292969 303.6875 275.976562 C 302.355469 279.296875 301.777344 282.878906 302.015625 286.4375 C 302.273438 290.382812 302.484375 294.136719 301.949219 297.847656 C 301.179688 303.25 298.648438 308.632812 294.125 311.699219 C 289.148438 315.066406 282.503906 315.128906 276.757812 313.328125 C 272.921875 312.105469 269.382812 310.132812 265.996094 307.945312 C 262.5 305.671875 258.46875 304.363281 254.3125 304.171875 C 232.078125 303.058594 209.160156 304.449219 187.71875 297.738281 C 152.277344 286.609375 126.25 253.609375 117.953125 217.351562 C 117.761719 216.492188 117.566406 215.679688 117.394531 214.820312 C 110.300781 180.320312 117.695312 144.039062 133.132812 112.238281 C 135.707031 106.941406 136.328125 100.917969 134.847656 95.214844 C 131.09375 80.78125 125.007812 67.980469 117.03125 56.617188 C 113.578125 51.707031 117.695312 44.695312 123.589844 45.746094 C 123.65625 45.746094 123.71875 45.746094 123.785156 45.746094 C 125.179688 46.023438 126.398438 46.859375 127.300781 47.953125 C 131.460938 52.972656 139.265625 61.484375 148.527344 69.78125 C 153.179688 73.964844 158.195312 78.058594 163.296875 81.640625 C 167.820312 84.835938 173.355469 86.230469 178.863281 85.863281 C 206.519531 84.042969 235.035156 89.722656 259.199219 100.894531 C 273.304688 107.414062 286.300781 116.742188 296.738281 128.214844 C 305.917969 138.25 313.140625 149.933594 317.492188 162.820312 C 323.988281 182.054688 323.945312 203.046875 320.257812 223.011719 Z M 320.257812 223.03125 " fill-opacity="1" fill-rule="nonzero"/><path fill="#f5b431" d="M 303.6875 275.972656 C 302.355469 279.296875 301.777344 282.878906 302.015625 286.4375 C 302.273438 290.382812 302.484375 294.136719 301.949219 297.847656 C 301.179688 303.25 298.648438 308.632812 294.125 311.699219 C 289.148438 315.066406 282.503906 315.128906 276.757812 313.328125 C 272.921875 312.105469 269.382812 310.132812 265.996094 307.945312 C 262.5 305.671875 258.46875 304.363281 254.3125 304.171875 C 232.078125 303.058594 209.160156 304.449219 187.71875 297.738281 C 152.277344 286.609375 126.25 253.609375 117.953125 217.351562 C 123.914062 231.996094 132.402344 245.484375 144.003906 256.117188 C 156.695312 267.785156 172.625 275.566406 189.21875 280.242188 C 205.8125 284.894531 223.117188 286.566406 240.332031 287.058594 C 249.378906 287.296875 258.664062 287.273438 267.109375 290.511719 C 270.925781 291.992188 274.851562 294.136719 278.835938 293.277344 C 284.371094 292.078125 286.984375 285.988281 289.902344 281.140625 C 294.425781 273.636719 301.328125 267.933594 307.480469 261.714844 C 308.402344 260.773438 309.324219 259.808594 310.226562 258.820312 C 308.167969 264.589844 305.960938 270.292969 303.6875 275.972656 Z M 303.6875 275.972656 " fill-opacity="1" fill-rule="nonzero"/><path fill="#ffd84d" d="M 255.960938 229.402344 C 225.152344 241.238281 187.976562 231.652344 164.949219 208.023438 C 141.902344 184.394531 133.152344 148.496094 140.316406 116.269531 C 142.371094 107.027344 145.652344 97.914062 145.675781 88.4375 C 145.695312 83.398438 144.796875 78.210938 146.402344 73.449219 C 146.832031 72.140625 147.582031 70.875 148.527344 69.804688 C 153.179688 73.984375 158.195312 78.082031 163.296875 81.660156 C 167.820312 84.855469 173.355469 86.25 178.863281 85.886719 C 206.519531 84.0625 235.035156 89.746094 259.199219 100.917969 C 273.304688 107.433594 286.300781 116.761719 296.738281 128.234375 C 300.386719 135.417969 302.894531 143.117188 303.964844 151.179688 C 308.339844 183.878906 286.769531 217.585938 255.960938 229.402344 Z M 255.960938 229.402344 " fill-opacity="1" fill-rule="nonzero"/><path fill="#524327" d="M 197.300781 223.460938 C 197.300781 224.242188 197.226562 225.015625 197.074219 225.777344 C 196.921875 226.542969 196.695312 227.285156 196.398438 228.007812 C 196.097656 228.726562 195.734375 229.414062 195.300781 230.0625 C 194.867188 230.710938 194.375 231.308594 193.824219 231.863281 C 193.273438 232.414062 192.671875 232.90625 192.023438 233.339844 C 191.375 233.773438 190.691406 234.136719 189.96875 234.4375 C 189.25 234.734375 188.507812 234.960938 187.742188 235.113281 C 186.976562 235.265625 186.203125 235.339844 185.425781 235.339844 C 184.644531 235.339844 183.871094 235.265625 183.105469 235.113281 C 182.34375 234.960938 181.597656 234.734375 180.878906 234.4375 C 180.160156 234.136719 179.472656 233.773438 178.824219 233.339844 C 178.175781 232.90625 177.578125 232.414062 177.027344 231.863281 C 176.472656 231.308594 175.980469 230.710938 175.546875 230.0625 C 175.113281 229.414062 174.75 228.726562 174.449219 228.007812 C 174.152344 227.285156 173.925781 226.542969 173.773438 225.777344 C 173.621094 225.015625 173.546875 224.242188 173.546875 223.460938 C 173.546875 222.679688 173.621094 221.910156 173.773438 221.144531 C 173.925781 220.378906 174.152344 219.636719 174.449219 218.914062 C 174.75 218.195312 175.113281 217.511719 175.546875 216.863281 C 175.980469 216.214844 176.472656 215.613281 177.027344 215.0625 C 177.578125 214.511719 178.175781 214.019531 178.824219 213.585938 C 179.472656 213.152344 180.160156 212.785156 180.878906 212.488281 C 181.597656 212.1875 182.34375 211.960938 183.105469 211.8125 C 183.871094 211.660156 184.644531 211.582031 185.425781 211.582031 C 186.203125 211.582031 186.976562 211.660156 187.742188 211.8125 C 188.507812 211.960938 189.25 212.1875 189.96875 212.488281 C 190.691406 212.785156 191.375 213.152344 192.023438 213.585938 C 192.671875 214.019531 193.273438 214.511719 193.824219 215.0625 C 194.375 215.613281 194.867188 216.214844 195.300781 216.863281 C 195.734375 217.511719 196.097656 218.195312 196.398438 218.914062 C 196.695312 219.636719 196.921875 220.378906 197.074219 221.144531 C 197.226562 221.910156 197.300781 222.679688 197.300781 223.460938 Z M 197.300781 223.460938 " fill-opacity="1" fill-rule="nonzero"/><path fill="#524327" d="M 280.917969 192.285156 C 280.917969 193.0625 280.839844 193.835938 280.6875 194.601562 C 280.535156 195.367188 280.3125 196.109375 280.011719 196.828125 C 279.714844 197.550781 279.347656 198.234375 278.914062 198.882812 C 278.480469 199.53125 277.988281 200.132812 277.4375 200.683594 C 276.886719 201.234375 276.285156 201.726562 275.636719 202.160156 C 274.988281 202.59375 274.304688 202.960938 273.585938 203.257812 C 272.863281 203.558594 272.121094 203.78125 271.355469 203.933594 C 270.59375 204.085938 269.820312 204.164062 269.039062 204.164062 C 268.261719 204.164062 267.488281 204.085938 266.722656 203.933594 C 265.957031 203.78125 265.214844 203.558594 264.496094 203.257812 C 263.773438 202.960938 263.089844 202.59375 262.441406 202.160156 C 261.792969 201.726562 261.191406 201.234375 260.640625 200.683594 C 260.089844 200.132812 259.597656 199.53125 259.164062 198.882812 C 258.730469 198.234375 258.363281 197.550781 258.066406 196.828125 C 257.769531 196.109375 257.542969 195.367188 257.390625 194.601562 C 257.238281 193.835938 257.160156 193.0625 257.160156 192.285156 C 257.160156 191.503906 257.238281 190.730469 257.390625 189.964844 C 257.542969 189.203125 257.769531 188.457031 258.066406 187.738281 C 258.363281 187.015625 258.730469 186.332031 259.164062 185.683594 C 259.597656 185.035156 260.089844 184.4375 260.640625 183.882812 C 261.191406 183.332031 261.792969 182.839844 262.441406 182.40625 C 263.089844 181.972656 263.773438 181.609375 264.496094 181.308594 C 265.214844 181.011719 265.957031 180.785156 266.722656 180.632812 C 267.488281 180.480469 268.261719 180.40625 269.039062 180.40625 C 269.820312 180.40625 270.59375 180.480469 271.355469 180.632812 C 272.121094 180.785156 272.863281 181.011719 273.585938 181.308594 C 274.304688 181.609375 274.988281 181.972656 275.636719 182.40625 C 276.285156 182.839844 276.886719 183.332031 277.4375 183.882812 C 277.988281 184.4375 278.480469 185.035156 278.914062 185.683594 C 279.347656 186.332031 279.714844 187.015625 280.011719 187.738281 C 280.3125 188.457031 280.535156 189.203125 280.6875 189.964844 C 280.839844 190.730469 280.917969 191.503906 280.917969 192.285156 Z M 280.917969 192.285156 " fill-opacity="1" fill-rule="nonzero"/><path fill="#524327" d="M 234.265625 234.761719 C 231.949219 234.761719 229.570312 234.246094 227.339844 233.238281 C 226.804688 232.980469 226.566406 232.359375 226.804688 231.824219 C 227.058594 231.289062 227.683594 231.050781 228.21875 231.289062 C 232.269531 233.152344 236.835938 233.066406 240.160156 231.09375 C 243.785156 228.949219 245.605469 224.449219 244.296875 220.867188 C 243.65625 219.042969 241.984375 217.480469 239.945312 216.792969 C 238.144531 216.171875 236.324219 216.34375 234.929688 217.222656 C 234.4375 217.542969 233.769531 217.394531 233.449219 216.898438 C 233.128906 216.40625 233.277344 215.742188 233.769531 215.421875 C 236.621094 213.554688 238.488281 210.554688 238.660156 207.574219 C 238.851562 204.378906 236.921875 201.226562 234.179688 200.238281 C 231.628906 199.316406 228.390625 200.152344 225.902344 202.382812 C 223.5 204.527344 222 207.53125 220.757812 210.445312 C 220.519531 210.980469 219.898438 211.238281 219.34375 211.003906 C 218.804688 210.765625 218.550781 210.144531 218.785156 209.589844 C 220.136719 206.4375 221.765625 203.199219 224.464844 200.773438 C 227.53125 198.050781 231.605469 197.042969 234.886719 198.222656 C 238.550781 199.554688 241.039062 203.519531 240.78125 207.703125 C 240.652344 210.058594 239.710938 212.355469 238.144531 214.304688 C 238.960938 214.347656 239.796875 214.5 240.609375 214.777344 C 243.269531 215.679688 245.390625 217.695312 246.269531 220.160156 C 247.898438 224.683594 245.671875 230.300781 241.1875 232.960938 C 239.152344 234.183594 236.707031 234.785156 234.199219 234.785156 Z M 234.265625 234.761719 " fill-opacity="1" fill-rule="nonzero"/></svg>