<svg xmlns="http://www.w3.org/2000/svg" xmlns:xlink="http://www.w3.org/1999/xlink" width="480" zoomAndPan="magnify" viewBox="0 0 360 367.91998" height="480" preserveAspectRatio="xMidYMid meet" version="1.0"><defs><clipPath id="8e12ca471a"><path d="M 146 62.757812 L 214 62.757812 L 214 127 L 146 127 Z M 146 62.757812 " clip-rule="nonzero"/></clipPath><clipPath id="f6fc813761"><path d="M 87.898438 115 L 272.359375 115 L 272.359375 297.457031 L 87.898438 297.457031 Z M 87.898438 115 " clip-rule="nonzero"/></clipPath></defs><path fill="#bb302a" d="M 128.570312 115.828125 C 128.570312 115.828125 146.496094 98.707031 170.242188 108.121094 L 190.894531 108.75 C 190.894531 108.75 216.917969 96.488281 234.496094 117.214844 C 252.070312 137.945312 161.414062 128.660156 161.414062 128.660156 L 135.644531 123.425781 Z M 128.570312 115.828125 " fill-opacity="1" fill-rule="nonzero"/><g clip-path="url(#8e12ca471a)"><path fill="#4d8641" d="M 146.273438 119.894531 C 146.273438 119.894531 165.070312 116.953125 170.242188 108.121094 C 175.410156 99.292969 170.113281 70.648438 196.605469 62.800781 C 196.605469 62.800781 205.105469 67.835938 204.0625 75.816406 C 204.0625 75.816406 189.800781 81.4375 187.707031 96.480469 C 185.617188 111.523438 199.089844 114.140625 213.085938 120.546875 L 206.546875 126.957031 L 153.4375 125.78125 Z M 146.273438 119.894531 " fill-opacity="1" fill-rule="nonzero"/></g><g clip-path="url(#f6fc813761)"><path fill="#db3e36" d="M 154.21875 124.472656 C 154.21875 124.472656 136.757812 109.300781 114.191406 119.109375 C 91.625 128.921875 87.898438 158.742188 87.898438 173.390625 C 87.898438 188.042969 102.027344 224.078125 103.203125 237.222656 C 104.382812 250.367188 115.351562 310.472656 158.660156 288.234375 C 158.660156 288.234375 166.375 297.390625 179.660156 297.390625 C 192.941406 297.390625 202.230469 288.234375 202.230469 288.234375 C 202.230469 288.234375 215.050781 297.128906 234.933594 290.328125 C 254.816406 283.527344 253.769531 245.070312 258.480469 231.730469 C 263.1875 218.386719 293.539062 138.335938 245.921875 119.765625 C 245.921875 119.765625 224.730469 111 206.152344 124.734375 C 206.152344 124.734375 178.421875 110.609375 154.222656 124.472656 Z M 154.21875 124.472656 " fill-opacity="1" fill-rule="nonzero"/></g><path fill="#bb302a" d="M 153.535156 126.371094 C 153.535156 126.371094 139.898438 138.535156 136.757812 162.078125 C 133.617188 185.621094 144.605469 253.507812 146.765625 262.335938 C 148.921875 271.167969 158.339844 287.746094 158.339844 287.746094 L 157.359375 288.136719 C 157.359375 288.136719 147.351562 281.171875 141.269531 256.058594 C 135.1875 230.945312 129.890625 182.039062 132.636719 159.601562 C 135.382812 137.160156 152.125 125.976562 152.125 125.976562 L 153.53125 126.371094 Z M 153.535156 126.371094 " fill-opacity="1" fill-rule="nonzero"/><path fill="#bb302a" d="M 207.429688 126.371094 C 207.429688 126.371094 221.066406 138.535156 224.207031 162.078125 C 227.34375 185.621094 216.355469 253.507812 214.199219 262.335938 C 212.039062 271.167969 202.621094 287.746094 202.621094 287.746094 L 203.601562 288.136719 C 203.601562 288.136719 213.609375 281.171875 219.691406 256.058594 C 225.777344 230.945312 231.074219 182.039062 228.328125 159.601562 C 225.578125 137.160156 208.835938 125.976562 208.835938 125.976562 Z M 207.429688 126.371094 " fill-opacity="1" fill-rule="nonzero"/><path fill="#eb7362" d="M 149.691406 150.304688 C 149.371094 152.304688 149.265625 154.417969 150.035156 156.289062 C 150.804688 158.160156 152.644531 159.714844 154.664062 159.59375 C 156.027344 159.511719 157.261719 158.691406 158.148438 157.652344 C 159.035156 156.613281 159.625 155.355469 160.203125 154.117188 C 162.3125 149.609375 164.421875 145.097656 166.53125 140.585938 C 167.042969 139.484375 167.570312 138.332031 167.519531 137.117188 C 167.433594 134.960938 165.414062 133.207031 163.269531 132.957031 C 161.125 132.707031 158.988281 133.699219 157.382812 135.144531 C 153.132812 138.957031 150.574219 144.773438 149.691406 150.304688 Z M 149.691406 150.304688 " fill-opacity="1" fill-rule="nonzero"/><path fill="#eb7362" d="M 98.859375 162.660156 C 98.894531 164.285156 99.058594 165.953125 99.777344 167.410156 C 100.496094 168.871094 101.878906 170.09375 103.5 170.222656 C 105.878906 170.414062 107.875 168.230469 108.492188 165.925781 C 109.105469 163.625 108.742188 161.191406 108.714844 158.808594 C 108.621094 151.148438 112.269531 143.535156 118.292969 138.804688 C 119.546875 137.820312 120.925781 136.925781 121.8125 135.601562 C 122.699219 134.28125 122.949219 132.351562 121.882812 131.167969 C 120.546875 129.683594 118.117188 130.175781 116.300781 131.011719 C 107.59375 135.011719 102.449219 143.710938 100.058594 152.671875 C 99.191406 155.921875 98.78125 159.296875 98.859375 162.660156 Z M 98.859375 162.660156 " fill-opacity="1" fill-rule="nonzero"/><path fill="#eb7362" d="M 101.429688 179.730469 C 101.449219 180.484375 101.6875 181.234375 102.117188 181.851562 C 103.148438 183.34375 105.324219 183.894531 106.941406 183.074219 C 108.554688 182.257812 109.394531 180.171875 108.804688 178.460938 C 108.222656 176.78125 106.265625 175.714844 104.527344 175.746094 C 102.699219 175.78125 101.390625 178.097656 101.429688 179.730469 Z M 101.429688 179.730469 " fill-opacity="1" fill-rule="nonzero"/><path fill="#57271c" d="M 158.660156 192.570312 C 158.660156 193.007812 158.617188 193.441406 158.53125 193.867188 C 158.445312 194.292969 158.320312 194.710938 158.152344 195.113281 C 157.988281 195.515625 157.78125 195.898438 157.539062 196.261719 C 157.296875 196.621094 157.023438 196.957031 156.714844 197.265625 C 156.40625 197.574219 156.070312 197.851562 155.707031 198.09375 C 155.347656 198.335938 154.964844 198.539062 154.558594 198.707031 C 154.15625 198.871094 153.742188 199 153.316406 199.082031 C 152.886719 199.167969 152.457031 199.210938 152.019531 199.210938 C 151.582031 199.210938 151.152344 199.167969 150.722656 199.082031 C 150.296875 199 149.882812 198.871094 149.480469 198.707031 C 149.074219 198.539062 148.691406 198.335938 148.332031 198.09375 C 147.96875 197.851562 147.632812 197.574219 147.324219 197.265625 C 147.015625 196.957031 146.742188 196.621094 146.5 196.261719 C 146.257812 195.898438 146.050781 195.515625 145.886719 195.113281 C 145.71875 194.710938 145.59375 194.292969 145.507812 193.867188 C 145.421875 193.441406 145.378906 193.007812 145.378906 192.570312 C 145.378906 192.136719 145.421875 191.703125 145.507812 191.277344 C 145.59375 190.847656 145.71875 190.433594 145.886719 190.03125 C 146.050781 189.628906 146.257812 189.246094 146.5 188.882812 C 146.742188 188.519531 147.015625 188.1875 147.324219 187.878906 C 147.632812 187.570312 147.96875 187.292969 148.332031 187.050781 C 148.691406 186.808594 149.074219 186.605469 149.480469 186.4375 C 149.882812 186.273438 150.296875 186.144531 150.722656 186.0625 C 151.152344 185.976562 151.582031 185.933594 152.019531 185.933594 C 152.457031 185.933594 152.886719 185.976562 153.316406 186.0625 C 153.742188 186.144531 154.15625 186.273438 154.558594 186.4375 C 154.964844 186.605469 155.347656 186.808594 155.707031 187.050781 C 156.070312 187.292969 156.40625 187.570312 156.714844 187.878906 C 157.023438 188.1875 157.296875 188.519531 157.539062 188.882812 C 157.78125 189.246094 157.988281 189.628906 158.152344 190.03125 C 158.320312 190.433594 158.445312 190.847656 158.53125 191.277344 C 158.617188 191.703125 158.660156 192.136719 158.660156 192.570312 Z M 158.660156 192.570312 " fill-opacity="1" fill-rule="nonzero"/><path fill="#57271c" d="M 214.480469 192.570312 C 214.480469 193.007812 214.4375 193.441406 214.351562 193.867188 C 214.265625 194.292969 214.140625 194.710938 213.972656 195.113281 C 213.808594 195.515625 213.601562 195.898438 213.359375 196.261719 C 213.117188 196.621094 212.84375 196.957031 212.535156 197.265625 C 212.226562 197.574219 211.890625 197.851562 211.527344 198.09375 C 211.167969 198.335938 210.785156 198.539062 210.378906 198.707031 C 209.976562 198.871094 209.5625 199 209.136719 199.082031 C 208.707031 199.167969 208.277344 199.210938 207.839844 199.210938 C 207.402344 199.210938 206.972656 199.167969 206.542969 199.082031 C 206.117188 199 205.703125 198.871094 205.300781 198.707031 C 204.894531 198.539062 204.515625 198.335938 204.152344 198.09375 C 203.789062 197.851562 203.453125 197.574219 203.144531 197.265625 C 202.835938 196.957031 202.5625 196.621094 202.320312 196.261719 C 202.078125 195.898438 201.871094 195.515625 201.707031 195.113281 C 201.539062 194.710938 201.414062 194.292969 201.328125 193.867188 C 201.242188 193.441406 201.199219 193.007812 201.199219 192.570312 C 201.199219 192.136719 201.242188 191.703125 201.328125 191.277344 C 201.414062 190.847656 201.539062 190.433594 201.707031 190.03125 C 201.871094 189.628906 202.078125 189.246094 202.320312 188.882812 C 202.5625 188.519531 202.835938 188.1875 203.144531 187.878906 C 203.453125 187.570312 203.789062 187.292969 204.152344 187.050781 C 204.515625 186.808594 204.894531 186.605469 205.300781 186.4375 C 205.703125 186.273438 206.117188 186.144531 206.542969 186.0625 C 206.972656 185.976562 207.402344 185.933594 207.839844 185.933594 C 208.277344 185.933594 208.707031 185.976562 209.136719 186.0625 C 209.5625 186.144531 209.976562 186.273438 210.378906 186.4375 C 210.785156 186.605469 211.167969 186.808594 211.527344 187.050781 C 211.890625 187.292969 212.226562 187.570312 212.535156 187.878906 C 212.84375 188.1875 213.117188 188.519531 213.359375 188.882812 C 213.601562 189.246094 213.808594 189.628906 213.972656 190.03125 C 214.140625 190.433594 214.265625 190.847656 214.351562 191.277344 C 214.4375 191.703125 214.480469 192.136719 214.480469 192.570312 Z M 214.480469 192.570312 " fill-opacity="1" fill-rule="nonzero"/><path fill="#57271c" d="M 180.222656 211.207031 C 175.007812 211.207031 170.097656 207.109375 169.203125 201.960938 C 169.046875 201.0625 169.648438 200.207031 170.546875 200.050781 C 171.445312 199.894531 172.300781 200.5 172.457031 201.398438 C 173.085938 205.011719 176.714844 207.964844 180.382812 207.902344 C 184.054688 207.8125 187.53125 204.660156 187.980469 201.015625 C 188.09375 200.109375 188.917969 199.46875 189.824219 199.578125 C 190.730469 199.691406 191.371094 200.515625 191.261719 201.421875 C 190.609375 206.683594 185.765625 211.074219 180.464844 211.203125 C 180.382812 211.207031 180.300781 211.207031 180.222656 211.207031 Z M 180.222656 211.207031 " fill-opacity="1" fill-rule="nonzero"/><path fill="#f9a1a3" d="M 149.886719 212.683594 C 149.886719 213.164062 149.820312 213.640625 149.6875 214.109375 C 149.550781 214.578125 149.351562 215.035156 149.089844 215.476562 C 148.828125 215.921875 148.507812 216.339844 148.125 216.738281 C 147.742188 217.136719 147.308594 217.507812 146.824219 217.84375 C 146.339844 218.183594 145.8125 218.484375 145.242188 218.753906 C 144.671875 219.019531 144.066406 219.242188 143.433594 219.425781 C 142.800781 219.609375 142.144531 219.75 141.472656 219.84375 C 140.800781 219.9375 140.121094 219.980469 139.433594 219.980469 C 138.746094 219.980469 138.066406 219.9375 137.394531 219.84375 C 136.722656 219.75 136.066406 219.609375 135.433594 219.425781 C 134.800781 219.242188 134.199219 219.019531 133.628906 218.753906 C 133.054688 218.484375 132.527344 218.183594 132.042969 217.84375 C 131.558594 217.507812 131.125 217.136719 130.742188 216.738281 C 130.363281 216.339844 130.039062 215.921875 129.777344 215.476562 C 129.515625 215.035156 129.316406 214.578125 129.183594 214.109375 C 129.046875 213.640625 128.980469 213.164062 128.980469 212.683594 C 128.980469 212.207031 129.046875 211.730469 129.183594 211.261719 C 129.316406 210.792969 129.515625 210.335938 129.777344 209.890625 C 130.039062 209.449219 130.363281 209.03125 130.742188 208.632812 C 131.125 208.234375 131.558594 207.863281 132.042969 207.523438 C 132.527344 207.1875 133.054688 206.882812 133.628906 206.617188 C 134.199219 206.351562 134.800781 206.125 135.433594 205.941406 C 136.066406 205.761719 136.722656 205.621094 137.394531 205.527344 C 138.066406 205.433594 138.746094 205.386719 139.433594 205.386719 C 140.121094 205.386719 140.800781 205.433594 141.472656 205.527344 C 142.144531 205.621094 142.800781 205.761719 143.433594 205.941406 C 144.066406 206.125 144.671875 206.351562 145.242188 206.617188 C 145.8125 206.882812 146.339844 207.1875 146.824219 207.523438 C 147.308594 207.863281 147.742188 208.234375 148.125 208.632812 C 148.507812 209.03125 148.828125 209.449219 149.089844 209.890625 C 149.351562 210.335938 149.550781 210.792969 149.6875 211.261719 C 149.820312 211.730469 149.886719 212.207031 149.886719 212.683594 Z M 149.886719 212.683594 " fill-opacity="1" fill-rule="nonzero"/><path fill="#f9a1a3" d="M 232.839844 212.683594 C 232.839844 213.164062 232.773438 213.640625 232.640625 214.109375 C 232.503906 214.578125 232.308594 215.035156 232.042969 215.476562 C 231.78125 215.921875 231.460938 216.339844 231.078125 216.738281 C 230.695312 217.136719 230.261719 217.507812 229.777344 217.84375 C 229.292969 218.183594 228.765625 218.484375 228.195312 218.753906 C 227.625 219.019531 227.019531 219.242188 226.386719 219.425781 C 225.753906 219.609375 225.101562 219.75 224.425781 219.84375 C 223.753906 219.9375 223.074219 219.980469 222.386719 219.980469 C 221.699219 219.980469 221.019531 219.9375 220.347656 219.84375 C 219.675781 219.75 219.023438 219.609375 218.386719 219.425781 C 217.753906 219.242188 217.152344 219.019531 216.582031 218.753906 C 216.007812 218.484375 215.480469 218.183594 214.996094 217.84375 C 214.511719 217.507812 214.078125 217.136719 213.695312 216.738281 C 213.316406 216.339844 212.992188 215.921875 212.730469 215.476562 C 212.46875 215.035156 212.269531 214.578125 212.136719 214.109375 C 212.003906 213.640625 211.933594 213.164062 211.933594 212.683594 C 211.933594 212.207031 212.003906 211.730469 212.136719 211.261719 C 212.269531 210.792969 212.46875 210.335938 212.730469 209.890625 C 212.992188 209.449219 213.316406 209.03125 213.695312 208.632812 C 214.078125 208.234375 214.511719 207.863281 214.996094 207.523438 C 215.480469 207.1875 216.007812 206.882812 216.582031 206.617188 C 217.152344 206.351562 217.753906 206.125 218.386719 205.941406 C 219.023438 205.761719 219.675781 205.621094 220.347656 205.527344 C 221.019531 205.433594 221.699219 205.386719 222.386719 205.386719 C 223.074219 205.386719 223.753906 205.433594 224.425781 205.527344 C 225.101562 205.621094 225.753906 205.761719 226.386719 205.941406 C 227.019531 206.125 227.625 206.351562 228.195312 206.617188 C 228.765625 206.882812 229.292969 207.1875 229.777344 207.523438 C 230.261719 207.863281 230.695312 208.234375 231.078125 208.632812 C 231.460938 209.03125 231.78125 209.449219 232.042969 209.890625 C 232.308594 210.335938 232.503906 210.792969 232.640625 211.261719 C 232.773438 211.730469 232.839844 212.207031 232.839844 212.683594 Z M 232.839844 212.683594 " fill-opacity="1" fill-rule="nonzero"/></svg>