<svg xmlns="http://www.w3.org/2000/svg" xmlns:xlink="http://www.w3.org/1999/xlink" width="480" zoomAndPan="magnify" viewBox="0 0 360 367.91998" height="480" preserveAspectRatio="xMidYMid meet" version="1.0"><defs><clipPath id="d5eeb5be9b"><path d="M 190 39 L 275 39 L 275 120 L 190 120 Z M 190 39 " clip-rule="nonzero"/></clipPath><clipPath id="9ec7f05d78"><path d="M 195.28125 15.976562 L 300.839844 66.375 L 177.75 324.1875 L 72.1875 273.785156 Z M 195.28125 15.976562 " clip-rule="nonzero"/></clipPath><clipPath id="709e075998"><path d="M 195.28125 15.976562 L 300.839844 66.375 L 177.75 324.1875 L 72.1875 273.785156 Z M 195.28125 15.976562 " clip-rule="nonzero"/></clipPath><clipPath id="f5df5307be"><path d="M 195.28125 15.976562 L 300.839844 66.375 L 177.75 324.1875 L 72.1875 273.785156 Z M 195.28125 15.976562 " clip-rule="nonzero"/></clipPath><clipPath id="44d2a97785"><path d="M 107 94 L 253 94 L 253 302 L 107 302 Z M 107 94 " clip-rule="nonzero"/></clipPath><clipPath id="2a3d1f2cdb"><path d="M 195.28125 15.976562 L 300.839844 66.375 L 177.75 324.1875 L 72.1875 273.785156 Z M 195.28125 15.976562 " clip-rule="nonzero"/></clipPath><clipPath id="ae3765aec1"><path d="M 195.28125 15.976562 L 300.839844 66.375 L 177.75 324.1875 L 72.1875 273.785156 Z M 195.28125 15.976562 " clip-rule="nonzero"/></clipPath><clipPath id="e8b3be7f29"><path d="M 195.28125 15.976562 L 300.839844 66.375 L 177.75 324.1875 L 72.1875 273.785156 Z M 195.28125 15.976562 " clip-rule="nonzero"/></clipPath><clipPath id="3fc585eb74"><path d="M 108 191 L 242 191 L 242 302 L 108 302 Z M 108 191 " clip-rule="nonzero"/></clipPath><clipPath id="e416d4b863"><path d="M 195.28125 15.976562 L 300.839844 66.375 L 177.75 324.1875 L 72.1875 273.785156 Z M 195.28125 15.976562 " clip-rule="nonzero"/></clipPath><clipPath id="2ada5dc564"><path d="M 195.28125 15.976562 L 300.839844 66.375 L 177.75 324.1875 L 72.1875 273.785156 Z M 195.28125 15.976562 " clip-rule="nonzero"/></clipPath><clipPath id="f12e5295c2"><path d="M 195.28125 15.976562 L 300.839844 66.375 L 177.75 324.1875 L 72.1875 273.785156 Z M 195.28125 15.976562 " clip-rule="nonzero"/></clipPath><clipPath id="fe652dba0d"><path d="M 207 145 L 251 145 L 251 173 L 207 173 Z M 207 145 " clip-rule="nonzero"/></clipPath><clipPath id="e4d4dba9d4"><path d="M 195.28125 15.976562 L 300.839844 66.375 L 177.75 324.1875 L 72.1875 273.785156 Z M 195.28125 15.976562 " clip-rule="nonzero"/></clipPath><clipPath id="a9e088616b"><path d="M 195.28125 15.976562 L 300.839844 66.375 L 177.75 324.1875 L 72.1875 273.785156 Z M 195.28125 15.976562 " clip-rule="nonzero"/></clipPath><clipPath id="6230fc143e"><path d="M 195.28125 15.976562 L 300.839844 66.375 L 177.75 324.1875 L 72.1875 273.785156 Z M 195.28125 15.976562 " clip-rule="nonzero"/></clipPath><clipPath id="ed436d8179"><path d="M 161 98 L 197 98 L 197 120 L 161 120 Z M 161 98 " clip-rule="nonzero"/></clipPath><clipPath id="85a15aef0d"><path d="M 195.28125 15.976562 L 300.839844 66.375 L 177.75 324.1875 L 72.1875 273.785156 Z M 195.28125 15.976562 " clip-rule="nonzero"/></clipPath><clipPath id="d0c7f7473b"><path d="M 195.28125 15.976562 L 300.839844 66.375 L 177.75 324.1875 L 72.1875 273.785156 Z M 195.28125 15.976562 " clip-rule="nonzero"/></clipPath><clipPath id="c5bb55023f"><path d="M 195.28125 15.976562 L 300.839844 66.375 L 177.75 324.1875 L 72.1875 273.785156 Z M 195.28125 15.976562 " clip-rule="nonzero"/></clipPath><clipPath id="750ae9df19"><path d="M 132 138 L 161 138 L 161 158 L 132 158 Z M 132 138 " clip-rule="nonzero"/></clipPath><clipPath id="031541f408"><path d="M 195.28125 15.976562 L 300.839844 66.375 L 177.75 324.1875 L 72.1875 273.785156 Z M 195.28125 15.976562 " clip-rule="nonzero"/></clipPath><clipPath id="71bf94c652"><path d="M 195.28125 15.976562 L 300.839844 66.375 L 177.75 324.1875 L 72.1875 273.785156 Z M 195.28125 15.976562 " clip-rule="nonzero"/></clipPath><clipPath id="4e1b1ee663"><path d="M 195.28125 15.976562 L 300.839844 66.375 L 177.75 324.1875 L 72.1875 273.785156 Z M 195.28125 15.976562 " clip-rule="nonzero"/></clipPath><clipPath id="d7d5c0e57e"><path d="M 108 266 L 134 266 L 134 286 L 108 286 Z M 108 266 " clip-rule="nonzero"/></clipPath><clipPath id="83064b3838"><path d="M 195.28125 15.976562 L 300.839844 66.375 L 177.75 324.1875 L 72.1875 273.785156 Z M 195.28125 15.976562 " clip-rule="nonzero"/></clipPath><clipPath id="62fb87c934"><path d="M 195.28125 15.976562 L 300.839844 66.375 L 177.75 324.1875 L 72.1875 273.785156 Z M 195.28125 15.976562 " clip-rule="nonzero"/></clipPath><clipPath id="ee108e715f"><path d="M 195.28125 15.976562 L 300.839844 66.375 L 177.75 324.1875 L 72.1875 273.785156 Z M 195.28125 15.976562 " clip-rule="nonzero"/></clipPath><clipPath id="f90e596ad5"><path d="M 180 234 L 208 234 L 208 253 L 180 253 Z M 180 234 " clip-rule="nonzero"/></clipPath><clipPath id="590446a2ab"><path d="M 195.28125 15.976562 L 300.839844 66.375 L 177.75 324.1875 L 72.1875 273.785156 Z M 195.28125 15.976562 " clip-rule="nonzero"/></clipPath><clipPath id="8a6f2bf00d"><path d="M 195.28125 15.976562 L 300.839844 66.375 L 177.75 324.1875 L 72.1875 273.785156 Z M 195.28125 15.976562 " clip-rule="nonzero"/></clipPath><clipPath id="f228005d0e"><path d="M 195.28125 15.976562 L 300.839844 66.375 L 177.75 324.1875 L 72.1875 273.785156 Z M 195.28125 15.976562 " clip-rule="nonzero"/></clipPath><clipPath id="e0438c7d1a"><path d="M 153 254 L 188 254 L 188 275 L 153 275 Z M 153 254 " clip-rule="nonzero"/></clipPath><clipPath id="6b50d379c8"><path d="M 195.28125 15.976562 L 300.839844 66.375 L 177.75 324.1875 L 72.1875 273.785156 Z M 195.28125 15.976562 " clip-rule="nonzero"/></clipPath><clipPath id="7d7c968355"><path d="M 195.28125 15.976562 L 300.839844 66.375 L 177.75 324.1875 L 72.1875 273.785156 Z M 195.28125 15.976562 " clip-rule="nonzero"/></clipPath><clipPath id="22dc987092"><path d="M 195.28125 15.976562 L 300.839844 66.375 L 177.75 324.1875 L 72.1875 273.785156 Z M 195.28125 15.976562 " clip-rule="nonzero"/></clipPath><clipPath id="8c1c3eead3"><path d="M 150 173 L 162 173 L 162 186 L 150 186 Z M 150 173 " clip-rule="nonzero"/></clipPath><clipPath id="f329a76988"><path d="M 195.28125 15.976562 L 300.839844 66.375 L 177.75 324.1875 L 72.1875 273.785156 Z M 195.28125 15.976562 " clip-rule="nonzero"/></clipPath><clipPath id="4ce95d1166"><path d="M 195.28125 15.976562 L 300.839844 66.375 L 177.75 324.1875 L 72.1875 273.785156 Z M 195.28125 15.976562 " clip-rule="nonzero"/></clipPath><clipPath id="9561a67a25"><path d="M 195.28125 15.976562 L 300.839844 66.375 L 177.75 324.1875 L 72.1875 273.785156 Z M 195.28125 15.976562 " clip-rule="nonzero"/></clipPath><clipPath id="4e6ea287c0"><path d="M 192 194 L 205 194 L 205 206 L 192 206 Z M 192 194 " clip-rule="nonzero"/></clipPath><clipPath id="766ab75ab9"><path d="M 195.28125 15.976562 L 300.839844 66.375 L 177.75 324.1875 L 72.1875 273.785156 Z M 195.28125 15.976562 " clip-rule="nonzero"/></clipPath><clipPath id="f08c97ad01"><path d="M 195.28125 15.976562 L 300.839844 66.375 L 177.75 324.1875 L 72.1875 273.785156 Z M 195.28125 15.976562 " clip-rule="nonzero"/></clipPath><clipPath id="553d4952e5"><path d="M 195.28125 15.976562 L 300.839844 66.375 L 177.75 324.1875 L 72.1875 273.785156 Z M 195.28125 15.976562 " clip-rule="nonzero"/></clipPath><clipPath id="40addd4c66"><path d="M 163 194 L 183 194 L 183 209 L 163 209 Z M 163 194 " clip-rule="nonzero"/></clipPath><clipPath id="b368653632"><path d="M 195.28125 15.976562 L 300.839844 66.375 L 177.75 324.1875 L 72.1875 273.785156 Z M 195.28125 15.976562 " clip-rule="nonzero"/></clipPath><clipPath id="14d3fbef55"><path d="M 195.28125 15.976562 L 300.839844 66.375 L 177.75 324.1875 L 72.1875 273.785156 Z M 195.28125 15.976562 " clip-rule="nonzero"/></clipPath><clipPath id="a99d87c85b"><path d="M 195.28125 15.976562 L 300.839844 66.375 L 177.75 324.1875 L 72.1875 273.785156 Z M 195.28125 15.976562 " clip-rule="nonzero"/></clipPath><clipPath id="795ca22b5e"><path d="M 160 191 L 186 191 L 186 212 L 160 212 Z M 160 191 " clip-rule="nonzero"/></clipPath><clipPath id="5816ae3ad1"><path d="M 195.28125 15.976562 L 300.839844 66.375 L 177.75 324.1875 L 72.1875 273.785156 Z M 195.28125 15.976562 " clip-rule="nonzero"/></clipPath><clipPath id="3af9213b7d"><path d="M 195.28125 15.976562 L 300.839844 66.375 L 177.75 324.1875 L 72.1875 273.785156 Z M 195.28125 15.976562 " clip-rule="nonzero"/></clipPath><clipPath id="9c4ec8d154"><path d="M 195.28125 15.976562 L 300.839844 66.375 L 177.75 324.1875 L 72.1875 273.785156 Z M 195.28125 15.976562 " clip-rule="nonzero"/></clipPath></defs><g clip-path="url(#d5eeb5be9b)"><g clip-path="url(#9ec7f05d78)"><g clip-path="url(#709e075998)"><g clip-path="url(#f5df5307be)"><path fill="#39834c" d="M 193.644531 98.480469 L 237.429688 119.386719 C 261.945312 106.746094 276.617188 90.871094 273.714844 79.929688 C 272.710938 76.148438 269.15625 70.710938 263.441406 69.257812 C 257.8125 67.832031 251.355469 70.5625 246.703125 76.160156 C 255.082031 65.78125 256.859375 53.617188 251.683594 45.703125 C 250.957031 44.589844 247.917969 39.945312 243.230469 39.378906 C 235.300781 38.417969 225.351562 49.453125 220.320312 68.144531 C 221.28125 56.351562 217.234375 47.394531 211.414062 45.722656 C 205.800781 44.109375 199.867188 49.675781 198.566406 50.882812 C 183.691406 64.652344 192.527344 94.832031 193.644531 98.476562 Z M 193.644531 98.480469 " fill-opacity="1" fill-rule="nonzero"/></g></g></g></g><g clip-path="url(#44d2a97785)"><g clip-path="url(#2a3d1f2cdb)"><g clip-path="url(#ae3765aec1)"><g clip-path="url(#e8b3be7f29)"><path fill="#f97e17" d="M 252.828125 143.226562 C 252.339844 135.988281 250.296875 130.882812 249.847656 129.835938 C 243.839844 115.78125 230.582031 109.445312 218.3125 103.582031 C 206.03125 97.710938 192.730469 91.351562 177.988281 95.523438 C 176.878906 95.839844 171.636719 97.460938 165.703125 101.625 C 145.183594 116.042969 119.683594 160.351562 110.320312 226.671875 C 103.273438 276.601562 112.574219 290.125 120.058594 295.910156 C 121.3125 296.878906 125.058594 299.589844 130.441406 300.867188 C 139.644531 303.050781 156.011719 301.78125 190.40625 264.910156 C 236.09375 215.933594 254.519531 168.242188 252.828125 143.226562 Z M 252.828125 143.226562 " fill-opacity="1" fill-rule="nonzero"/></g></g></g></g><g clip-path="url(#3fc585eb74)"><g clip-path="url(#e416d4b863)"><g clip-path="url(#2ada5dc564)"><g clip-path="url(#f12e5295c2)"><path fill="#231f20" d="M 241.183594 191.125 C 231.234375 213.214844 214.652344 238.863281 190.40625 264.914062 C 156 301.765625 139.632812 303.074219 130.410156 300.867188 C 125.082031 299.589844 121.316406 296.859375 120.03125 295.914062 C 115.636719 292.546875 110.621094 286.425781 108.648438 271.695312 C 111.449219 278.960938 115.265625 282.847656 118.703125 285.421875 C 120.070312 286.472656 124.21875 289.386719 130.003906 290.816406 C 139.988281 293.386719 157.496094 292.621094 193.097656 256.34375 C 215.203125 233.796875 230.957031 211.285156 241.183594 191.125 Z M 241.183594 191.125 " fill-opacity="0.15" fill-rule="nonzero"/></g></g></g></g><g clip-path="url(#fe652dba0d)"><g clip-path="url(#e4d4dba9d4)"><g clip-path="url(#a9e088616b)"><g clip-path="url(#6230fc143e)"><path fill="#e66611" d="M 248.25 172.78125 L 210.058594 154.546875 C 207.777344 153.457031 206.863281 150.757812 207.925781 148.535156 C 209.015625 146.257812 211.660156 145.324219 213.941406 146.410156 L 250.667969 163.945312 C 250.050781 166.78125 249.242188 169.726562 248.25 172.78125 Z M 248.25 172.78125 " fill-opacity="1" fill-rule="nonzero"/></g></g></g></g><g clip-path="url(#ed436d8179)"><g clip-path="url(#85a15aef0d)"><g clip-path="url(#d0c7f7473b)"><g clip-path="url(#c5bb55023f)"><path fill="#e66611" d="M 196.179688 116.550781 C 195.117188 118.773438 192.386719 119.738281 190.160156 118.671875 L 161.421875 104.953125 C 162.878906 103.714844 164.285156 102.589844 165.691406 101.597656 C 167.101562 100.605469 168.511719 99.746094 169.871094 98.996094 L 194.046875 110.539062 C 196.273438 111.601562 197.265625 114.273438 196.179688 116.550781 Z M 196.179688 116.550781 " fill-opacity="1" fill-rule="nonzero"/></g></g></g></g><g clip-path="url(#750ae9df19)"><g clip-path="url(#031541f408)"><g clip-path="url(#71bf94c652)"><g clip-path="url(#4e1b1ee663)"><path fill="#e66611" d="M 159.78125 154.914062 C 158.71875 157.140625 156.046875 158.128906 153.765625 157.039062 L 132.792969 147.023438 C 134.003906 144.207031 135.355469 141.519531 136.734375 138.914062 L 157.648438 148.902344 C 159.929688 149.992188 160.84375 152.691406 159.78125 154.914062 Z M 159.78125 154.914062 " fill-opacity="1" fill-rule="nonzero"/></g></g></g></g><g clip-path="url(#d7d5c0e57e)"><g clip-path="url(#83064b3838)"><g clip-path="url(#62fb87c934)"><g clip-path="url(#ee108e715f)"><path fill="#e66611" d="M 132.890625 283.332031 C 131.832031 285.554688 129.15625 286.542969 126.875 285.453125 L 109.597656 277.203125 C 108.921875 274.152344 108.425781 270.582031 108.160156 266.527344 L 130.757812 277.316406 C 133.042969 278.40625 133.953125 281.105469 132.890625 283.332031 Z M 132.890625 283.332031 " fill-opacity="1" fill-rule="nonzero"/></g></g></g></g><g clip-path="url(#f90e596ad5)"><g clip-path="url(#590446a2ab)"><g clip-path="url(#8a6f2bf00d)"><g clip-path="url(#f228005d0e)"><path fill="#e66611" d="M 207.410156 245.1875 C 205.515625 247.613281 203.515625 249.988281 201.515625 252.363281 L 182.878906 243.464844 C 180.652344 242.402344 179.660156 239.730469 180.746094 237.453125 C 181.808594 235.226562 184.539062 234.265625 186.765625 235.328125 Z M 207.410156 245.1875 " fill-opacity="1" fill-rule="nonzero"/></g></g></g></g><g clip-path="url(#e0438c7d1a)"><g clip-path="url(#6b50d379c8)"><g clip-path="url(#7d7c968355)"><g clip-path="url(#22dc987092)"><path fill="#e66611" d="M 187.410156 268.070312 C 185.0625 270.476562 182.84375 272.75 180.703125 274.859375 L 155.65625 262.898438 C 153.375 261.808594 152.4375 259.164062 153.523438 256.886719 C 154.585938 254.664062 157.257812 253.675781 159.539062 254.765625 Z M 187.410156 268.070312 " fill-opacity="1" fill-rule="nonzero"/></g></g></g></g><g clip-path="url(#8c1c3eead3)"><g clip-path="url(#f329a76988)"><g clip-path="url(#4ce95d1166)"><g clip-path="url(#9561a67a25)"><path fill="#1a1a1a" d="M 161.042969 182.175781 C 160.878906 182.515625 160.683594 182.839844 160.457031 183.144531 C 160.230469 183.445312 159.976562 183.726562 159.695312 183.980469 C 159.410156 184.230469 159.109375 184.457031 158.78125 184.648438 C 158.457031 184.84375 158.113281 185.003906 157.757812 185.128906 C 157.398438 185.253906 157.03125 185.34375 156.65625 185.398438 C 156.28125 185.453125 155.902344 185.46875 155.523438 185.449219 C 155.144531 185.429688 154.773438 185.371094 154.40625 185.277344 C 154.039062 185.183594 153.683594 185.054688 153.339844 184.890625 C 152.996094 184.730469 152.671875 184.535156 152.371094 184.304688 C 152.066406 184.078125 151.785156 183.824219 151.53125 183.542969 C 151.277344 183.261719 151.054688 182.957031 150.859375 182.632812 C 150.667969 182.304688 150.507812 181.964844 150.378906 181.605469 C 150.253906 181.25 150.160156 180.882812 150.105469 180.507812 C 150.050781 180.132812 150.035156 179.753906 150.054688 179.375 C 150.074219 179 150.132812 178.625 150.226562 178.257812 C 150.316406 177.890625 150.445312 177.535156 150.609375 177.195312 C 150.773438 176.851562 150.96875 176.53125 151.195312 176.226562 C 151.421875 175.921875 151.675781 175.644531 151.957031 175.390625 C 152.238281 175.136719 152.542969 174.914062 152.871094 174.722656 C 153.195312 174.527344 153.539062 174.367188 153.894531 174.242188 C 154.253906 174.117188 154.621094 174.023438 154.996094 173.972656 C 155.371094 173.917969 155.746094 173.902344 156.125 173.921875 C 156.503906 173.941406 156.878906 173.996094 157.246094 174.089844 C 157.613281 174.183594 157.96875 174.3125 158.3125 174.476562 C 158.65625 174.640625 158.976562 174.835938 159.28125 175.0625 C 159.585938 175.289062 159.867188 175.546875 160.121094 175.828125 C 160.375 176.109375 160.597656 176.414062 160.792969 176.738281 C 160.984375 177.066406 161.144531 177.40625 161.273438 177.765625 C 161.398438 178.121094 161.488281 178.488281 161.542969 178.863281 C 161.597656 179.238281 161.617188 179.613281 161.597656 179.992188 C 161.578125 180.371094 161.519531 180.746094 161.425781 181.113281 C 161.335938 181.480469 161.207031 181.832031 161.042969 182.175781 Z M 161.042969 182.175781 " fill-opacity="1" fill-rule="nonzero"/></g></g></g></g><g clip-path="url(#4e6ea287c0)"><g clip-path="url(#766ab75ab9)"><g clip-path="url(#f08c97ad01)"><g clip-path="url(#553d4952e5)"><path fill="#1a1a1a" d="M 203.554688 202.472656 C 203.390625 202.816406 203.195312 203.136719 202.96875 203.441406 C 202.742188 203.746094 202.488281 204.023438 202.203125 204.277344 C 201.921875 204.53125 201.621094 204.753906 201.292969 204.945312 C 200.96875 205.140625 200.625 205.300781 200.269531 205.425781 C 199.910156 205.550781 199.542969 205.640625 199.167969 205.695312 C 198.792969 205.75 198.414062 205.765625 198.035156 205.746094 C 197.65625 205.726562 197.285156 205.667969 196.917969 205.574219 C 196.546875 205.480469 196.191406 205.351562 195.851562 205.191406 C 195.507812 205.027344 195.183594 204.832031 194.878906 204.605469 C 194.578125 204.375 194.296875 204.121094 194.042969 203.839844 C 193.789062 203.558594 193.566406 203.253906 193.371094 202.929688 C 193.175781 202.601562 193.015625 202.261719 192.890625 201.902344 C 192.761719 201.546875 192.671875 201.179688 192.617188 200.804688 C 192.5625 200.429688 192.546875 200.050781 192.566406 199.675781 C 192.585938 199.296875 192.640625 198.921875 192.734375 198.554688 C 192.828125 198.1875 192.957031 197.832031 193.121094 197.492188 C 193.285156 197.148438 193.480469 196.828125 193.707031 196.523438 C 193.933594 196.21875 194.1875 195.941406 194.46875 195.6875 C 194.75 195.433594 195.054688 195.210938 195.382812 195.019531 C 195.707031 194.824219 196.050781 194.664062 196.40625 194.539062 C 196.765625 194.414062 197.128906 194.324219 197.507812 194.269531 C 197.882812 194.214844 198.257812 194.199219 198.636719 194.21875 C 199.015625 194.238281 199.390625 194.296875 199.757812 194.390625 C 200.125 194.484375 200.480469 194.609375 200.824219 194.773438 C 201.164062 194.9375 201.488281 195.132812 201.792969 195.359375 C 202.097656 195.585938 202.375 195.84375 202.628906 196.125 C 202.882812 196.40625 203.109375 196.710938 203.300781 197.035156 C 203.496094 197.363281 203.65625 197.703125 203.785156 198.0625 C 203.910156 198.417969 204 198.785156 204.054688 199.160156 C 204.109375 199.535156 204.128906 199.910156 204.109375 200.289062 C 204.089844 200.667969 204.03125 201.042969 203.9375 201.410156 C 203.84375 201.777344 203.71875 202.132812 203.554688 202.472656 Z M 203.554688 202.472656 " fill-opacity="1" fill-rule="nonzero"/></g></g></g></g><g clip-path="url(#40addd4c66)"><g clip-path="url(#b368653632)"><g clip-path="url(#14d3fbef55)"><g clip-path="url(#a99d87c85b)"><path fill="#1a1a1a" d="M 182.652344 202.355469 C 180.652344 207.84375 174.300781 210.363281 169.285156 207.96875 C 164.265625 205.570312 162.234375 199.046875 165.246094 194.046875 Z M 182.652344 202.355469 " fill-opacity="1" fill-rule="nonzero"/></g></g></g></g><g clip-path="url(#795ca22b5e)"><g clip-path="url(#5816ae3ad1)"><g clip-path="url(#3af9213b7d)"><g clip-path="url(#9c4ec8d154)"><path fill="#1a1a1a" d="M 167.988281 210.679688 C 164.828125 209.167969 162.421875 206.328125 161.382812 202.882812 C 160.328125 199.386719 160.796875 195.597656 162.664062 192.492188 C 163.464844 191.167969 165.140625 190.664062 166.539062 191.332031 L 183.945312 199.644531 C 185.34375 200.3125 186.007812 201.929688 185.480469 203.386719 C 184.238281 206.792969 181.585938 209.535156 178.203125 210.914062 C 174.871094 212.273438 171.148438 212.1875 167.988281 210.679688 Z M 166.914062 198.171875 C 166.777344 199.160156 166.851562 200.179688 167.144531 201.160156 C 167.695312 202.984375 168.945312 204.476562 170.578125 205.253906 C 172.210938 206.035156 174.160156 206.066406 175.921875 205.347656 C 176.871094 204.960938 177.710938 204.378906 178.390625 203.652344 Z M 166.914062 198.171875 " fill-opacity="1" fill-rule="nonzero"/></g></g></g></g></svg>