<svg xmlns="http://www.w3.org/2000/svg" xmlns:xlink="http://www.w3.org/1999/xlink" width="480" zoomAndPan="magnify" viewBox="0 0 360 367.91998" height="480" preserveAspectRatio="xMidYMid meet" version="1.0"><defs><clipPath id="652741bf93"><path d="M 40 45.417969 L 320 45.417969 L 320 314.609375 L 40 314.609375 Z M 40 45.417969 " clip-rule="nonzero"/></clipPath></defs><g clip-path="url(#652741bf93)"><path fill="#ff9021" d="M 319.773438 180.015625 C 319.773438 182.21875 319.71875 184.417969 319.605469 186.617188 C 319.492188 188.820312 319.324219 191.015625 319.101562 193.207031 C 318.878906 195.398438 318.597656 197.585938 318.261719 199.765625 C 317.925781 201.941406 317.535156 204.113281 317.085938 206.273438 C 316.640625 208.433594 316.140625 210.582031 315.582031 212.71875 C 315.027344 214.855469 314.417969 216.976562 313.753906 219.085938 C 313.089844 221.195312 312.371094 223.285156 311.597656 225.359375 C 310.828125 227.433594 310.003906 229.488281 309.128906 231.523438 C 308.253906 233.558594 307.324219 235.570312 306.347656 237.5625 C 305.367188 239.554688 304.339844 241.519531 303.261719 243.460938 C 302.179688 245.40625 301.054688 247.320312 299.875 249.210938 C 298.699219 251.101562 297.476562 252.960938 296.203125 254.792969 C 294.933594 256.625 293.613281 258.425781 292.25 260.191406 C 290.886719 261.960938 289.480469 263.699219 288.027344 265.402344 C 286.574219 267.105469 285.082031 268.769531 283.542969 270.402344 C 282.007812 272.035156 280.429688 273.628906 278.808594 275.1875 C 277.191406 276.746094 275.535156 278.265625 273.839844 279.742188 C 272.144531 281.222656 270.410156 282.660156 268.640625 284.058594 C 266.871094 285.457031 265.066406 286.8125 263.230469 288.121094 C 261.390625 289.433594 259.519531 290.703125 257.617188 291.925781 C 255.714844 293.152344 253.78125 294.328125 251.816406 295.460938 C 249.851562 296.59375 247.863281 297.679688 245.84375 298.71875 C 243.824219 299.757812 241.78125 300.746094 239.710938 301.6875 C 237.644531 302.628906 235.550781 303.523438 233.4375 304.363281 C 231.320312 305.207031 229.1875 306 227.03125 306.742188 C 224.875 307.484375 222.703125 308.175781 220.511719 308.816406 C 218.324219 309.453125 216.117188 310.042969 213.898438 310.578125 C 211.675781 311.113281 209.445312 311.59375 207.199219 312.023438 C 204.953125 312.453125 202.699219 312.832031 200.4375 313.152344 C 198.171875 313.476562 195.902344 313.746094 193.621094 313.960938 C 191.34375 314.179688 189.0625 314.339844 186.777344 314.449219 C 184.488281 314.554688 182.203125 314.609375 179.914062 314.609375 C 177.625 314.609375 175.335938 314.554688 173.050781 314.449219 C 170.765625 314.339844 168.484375 314.179688 166.203125 313.960938 C 163.925781 313.746094 161.65625 313.476562 159.390625 313.152344 C 157.128906 312.832031 154.875 312.453125 152.628906 312.023438 C 150.382812 311.59375 148.152344 311.113281 145.929688 310.578125 C 143.710938 310.042969 141.503906 309.453125 139.3125 308.816406 C 137.125 308.175781 134.949219 307.484375 132.796875 306.742188 C 130.640625 306 128.507812 305.207031 126.390625 304.363281 C 124.277344 303.523438 122.183594 302.628906 120.117188 301.6875 C 118.046875 300.746094 116.003906 299.753906 113.984375 298.71875 C 111.964844 297.679688 109.972656 296.59375 108.011719 295.460938 C 106.046875 294.328125 104.113281 293.152344 102.210938 291.925781 C 100.308594 290.703125 98.4375 289.433594 96.597656 288.121094 C 94.761719 286.8125 92.957031 285.457031 91.1875 284.058594 C 89.417969 282.660156 87.683594 281.222656 85.988281 279.742188 C 84.292969 278.265625 82.636719 276.746094 81.015625 275.1875 C 79.398438 273.628906 77.820312 272.035156 76.285156 270.402344 C 74.746094 268.769531 73.25 267.105469 71.800781 265.402344 C 70.347656 263.699219 68.941406 261.960938 67.578125 260.191406 C 66.210938 258.425781 64.894531 256.625 63.625 254.792969 C 62.351562 252.960938 61.128906 251.101562 59.949219 249.210938 C 58.773438 247.320312 57.644531 245.40625 56.566406 243.460938 C 55.488281 241.519531 54.460938 239.554688 53.480469 237.5625 C 52.503906 235.570312 51.574219 233.558594 50.699219 231.523438 C 49.824219 229.488281 49 227.433594 48.226562 225.359375 C 47.457031 223.285156 46.738281 221.195312 46.074219 219.085938 C 45.410156 216.976562 44.800781 214.855469 44.242188 212.71875 C 43.6875 210.582031 43.1875 208.433594 42.738281 206.273438 C 42.292969 204.113281 41.902344 201.941406 41.566406 199.765625 C 41.230469 197.585938 40.949219 195.398438 40.726562 193.207031 C 40.5 191.015625 40.332031 188.820312 40.222656 186.617188 C 40.109375 184.417969 40.050781 182.21875 40.050781 180.015625 C 40.050781 177.8125 40.109375 175.609375 40.222656 173.410156 C 40.332031 171.210938 40.5 169.015625 40.726562 166.820312 C 40.949219 164.628906 41.230469 162.445312 41.566406 160.265625 C 41.902344 158.085938 42.292969 155.917969 42.738281 153.757812 C 43.1875 151.597656 43.6875 149.449219 44.242188 147.3125 C 44.800781 145.175781 45.410156 143.050781 46.074219 140.945312 C 46.738281 138.835938 47.457031 136.746094 48.226562 134.671875 C 49 132.597656 49.824219 130.542969 50.699219 128.507812 C 51.574219 126.472656 52.503906 124.457031 53.480469 122.46875 C 54.460938 120.476562 55.488281 118.507812 56.566406 116.566406 C 57.644531 114.625 58.773438 112.707031 59.949219 110.820312 C 61.128906 108.929688 62.351562 107.070312 63.625 105.238281 C 64.894531 103.40625 66.210938 101.605469 67.578125 99.835938 C 68.941406 98.066406 70.347656 96.332031 71.800781 94.628906 C 73.25 92.925781 74.746094 91.257812 76.285156 89.625 C 77.820312 87.992188 79.398438 86.398438 81.015625 84.839844 C 82.636719 83.285156 84.292969 81.765625 85.988281 80.285156 C 87.683594 78.804688 89.417969 77.367188 91.1875 75.972656 C 92.957031 74.574219 94.761719 73.21875 96.597656 71.90625 C 98.4375 70.59375 100.308594 69.328125 102.210938 68.101562 C 104.113281 66.878906 106.046875 65.699219 108.011719 64.566406 C 109.972656 63.4375 111.964844 62.351562 113.984375 61.3125 C 116.003906 60.273438 118.046875 59.285156 120.117188 58.339844 C 122.183594 57.398438 124.277344 56.507812 126.390625 55.664062 C 128.507812 54.820312 130.640625 54.027344 132.796875 53.285156 C 134.949219 52.542969 137.125 51.855469 139.3125 51.214844 C 141.503906 50.574219 143.710938 49.988281 145.929688 49.453125 C 148.152344 48.917969 150.382812 48.433594 152.628906 48.003906 C 154.875 47.574219 157.128906 47.199219 159.390625 46.875 C 161.65625 46.550781 163.925781 46.28125 166.203125 46.066406 C 168.484375 45.851562 170.765625 45.6875 173.050781 45.582031 C 175.335938 45.472656 177.625 45.417969 179.914062 45.417969 C 182.203125 45.417969 184.488281 45.472656 186.777344 45.582031 C 189.0625 45.6875 191.34375 45.851562 193.621094 46.066406 C 195.902344 46.28125 198.171875 46.550781 200.4375 46.875 C 202.699219 47.199219 204.953125 47.574219 207.199219 48.003906 C 209.445312 48.433594 211.675781 48.917969 213.898438 49.453125 C 216.117188 49.988281 218.324219 50.574219 220.511719 51.214844 C 222.703125 51.855469 224.875 52.542969 227.03125 53.285156 C 229.1875 54.027344 231.320312 54.820312 233.4375 55.664062 C 235.550781 56.507812 237.644531 57.398438 239.710938 58.339844 C 241.78125 59.285156 243.824219 60.273438 245.84375 61.3125 C 247.863281 62.351562 249.851562 63.4375 251.816406 64.566406 C 253.78125 65.699219 255.714844 66.878906 257.617188 68.101562 C 259.519531 69.328125 261.390625 70.59375 263.230469 71.90625 C 265.066406 73.21875 266.871094 74.574219 268.640625 75.972656 C 270.410156 77.367188 272.144531 78.804688 273.839844 80.285156 C 275.535156 81.765625 277.191406 83.285156 278.808594 84.839844 C 280.429688 86.398438 282.007812 87.992188 283.542969 89.625 C 285.082031 91.257812 286.574219 92.925781 288.027344 94.628906 C 289.480469 96.332031 290.886719 98.066406 292.25 99.835938 C 293.613281 101.605469 294.933594 103.40625 296.203125 105.238281 C 297.476562 107.070312 298.699219 108.929688 299.875 110.820312 C 301.054688 112.707031 302.179688 114.625 303.261719 116.566406 C 304.339844 118.507812 305.367188 120.476562 306.347656 122.46875 C 307.324219 124.457031 308.253906 126.472656 309.128906 128.507812 C 310.003906 130.542969 310.828125 132.597656 311.597656 134.671875 C 312.371094 136.746094 313.089844 138.835938 313.753906 140.945312 C 314.417969 143.050781 315.027344 145.175781 315.582031 147.3125 C 316.140625 149.449219 316.640625 151.597656 317.085938 153.757812 C 317.535156 155.917969 317.925781 158.085938 318.261719 160.265625 C 318.597656 162.445312 318.878906 164.628906 319.101562 166.820312 C 319.324219 169.015625 319.492188 171.210938 319.605469 173.410156 C 319.71875 175.609375 319.773438 177.8125 319.773438 180.015625 Z M 319.773438 180.015625 " fill-opacity="1" fill-rule="nonzero"/></g><path fill="#ffb845" d="M 311.972656 180.015625 C 311.972656 182.09375 311.917969 184.171875 311.8125 186.25 C 311.707031 188.328125 311.546875 190.402344 311.335938 192.472656 C 311.125 194.542969 310.859375 196.605469 310.542969 198.664062 C 310.226562 200.722656 309.855469 202.769531 309.433594 204.808594 C 309.011719 206.851562 308.539062 208.878906 308.015625 210.898438 C 307.488281 212.914062 306.914062 214.917969 306.285156 216.910156 C 305.65625 218.898438 304.980469 220.875 304.25 222.832031 C 303.523438 224.789062 302.746094 226.730469 301.917969 228.652344 C 301.09375 230.574219 300.214844 232.476562 299.292969 234.355469 C 298.367188 236.234375 297.398438 238.09375 296.378906 239.925781 C 295.359375 241.761719 294.292969 243.570312 293.183594 245.355469 C 292.070312 247.140625 290.917969 248.894531 289.714844 250.625 C 288.515625 252.355469 287.269531 254.054688 285.984375 255.726562 C 284.695312 257.398438 283.367188 259.035156 281.996094 260.644531 C 280.625 262.25 279.214844 263.828125 277.761719 265.367188 C 276.3125 266.910156 274.820312 268.414062 273.292969 269.886719 C 271.765625 271.355469 270.199219 272.789062 268.597656 274.1875 C 266.996094 275.585938 265.359375 276.941406 263.691406 278.261719 C 262.019531 279.582031 260.316406 280.859375 258.582031 282.101562 C 256.84375 283.339844 255.078125 284.535156 253.28125 285.691406 C 251.484375 286.847656 249.660156 287.960938 247.804688 289.027344 C 245.949219 290.097656 244.070312 291.125 242.164062 292.105469 C 240.257812 293.085938 238.328125 294.019531 236.375 294.910156 C 234.421875 295.796875 232.445312 296.640625 230.449219 297.4375 C 228.453125 298.234375 226.4375 298.980469 224.402344 299.683594 C 222.367188 300.382812 220.316406 301.035156 218.246094 301.640625 C 216.179688 302.242188 214.097656 302.796875 212 303.300781 C 209.90625 303.808594 207.796875 304.261719 205.675781 304.667969 C 203.558594 305.074219 201.429688 305.429688 199.289062 305.734375 C 197.152344 306.042969 195.007812 306.296875 192.859375 306.5 C 190.707031 306.703125 188.550781 306.855469 186.394531 306.957031 C 184.234375 307.058594 182.074219 307.113281 179.914062 307.113281 C 177.753906 307.113281 175.59375 307.058594 173.433594 306.957031 C 171.273438 306.855469 169.121094 306.703125 166.96875 306.5 C 164.820312 306.296875 162.675781 306.042969 160.535156 305.734375 C 158.398438 305.429688 156.269531 305.074219 154.152344 304.667969 C 152.03125 304.261719 149.921875 303.808594 147.828125 303.300781 C 145.730469 302.796875 143.648438 302.242188 141.578125 301.640625 C 139.511719 301.035156 137.460938 300.382812 135.425781 299.683594 C 133.390625 298.980469 131.375 298.234375 129.378906 297.4375 C 127.378906 296.640625 125.40625 295.796875 123.453125 294.910156 C 121.5 294.019531 119.566406 293.085938 117.664062 292.105469 C 115.757812 291.125 113.875 290.097656 112.023438 289.027344 C 110.167969 287.960938 108.34375 286.847656 106.546875 285.691406 C 104.75 284.535156 102.984375 283.339844 101.246094 282.101562 C 99.511719 280.859375 97.808594 279.582031 96.136719 278.261719 C 94.464844 276.941406 92.832031 275.585938 91.230469 274.1875 C 89.628906 272.789062 88.0625 271.355469 86.535156 269.886719 C 85.007812 268.414062 83.515625 266.910156 82.066406 265.367188 C 80.613281 263.828125 79.203125 262.25 77.832031 260.644531 C 76.460938 259.035156 75.132812 257.398438 73.84375 255.726562 C 72.554688 254.054688 71.3125 252.355469 70.113281 250.625 C 68.910156 248.894531 67.753906 247.140625 66.644531 245.355469 C 65.53125 243.570312 64.46875 241.761719 63.449219 239.925781 C 62.429688 238.09375 61.460938 236.234375 60.535156 234.355469 C 59.609375 232.476562 58.734375 230.574219 57.910156 228.652344 C 57.082031 226.730469 56.304688 224.789062 55.574219 222.832031 C 54.847656 220.875 54.167969 218.898438 53.542969 216.910156 C 52.914062 214.917969 52.339844 212.914062 51.8125 210.898438 C 51.289062 208.878906 50.816406 206.851562 50.394531 204.808594 C 49.972656 202.769531 49.601562 200.722656 49.285156 198.664062 C 48.96875 196.605469 48.703125 194.542969 48.492188 192.472656 C 48.28125 190.402344 48.121094 188.328125 48.015625 186.25 C 47.910156 184.171875 47.855469 182.09375 47.855469 180.015625 C 47.855469 177.933594 47.910156 175.855469 48.015625 173.777344 C 48.121094 171.699219 48.28125 169.628906 48.492188 167.558594 C 48.703125 165.488281 48.96875 163.421875 49.285156 161.367188 C 49.601562 159.308594 49.972656 157.257812 50.394531 155.21875 C 50.816406 153.179688 51.289062 151.148438 51.8125 149.132812 C 52.339844 147.113281 52.914062 145.109375 53.542969 143.121094 C 54.167969 141.128906 54.847656 139.15625 55.574219 137.195312 C 56.304688 135.238281 57.082031 133.296875 57.910156 131.375 C 58.734375 129.457031 59.609375 127.554688 60.535156 125.671875 C 61.460938 123.792969 62.429688 121.9375 63.449219 120.101562 C 64.46875 118.265625 65.53125 116.457031 66.644531 114.675781 C 67.753906 112.890625 68.910156 111.132812 70.113281 109.402344 C 71.3125 107.675781 72.554688 105.972656 73.84375 104.304688 C 75.132812 102.632812 76.460938 100.992188 77.832031 99.386719 C 79.203125 97.777344 80.613281 96.203125 82.066406 94.660156 C 83.515625 93.121094 85.007812 91.613281 86.535156 90.144531 C 88.0625 88.671875 89.628906 87.238281 91.230469 85.84375 C 92.832031 84.445312 94.464844 83.085938 96.136719 81.765625 C 97.808594 80.449219 99.511719 79.167969 101.246094 77.929688 C 102.984375 76.691406 104.75 75.492188 106.546875 74.335938 C 108.34375 73.183594 110.167969 72.070312 112.023438 71 C 113.875 69.929688 115.757812 68.90625 117.664062 67.925781 C 119.566406 66.945312 121.5 66.011719 123.453125 65.121094 C 125.40625 64.230469 127.378906 63.386719 129.378906 62.59375 C 131.375 61.796875 133.390625 61.046875 135.425781 60.347656 C 137.460938 59.648438 139.511719 58.996094 141.578125 58.390625 C 143.648438 57.785156 145.730469 57.230469 147.828125 56.726562 C 149.921875 56.222656 152.03125 55.765625 154.152344 55.359375 C 156.269531 54.953125 158.398438 54.597656 160.535156 54.292969 C 162.675781 53.988281 164.820312 53.734375 166.96875 53.53125 C 169.121094 53.324219 171.273438 53.171875 173.433594 53.070312 C 175.59375 52.96875 177.753906 52.917969 179.914062 52.917969 C 182.074219 52.917969 184.234375 52.96875 186.394531 53.070312 C 188.550781 53.171875 190.707031 53.324219 192.859375 53.53125 C 195.007812 53.734375 197.152344 53.988281 199.289062 54.292969 C 201.429688 54.597656 203.558594 54.953125 205.675781 55.359375 C 207.796875 55.765625 209.90625 56.222656 212 56.726562 C 214.097656 57.230469 216.179688 57.785156 218.246094 58.390625 C 220.316406 58.996094 222.367188 59.648438 224.402344 60.347656 C 226.4375 61.046875 228.453125 61.796875 230.449219 62.59375 C 232.445312 63.386719 234.421875 64.230469 236.375 65.121094 C 238.328125 66.011719 240.257812 66.945312 242.164062 67.925781 C 244.070312 68.90625 245.949219 69.929688 247.804688 71 C 249.660156 72.070312 251.484375 73.183594 253.28125 74.335938 C 255.078125 75.492188 256.84375 76.691406 258.582031 77.929688 C 260.316406 79.167969 262.019531 80.449219 263.691406 81.765625 C 265.359375 83.085938 266.996094 84.445312 268.597656 85.84375 C 270.199219 87.238281 271.765625 88.671875 273.292969 90.144531 C 274.820312 91.613281 276.3125 93.121094 277.761719 94.660156 C 279.214844 96.203125 280.625 97.777344 281.996094 99.386719 C 283.367188 100.992188 284.695312 102.632812 285.984375 104.304688 C 287.269531 105.972656 288.515625 107.675781 289.714844 109.402344 C 290.917969 111.132812 292.070312 112.890625 293.183594 114.675781 C 294.292969 116.457031 295.359375 118.265625 296.378906 120.101562 C 297.398438 121.9375 298.367188 123.792969 299.292969 125.671875 C 300.214844 127.554688 301.09375 129.457031 301.917969 131.375 C 302.746094 133.296875 303.523438 135.238281 304.25 137.195312 C 304.980469 139.15625 305.65625 141.128906 306.285156 143.121094 C 306.914062 145.109375 307.488281 147.113281 308.015625 149.132812 C 308.539062 151.148438 309.011719 153.179688 309.433594 155.21875 C 309.855469 157.257812 310.226562 159.308594 310.542969 161.367188 C 310.859375 163.421875 311.125 165.488281 311.335938 167.558594 C 311.546875 169.628906 311.707031 171.699219 311.8125 173.777344 C 311.917969 175.855469 311.972656 177.933594 311.972656 180.015625 Z M 311.972656 180.015625 " fill-opacity="1" fill-rule="nonzero"/><path fill="#ffdb6e" d="M 296.75 179.414062 C 296.75 181.3125 296.703125 183.207031 296.605469 185.101562 C 296.511719 187 296.371094 188.890625 296.183594 190.777344 C 295.992188 192.667969 295.757812 194.550781 295.476562 196.425781 C 295.191406 198.304688 294.863281 200.171875 294.488281 202.035156 C 294.113281 203.894531 293.691406 205.746094 293.222656 207.585938 C 292.753906 209.425781 292.242188 211.253906 291.683594 213.070312 C 291.125 214.886719 290.519531 216.6875 289.871094 218.472656 C 289.222656 220.261719 288.53125 222.03125 287.792969 223.785156 C 287.054688 225.535156 286.277344 227.269531 285.453125 228.988281 C 284.628906 230.703125 283.765625 232.394531 282.855469 234.070312 C 281.949219 235.742188 281 237.394531 280.011719 239.019531 C 279.019531 240.648438 277.992188 242.25 276.921875 243.828125 C 275.851562 245.40625 274.742188 246.957031 273.597656 248.480469 C 272.449219 250.007812 271.265625 251.5 270.042969 252.96875 C 268.820312 254.433594 267.5625 255.871094 266.269531 257.277344 C 264.976562 258.683594 263.652344 260.058594 262.289062 261.398438 C 260.929688 262.742188 259.535156 264.046875 258.105469 265.324219 C 256.679688 266.597656 255.222656 267.835938 253.734375 269.039062 C 252.246094 270.242188 250.730469 271.410156 249.183594 272.542969 C 247.636719 273.671875 246.0625 274.765625 244.460938 275.816406 C 242.859375 276.871094 241.234375 277.886719 239.582031 278.863281 C 237.929688 279.839844 236.257812 280.773438 234.558594 281.667969 C 232.859375 282.5625 231.140625 283.414062 229.398438 284.226562 C 227.660156 285.039062 225.898438 285.804688 224.121094 286.53125 C 222.339844 287.257812 220.546875 287.941406 218.734375 288.582031 C 216.921875 289.21875 215.09375 289.816406 213.25 290.367188 C 211.40625 290.917969 209.550781 291.421875 207.683594 291.882812 C 205.816406 292.34375 203.9375 292.761719 202.050781 293.128906 C 200.160156 293.5 198.265625 293.824219 196.359375 294.101562 C 194.457031 294.382812 192.546875 294.613281 190.628906 294.800781 C 188.714844 294.984375 186.792969 295.125 184.871094 295.21875 C 182.945312 295.3125 181.023438 295.359375 179.097656 295.359375 C 177.171875 295.359375 175.246094 295.3125 173.324219 295.21875 C 171.402344 295.125 169.480469 294.984375 167.566406 294.800781 C 165.648438 294.613281 163.738281 294.382812 161.835938 294.101562 C 159.929688 293.824219 158.03125 293.5 156.144531 293.128906 C 154.257812 292.761719 152.378906 292.34375 150.511719 291.882812 C 148.644531 291.421875 146.789062 290.917969 144.945312 290.367188 C 143.101562 289.816406 141.273438 289.21875 139.460938 288.582031 C 137.648438 287.941406 135.851562 287.257812 134.074219 286.53125 C 132.296875 285.804688 130.535156 285.039062 128.792969 284.226562 C 127.054688 283.414062 125.335938 282.5625 123.636719 281.667969 C 121.9375 280.773438 120.265625 279.839844 118.613281 278.863281 C 116.960938 277.886719 115.335938 276.871094 113.734375 275.816406 C 112.132812 274.765625 110.558594 273.671875 109.011719 272.542969 C 107.464844 271.410156 105.949219 270.242188 104.460938 269.039062 C 102.972656 267.835938 101.515625 266.597656 100.085938 265.324219 C 98.660156 264.046875 97.265625 262.742188 95.90625 261.398438 C 94.542969 260.058594 93.214844 258.683594 91.921875 257.277344 C 90.628906 255.871094 89.375 254.433594 88.152344 252.96875 C 86.929688 251.5 85.746094 250.007812 84.597656 248.480469 C 83.453125 246.957031 82.34375 245.40625 81.273438 243.828125 C 80.203125 242.25 79.175781 240.648438 78.183594 239.019531 C 77.195312 237.394531 76.246094 235.742188 75.339844 234.070312 C 74.429688 232.394531 73.566406 230.703125 72.742188 228.988281 C 71.917969 227.269531 71.136719 225.535156 70.402344 223.785156 C 69.664062 222.03125 68.972656 220.261719 68.324219 218.472656 C 67.675781 216.6875 67.070312 214.886719 66.511719 213.070312 C 65.953125 211.253906 65.441406 209.425781 64.972656 207.585938 C 64.503906 205.746094 64.082031 203.894531 63.707031 202.035156 C 63.332031 200.171875 63 198.304688 62.71875 196.425781 C 62.4375 194.550781 62.203125 192.667969 62.011719 190.777344 C 61.824219 188.890625 61.683594 187 61.585938 185.101562 C 61.492188 183.207031 61.445312 181.3125 61.445312 179.414062 C 61.445312 177.515625 61.492188 175.621094 61.585938 173.726562 C 61.683594 171.828125 61.824219 169.9375 62.011719 168.050781 C 62.203125 166.160156 62.4375 164.277344 62.71875 162.402344 C 63 160.523438 63.332031 158.65625 63.707031 156.792969 C 64.082031 154.933594 64.503906 153.082031 64.972656 151.242188 C 65.441406 149.402344 65.953125 147.574219 66.511719 145.757812 C 67.070312 143.941406 67.675781 142.140625 68.324219 140.351562 C 68.972656 138.566406 69.664062 136.796875 70.402344 135.042969 C 71.136719 133.289062 71.917969 131.554688 72.742188 129.839844 C 73.566406 128.125 74.429688 126.429688 75.339844 124.757812 C 76.246094 123.085938 77.195312 121.433594 78.183594 119.804688 C 79.175781 118.179688 80.203125 116.574219 81.273438 115 C 82.34375 113.421875 83.453125 111.871094 84.597656 110.34375 C 85.746094 108.820312 86.929688 107.324219 88.152344 105.859375 C 89.375 104.390625 90.628906 102.957031 91.921875 101.550781 C 93.214844 100.144531 94.542969 98.769531 95.90625 97.429688 C 97.265625 96.085938 98.660156 94.777344 100.085938 93.503906 C 101.515625 92.230469 102.972656 90.992188 104.460938 89.789062 C 105.949219 88.582031 107.464844 87.417969 109.011719 86.285156 C 110.558594 85.15625 112.132812 84.0625 113.734375 83.007812 C 115.335938 81.957031 116.960938 80.941406 118.613281 79.964844 C 120.265625 78.988281 121.9375 78.054688 123.636719 77.160156 C 125.335938 76.265625 127.054688 75.414062 128.796875 74.601562 C 130.535156 73.789062 132.296875 73.019531 134.074219 72.296875 C 135.851562 71.570312 137.648438 70.886719 139.460938 70.246094 C 141.273438 69.609375 143.101562 69.011719 144.945312 68.460938 C 146.789062 67.910156 148.644531 67.40625 150.511719 66.945312 C 152.378906 66.484375 154.257812 66.066406 156.144531 65.695312 C 158.03125 65.328125 159.929688 65.003906 161.835938 64.722656 C 163.738281 64.445312 165.648438 64.214844 167.566406 64.027344 C 169.480469 63.839844 171.402344 63.703125 173.324219 63.609375 C 175.246094 63.515625 177.171875 63.46875 179.097656 63.46875 C 181.023438 63.46875 182.945312 63.515625 184.871094 63.609375 C 186.792969 63.703125 188.714844 63.839844 190.628906 64.027344 C 192.546875 64.214844 194.457031 64.445312 196.359375 64.722656 C 198.265625 65.003906 200.160156 65.328125 202.050781 65.695312 C 203.9375 66.066406 205.816406 66.484375 207.683594 66.945312 C 209.550781 67.40625 211.40625 67.910156 213.25 68.460938 C 215.09375 69.011719 216.921875 69.609375 218.734375 70.246094 C 220.546875 70.886719 222.339844 71.570312 224.121094 72.296875 C 225.898438 73.019531 227.660156 73.789062 229.398438 74.601562 C 231.140625 75.414062 232.859375 76.265625 234.558594 77.160156 C 236.257812 78.054688 237.929688 78.988281 239.582031 79.964844 C 241.234375 80.941406 242.859375 81.957031 244.460938 83.007812 C 246.0625 84.0625 247.636719 85.15625 249.183594 86.285156 C 250.730469 87.417969 252.246094 88.582031 253.734375 89.789062 C 255.222656 90.992188 256.679688 92.230469 258.105469 93.503906 C 259.535156 94.777344 260.929688 96.085938 262.289062 97.429688 C 263.652344 98.769531 264.976562 100.144531 266.269531 101.550781 C 267.5625 102.957031 268.820312 104.390625 270.042969 105.859375 C 271.265625 107.324219 272.449219 108.820312 273.597656 110.34375 C 274.742188 111.871094 275.851562 113.421875 276.921875 115 C 277.992188 116.574219 279.019531 118.179688 280.011719 119.804688 C 281 121.433594 281.949219 123.085938 282.855469 124.757812 C 283.765625 126.429688 284.628906 128.125 285.453125 129.839844 C 286.277344 131.554688 287.054688 133.289062 287.792969 135.042969 C 288.53125 136.796875 289.222656 138.566406 289.871094 140.351562 C 290.519531 142.140625 291.125 143.941406 291.683594 145.757812 C 292.242188 147.574219 292.753906 149.402344 293.222656 151.242188 C 293.691406 153.082031 294.113281 154.933594 294.488281 156.792969 C 294.863281 158.65625 295.191406 160.523438 295.476562 162.402344 C 295.757812 164.277344 295.992188 166.160156 296.183594 168.050781 C 296.371094 169.9375 296.511719 171.828125 296.605469 173.726562 C 296.703125 175.621094 296.75 177.515625 296.75 179.414062 Z M 296.75 179.414062 " fill-opacity="1" fill-rule="nonzero"/><path fill="#ffb845" d="M 180.707031 195.636719 C 194.488281 211.1875 208.34375 249.714844 213.046875 270 C 213.9375 273.871094 211.945312 277.835938 208.460938 279.757812 C 194.222656 287.621094 165.988281 286.945312 149.011719 280.265625 C 146.585938 279.304688 144.617188 276.875 144.976562 274.28125 C 148.195312 251.878906 160.175781 216.8125 175.28125 195.855469 C 176.550781 194.097656 179.265625 193.980469 180.707031 195.613281 Z M 180.707031 195.636719 " fill-opacity="1" fill-rule="nonzero"/><path fill="#ffb845" d="M 166.394531 189.21875 C 159.839844 208.953125 133.429688 240.222656 118.230469 254.449219 C 115.324219 257.167969 110.90625 257.40625 107.5 255.339844 C 93.570312 246.902344 80.03125 222.125 77.339844 204.074219 C 76.957031 201.476562 78.0625 198.570312 80.484375 197.585938 C 101.472656 189.148438 137.800781 182.035156 163.464844 184.628906 C 165.628906 184.847656 167.066406 187.152344 166.394531 189.21875 Z M 166.394531 189.21875 " fill-opacity="1" fill-rule="nonzero"/><path fill="#ffb845" d="M 164.789062 173.597656 C 144.449219 177.78125 104.183594 170.519531 84.28125 164.441406 C 80.484375 163.285156 78.0625 159.5625 78.132812 155.59375 C 78.46875 139.324219 93.140625 115.167969 107.402344 103.800781 C 109.441406 102.164062 112.539062 101.683594 114.582031 103.296875 C 132.371094 117.285156 156.695312 145.1875 167.285156 168.765625 C 168.171875 170.738281 166.898438 173.164062 164.789062 173.597656 Z M 164.789062 173.597656 " fill-opacity="1" fill-rule="nonzero"/><path fill="#ffb845" d="M 177.511719 164.390625 C 163.730469 148.839844 149.875 110.3125 145.171875 90.027344 C 144.28125 86.15625 146.273438 82.191406 149.757812 80.269531 C 163.996094 72.410156 192.230469 73.082031 209.207031 79.765625 C 211.632812 80.726562 213.601562 83.152344 213.242188 85.75 C 210.023438 108.148438 198.042969 143.21875 182.9375 164.175781 C 181.667969 165.929688 178.953125 166.050781 177.511719 164.414062 Z M 177.511719 164.390625 " fill-opacity="1" fill-rule="nonzero"/><path fill="#ffb845" d="M 191.824219 170.808594 C 198.378906 151.078125 224.789062 119.808594 239.988281 105.578125 C 242.894531 102.863281 247.3125 102.621094 250.71875 104.6875 C 264.648438 113.125 278.1875 137.90625 280.878906 155.957031 C 281.261719 158.550781 280.15625 161.460938 277.734375 162.445312 C 256.746094 170.882812 220.417969 177.996094 194.753906 175.398438 C 192.589844 175.183594 191.152344 172.875 191.824219 170.808594 Z M 191.824219 170.808594 " fill-opacity="1" fill-rule="nonzero"/><path fill="#ffb845" d="M 193.429688 186.433594 C 213.769531 182.25 254.035156 189.507812 273.9375 195.589844 C 277.734375 196.742188 280.15625 200.46875 280.085938 204.433594 C 279.75 220.707031 265.078125 244.859375 250.816406 256.230469 C 248.777344 257.863281 245.679688 258.34375 243.636719 256.734375 C 225.847656 242.746094 201.523438 214.839844 190.933594 191.261719 C 190.046875 189.292969 191.320312 186.863281 193.429688 186.433594 Z M 193.429688 186.433594 " fill-opacity="1" fill-rule="nonzero"/><path fill="#524327" d="M 137.34375 192.992188 C 137.34375 193.515625 137.316406 194.035156 137.265625 194.554688 C 137.214844 195.074219 137.140625 195.589844 137.039062 196.101562 C 136.933594 196.613281 136.808594 197.121094 136.65625 197.621094 C 136.507812 198.117188 136.332031 198.609375 136.132812 199.089844 C 135.933594 199.574219 135.710938 200.046875 135.464844 200.503906 C 135.21875 200.964844 134.949219 201.414062 134.660156 201.847656 C 134.371094 202.28125 134.058594 202.699219 133.730469 203.101562 C 133.398438 203.507812 133.050781 203.890625 132.679688 204.261719 C 132.3125 204.628906 131.925781 204.980469 131.523438 205.3125 C 131.121094 205.644531 130.703125 205.953125 130.269531 206.242188 C 129.835938 206.53125 129.386719 206.800781 128.929688 207.046875 C 128.46875 207.292969 127.996094 207.515625 127.515625 207.714844 C 127.035156 207.914062 126.542969 208.089844 126.046875 208.242188 C 125.546875 208.394531 125.042969 208.519531 124.53125 208.621094 C 124.019531 208.722656 123.503906 208.800781 122.984375 208.851562 C 122.464844 208.902344 121.945312 208.929688 121.425781 208.929688 C 120.902344 208.929688 120.382812 208.902344 119.863281 208.851562 C 119.34375 208.800781 118.828125 208.722656 118.320312 208.621094 C 117.808594 208.519531 117.300781 208.394531 116.804688 208.242188 C 116.304688 208.089844 115.8125 207.914062 115.332031 207.714844 C 114.851562 207.515625 114.378906 207.292969 113.921875 207.046875 C 113.460938 206.800781 113.011719 206.53125 112.582031 206.242188 C 112.148438 205.953125 111.726562 205.644531 111.324219 205.3125 C 110.921875 204.980469 110.535156 204.628906 110.167969 204.261719 C 109.800781 203.890625 109.449219 203.507812 109.117188 203.101562 C 108.789062 202.699219 108.476562 202.28125 108.1875 201.847656 C 107.898438 201.414062 107.628906 200.964844 107.386719 200.503906 C 107.140625 200.046875 106.917969 199.574219 106.71875 199.089844 C 106.515625 198.609375 106.34375 198.117188 106.191406 197.621094 C 106.039062 197.121094 105.914062 196.613281 105.8125 196.101562 C 105.710938 195.589844 105.632812 195.074219 105.582031 194.554688 C 105.53125 194.035156 105.503906 193.515625 105.503906 192.992188 C 105.503906 192.472656 105.53125 191.949219 105.582031 191.429688 C 105.632812 190.914062 105.710938 190.398438 105.8125 189.882812 C 105.914062 189.371094 106.039062 188.867188 106.191406 188.367188 C 106.34375 187.867188 106.515625 187.378906 106.71875 186.894531 C 106.917969 186.414062 107.140625 185.941406 107.386719 185.480469 C 107.628906 185.023438 107.898438 184.574219 108.1875 184.140625 C 108.476562 183.707031 108.789062 183.289062 109.117188 182.882812 C 109.449219 182.480469 109.800781 182.09375 110.167969 181.726562 C 110.535156 181.355469 110.921875 181.007812 111.324219 180.675781 C 111.726562 180.34375 112.148438 180.035156 112.582031 179.742188 C 113.011719 179.453125 113.460938 179.1875 113.921875 178.941406 C 114.378906 178.695312 114.851562 178.472656 115.332031 178.269531 C 115.8125 178.070312 116.304688 177.894531 116.804688 177.746094 C 117.300781 177.59375 117.808594 177.464844 118.320312 177.363281 C 118.828125 177.261719 119.34375 177.1875 119.863281 177.136719 C 120.382812 177.082031 120.902344 177.058594 121.425781 177.058594 C 121.945312 177.058594 122.464844 177.082031 122.984375 177.136719 C 123.503906 177.1875 124.019531 177.261719 124.53125 177.363281 C 125.042969 177.464844 125.546875 177.59375 126.046875 177.746094 C 126.542969 177.894531 127.035156 178.070312 127.515625 178.269531 C 127.996094 178.472656 128.46875 178.695312 128.929688 178.941406 C 129.386719 179.1875 129.835938 179.453125 130.269531 179.742188 C 130.703125 180.035156 131.121094 180.34375 131.523438 180.675781 C 131.925781 181.007812 132.3125 181.355469 132.679688 181.726562 C 133.050781 182.09375 133.398438 182.480469 133.730469 182.882812 C 134.058594 183.289062 134.371094 183.707031 134.660156 184.140625 C 134.949219 184.574219 135.21875 185.019531 135.464844 185.480469 C 135.710938 185.941406 135.933594 186.414062 136.132812 186.894531 C 136.332031 187.378906 136.507812 187.867188 136.65625 188.367188 C 136.808594 188.867188 136.933594 189.371094 137.039062 189.882812 C 137.140625 190.398438 137.214844 190.914062 137.265625 191.429688 C 137.316406 191.949219 137.34375 192.472656 137.34375 192.992188 Z M 137.34375 192.992188 " fill-opacity="1" fill-rule="nonzero"/><path fill="#524327" d="M 253.699219 189.101562 C 253.699219 189.621094 253.671875 190.140625 253.621094 190.660156 C 253.570312 191.179688 253.492188 191.695312 253.390625 192.207031 C 253.289062 192.71875 253.164062 193.226562 253.011719 193.726562 C 252.859375 194.226562 252.6875 194.714844 252.484375 195.199219 C 252.285156 195.679688 252.0625 196.152344 251.816406 196.613281 C 251.574219 197.070312 251.304688 197.519531 251.015625 197.953125 C 250.726562 198.386719 250.414062 198.804688 250.085938 199.210938 C 249.753906 199.613281 249.402344 200 249.035156 200.367188 C 248.667969 200.738281 248.28125 201.085938 247.878906 201.417969 C 247.476562 201.75 247.054688 202.058594 246.625 202.347656 C 246.191406 202.640625 245.742188 202.90625 245.28125 203.152344 C 244.824219 203.398438 244.351562 203.621094 243.871094 203.820312 C 243.390625 204.023438 242.898438 204.199219 242.398438 204.347656 C 241.902344 204.5 241.394531 204.628906 240.882812 204.730469 C 240.375 204.832031 239.859375 204.90625 239.339844 204.957031 C 238.820312 205.007812 238.300781 205.035156 237.777344 205.035156 C 237.257812 205.035156 236.738281 205.007812 236.21875 204.957031 C 235.699219 204.90625 235.183594 204.832031 234.671875 204.730469 C 234.160156 204.628906 233.65625 204.5 233.15625 204.347656 C 232.660156 204.199219 232.167969 204.023438 231.6875 203.820312 C 231.207031 203.621094 230.734375 203.398438 230.273438 203.152344 C 229.816406 202.90625 229.367188 202.640625 228.933594 202.347656 C 228.5 202.058594 228.082031 201.75 227.679688 201.417969 C 227.277344 201.085938 226.890625 200.738281 226.523438 200.367188 C 226.152344 200 225.804688 199.613281 225.472656 199.210938 C 225.144531 198.804688 224.832031 198.386719 224.542969 197.953125 C 224.253906 197.519531 223.984375 197.070312 223.738281 196.613281 C 223.492188 196.152344 223.269531 195.679688 223.070312 195.199219 C 222.871094 194.714844 222.695312 194.226562 222.546875 193.726562 C 222.394531 193.226562 222.269531 192.71875 222.164062 192.207031 C 222.0625 191.695312 221.988281 191.179688 221.9375 190.660156 C 221.886719 190.140625 221.859375 189.621094 221.859375 189.101562 C 221.859375 188.578125 221.886719 188.058594 221.9375 187.539062 C 221.988281 187.019531 222.0625 186.503906 222.164062 185.992188 C 222.269531 185.480469 222.394531 184.972656 222.546875 184.472656 C 222.695312 183.976562 222.871094 183.484375 223.070312 183 C 223.269531 182.519531 223.492188 182.046875 223.738281 181.589844 C 223.984375 181.128906 224.253906 180.679688 224.542969 180.246094 C 224.832031 179.8125 225.144531 179.394531 225.472656 178.992188 C 225.804688 178.585938 226.152344 178.199219 226.523438 177.832031 C 226.890625 177.464844 227.277344 177.113281 227.679688 176.78125 C 228.082031 176.449219 228.5 176.140625 228.933594 175.851562 C 229.367188 175.558594 229.816406 175.292969 230.273438 175.046875 C 230.734375 174.800781 231.207031 174.578125 231.6875 174.378906 C 232.167969 174.179688 232.660156 174.003906 233.15625 173.851562 C 233.65625 173.699219 234.160156 173.574219 234.671875 173.472656 C 235.183594 173.367188 235.699219 173.292969 236.21875 173.242188 C 236.738281 173.191406 237.257812 173.164062 237.777344 173.164062 C 238.300781 173.164062 238.820312 173.191406 239.339844 173.242188 C 239.859375 173.292969 240.375 173.367188 240.882812 173.472656 C 241.394531 173.574219 241.902344 173.699219 242.398438 173.851562 C 242.898438 174.003906 243.390625 174.179688 243.871094 174.378906 C 244.351562 174.578125 244.824219 174.800781 245.28125 175.046875 C 245.742188 175.292969 246.191406 175.558594 246.625 175.851562 C 247.054688 176.140625 247.476562 176.449219 247.878906 176.78125 C 248.28125 177.113281 248.667969 177.464844 249.035156 177.832031 C 249.402344 178.199219 249.753906 178.585938 250.085938 178.992188 C 250.414062 179.394531 250.726562 179.8125 251.015625 180.246094 C 251.304688 180.679688 251.574219 181.128906 251.816406 181.589844 C 252.0625 182.046875 252.285156 182.519531 252.484375 183 C 252.6875 183.484375 252.859375 183.976562 253.011719 184.472656 C 253.164062 184.972656 253.289062 185.480469 253.390625 185.992188 C 253.492188 186.503906 253.570312 187.019531 253.621094 187.539062 C 253.671875 188.058594 253.699219 188.578125 253.699219 189.101562 Z M 253.699219 189.101562 " fill-opacity="1" fill-rule="nonzero"/><path fill="#524327" d="M 179.265625 210.203125 C 174.945312 210.203125 170.644531 209.265625 166.828125 207.367188 C 158.28125 203.113281 152.398438 194.050781 152.207031 184.796875 C 152.207031 184.078125 152.757812 183.5 153.476562 183.476562 C 154.199219 183.5 154.773438 184.027344 154.796875 184.75 C 154.992188 193.042969 160.273438 201.214844 167.980469 205.058594 C 175.710938 208.90625 185.796875 208.398438 193.046875 203.761719 C 200.273438 199.148438 204.621094 190.492188 203.851562 182.226562 C 203.78125 181.503906 204.308594 180.878906 205.027344 180.808594 C 205.726562 180.757812 206.375 181.265625 206.445312 181.984375 C 207.285156 191.191406 202.484375 200.828125 194.464844 205.949219 C 190.046875 208.785156 184.667969 210.226562 179.289062 210.226562 Z M 179.265625 210.203125 " fill-opacity="1" fill-rule="nonzero"/></svg>