<svg xmlns="http://www.w3.org/2000/svg" xmlns:xlink="http://www.w3.org/1999/xlink" width="480" zoomAndPan="magnify" viewBox="0 0 360 367.91998" height="480" preserveAspectRatio="xMidYMid meet" version="1.0"><defs><clipPath id="a0a29e9a8b"><path d="M 107 45.171875 L 246 45.171875 L 246 155 L 107 155 Z M 107 45.171875 " clip-rule="nonzero"/></clipPath></defs><path fill="#428535" d="M 137.621094 120.964844 C 127.671875 102.140625 125.472656 79.367188 131.628906 58.984375 C 142.378906 63.84375 151.230469 72.277344 158.023438 81.914062 C 164.8125 91.546875 169.726562 102.402344 174.097656 113.347656 C 177.132812 88.03125 196.242188 65.382812 220.664062 58.167969 C 227.097656 81.003906 224.28125 106.289062 212.886719 127.671875 C 201.121094 132.066406 189.15625 136.507812 176.640625 137.449219 C 164.121094 138.386719 146.703125 138.1875 137.605469 120.949219 Z M 137.621094 120.964844 " fill-opacity="1" fill-rule="nonzero"/><g clip-path="url(#a0a29e9a8b)"><path fill="#acc955" d="M 135.308594 151.109375 C 115 134.195312 104.222656 107.96875 108.226562 82.636719 C 131.539062 90.070312 149.984375 109.339844 156.820312 131.527344 C 146.628906 101.957031 155.203125 67.542969 182.273438 45.171875 C 198.566406 71.644531 202.183594 104.515625 192.621094 133.730469 C 198.058594 111.035156 219.921875 92.550781 245.316406 89.882812 C 246.960938 115.429688 231.796875 141.300781 206.21875 154.640625 C 182.503906 150.738281 158.097656 150.492188 135.308594 151.109375 Z M 135.308594 151.109375 " fill-opacity="1" fill-rule="nonzero"/></g><path fill="#428535" d="M 171.648438 140.871094 C 170.371094 121.875 172.035156 102.679688 176.578125 84.179688 C 173.898438 103.144531 173.050781 122.371094 174.019531 141.503906 C 173.113281 141.457031 172.203125 141.394531 171.648438 140.871094 Z M 171.648438 140.871094 " fill-opacity="1" fill-rule="nonzero"/><path fill="#428535" d="M 199.953125 146.066406 C 209.667969 133.65625 219.382812 121.242188 229.101562 108.832031 C 221.140625 122.414062 212.347656 135.503906 202.753906 147.980469 C 201.84375 147.160156 200.367188 147.039062 199.9375 146.050781 Z M 199.953125 146.066406 " fill-opacity="1" fill-rule="nonzero"/><path fill="#428535" d="M 145.394531 145.402344 C 135.878906 133.761719 128.011719 120.765625 122.128906 106.921875 C 129.78125 119.222656 137.464844 131.574219 146.90625 142.550781 C 146.257812 143.261719 145.597656 143.984375 145.394531 145.402344 Z M 145.394531 145.402344 " fill-opacity="1" fill-rule="nonzero"/><path fill="#ff9021" d="M 245.621094 263.921875 C 237.660156 280.820312 221.078125 292.628906 203.167969 297.84375 C 185.246094 303.054688 166.074219 302.265625 147.707031 299.027344 C 133.632812 296.53125 119.1875 292.277344 108.964844 282.285156 C 102.574219 276.027344 98.246094 267.871094 95.519531 259.34375 C 89.378906 240.070312 91.085938 219.070312 96 199.460938 C 97.167969 194.789062 98.570312 190.101562 100.234375 185.523438 C 100.234375 185.492188 100.234375 185.460938 100.265625 185.429688 C 105.285156 171.613281 112.796875 158.742188 124.316406 149.828125 C 139.253906 138.28125 159.023438 134.996094 177.976562 135.984375 C 179.363281 136.046875 180.765625 136.136719 182.152344 136.261719 C 202.816406 138.003906 222.140625 149.503906 234.074219 166.988281 C 246.007812 184.488281 251.167969 205.933594 251.8125 227.105469 C 252.183594 239.667969 250.964844 252.558594 245.621094 263.921875 Z M 245.621094 263.921875 " fill-opacity="1" fill-rule="nonzero"/><path fill="#ffa12e" d="M 230.394531 232.761719 C 227.621094 246.59375 217.304688 257.941406 205.140625 264.539062 C 192.976562 271.136719 179.085938 273.574219 165.382812 274.777344 C 147.738281 276.316406 128.351562 275.441406 114.753906 263.785156 C 102.742188 253.484375 97.800781 236.726562 96.722656 220.707031 C 95.921875 208.910156 96.96875 196.839844 100.234375 185.519531 C 100.234375 185.492188 100.234375 185.460938 100.265625 185.429688 C 105.285156 171.613281 112.796875 158.742188 124.316406 149.828125 C 139.253906 138.28125 159.023438 134.996094 177.976562 135.984375 C 189.789062 140.714844 200.199219 149.195312 208.128906 159.449219 C 218.523438 172.894531 224.898438 189.207031 228.761719 205.902344 C 230.808594 214.691406 232.179688 223.898438 230.394531 232.761719 Z M 230.394531 232.761719 " fill-opacity="1" fill-rule="nonzero"/><path fill="#e86507" d="M 97.246094 209.082031 C 97.152344 209.082031 97.0625 209.066406 96.96875 209.035156 C 96.566406 208.878906 96.382812 208.433594 96.539062 208.03125 C 108.253906 177.996094 131.539062 152.605469 160.410156 138.34375 C 160.777344 138.15625 161.257812 138.3125 161.441406 138.695312 C 161.625 139.082031 161.472656 139.542969 161.085938 139.730469 C 132.554688 153.820312 109.550781 178.921875 97.96875 208.585938 C 97.847656 208.894531 97.554688 209.082031 97.246094 209.082031 Z M 97.246094 209.082031 " fill-opacity="1" fill-rule="nonzero"/><path fill="#e86507" d="M 103.929688 268.980469 C 103.820312 268.980469 103.714844 268.964844 103.605469 268.902344 C 103.21875 268.71875 103.050781 268.253906 103.234375 267.871094 C 126.300781 218.59375 162.441406 176.671875 207.757812 146.652344 C 208.113281 146.421875 208.589844 146.515625 208.820312 146.867188 C 209.050781 147.222656 208.960938 147.699219 208.605469 147.933594 C 163.519531 177.8125 127.566406 219.503906 104.621094 268.515625 C 104.5 268.792969 104.207031 268.964844 103.929688 268.964844 Z M 103.929688 268.980469 " fill-opacity="1" fill-rule="nonzero"/><path fill="#e86507" d="M 139.621094 295.574219 C 139.4375 295.574219 139.253906 295.515625 139.097656 295.375 C 138.773438 295.082031 138.757812 294.605469 139.050781 294.28125 C 172.652344 257.261719 203.324219 217.128906 230.222656 174.976562 C 230.457031 174.621094 230.933594 174.511719 231.285156 174.746094 C 231.640625 174.976562 231.75 175.453125 231.519531 175.808594 C 204.585938 218.039062 173.851562 258.25 140.191406 295.3125 C 140.039062 295.484375 139.835938 295.558594 139.621094 295.558594 Z M 139.621094 295.574219 " fill-opacity="1" fill-rule="nonzero"/><path fill="#e86507" d="M 199.183594 295.375 C 198.964844 295.375 198.765625 295.28125 198.613281 295.113281 C 198.335938 294.789062 198.351562 294.3125 198.671875 294.019531 C 218.675781 276.132812 235.230469 253.808594 246.5625 229.476562 C 246.746094 229.09375 247.207031 228.921875 247.578125 229.109375 C 247.964844 229.292969 248.132812 229.742188 247.949219 230.125 C 236.523438 254.65625 219.832031 277.136719 199.691406 295.175781 C 199.535156 295.296875 199.367188 295.375 199.183594 295.375 Z M 199.183594 295.375 " fill-opacity="1" fill-rule="nonzero"/><path fill="#e86507" d="M 242.066406 194.125 C 241.882812 194.125 241.679688 194.046875 241.527344 193.910156 C 218.96875 172.246094 193.113281 154.671875 164.675781 141.671875 C 164.289062 141.503906 164.121094 141.039062 164.289062 140.65625 C 164.472656 140.269531 164.921875 140.101562 165.304688 140.269531 C 193.898438 153.34375 219.890625 171.011719 242.574219 192.796875 C 242.882812 193.089844 242.898438 193.585938 242.589844 193.894531 C 242.433594 194.046875 242.234375 194.125 242.035156 194.125 Z M 242.066406 194.125 " fill-opacity="1" fill-rule="nonzero"/><path fill="#e86507" d="M 246.792969 247.855469 C 246.609375 247.855469 246.4375 247.796875 246.285156 247.671875 C 207.34375 214.199219 164.105469 186.03125 117.757812 163.96875 C 117.371094 163.78125 117.203125 163.320312 117.386719 162.933594 C 117.570312 162.546875 118.035156 162.394531 118.417969 162.5625 C 164.890625 184.6875 208.25 212.917969 247.285156 246.484375 C 247.609375 246.761719 247.640625 247.253906 247.363281 247.578125 C 247.207031 247.75 246.992188 247.839844 246.777344 247.839844 Z M 246.792969 247.855469 " fill-opacity="1" fill-rule="nonzero"/><path fill="#e86507" d="M 217.96875 288.898438 C 217.859375 288.898438 217.753906 288.882812 217.660156 288.835938 C 174.253906 269.625 134.308594 243.800781 98.941406 212.101562 C 98.617188 211.824219 98.601562 211.332031 98.878906 211.007812 C 99.171875 210.683594 99.648438 210.667969 99.972656 210.945312 C 135.21875 242.539062 175.023438 268.269531 218.289062 287.417969 C 218.675781 287.589844 218.859375 288.050781 218.675781 288.4375 C 218.550781 288.730469 218.261719 288.898438 217.96875 288.898438 Z M 217.96875 288.898438 " fill-opacity="1" fill-rule="nonzero"/><path fill="#e86507" d="M 150.109375 297.226562 C 149.984375 297.226562 149.863281 297.195312 149.753906 297.132812 C 129.71875 286.648438 112.027344 272.695312 97.152344 255.65625 C 96.875 255.335938 96.90625 254.855469 97.230469 254.5625 C 97.554688 254.285156 98.03125 254.316406 98.324219 254.640625 C 113.074219 271.539062 130.613281 285.367188 150.476562 295.761719 C 150.863281 295.960938 151 296.421875 150.800781 296.792969 C 150.664062 297.054688 150.398438 297.210938 150.125 297.210938 Z M 150.109375 297.226562 " fill-opacity="1" fill-rule="nonzero"/><path fill="#524327" d="M 140.40625 234.984375 C 140.40625 235.703125 140.335938 236.417969 140.195312 237.128906 C 140.054688 237.835938 139.847656 238.523438 139.570312 239.1875 C 139.296875 239.855469 138.957031 240.488281 138.558594 241.089844 C 138.15625 241.691406 137.699219 242.246094 137.191406 242.753906 C 136.679688 243.265625 136.128906 243.722656 135.527344 244.121094 C 134.929688 244.523438 134.296875 244.863281 133.628906 245.140625 C 132.964844 245.414062 132.277344 245.625 131.570312 245.765625 C 130.863281 245.90625 130.148438 245.976562 129.429688 245.976562 C 128.707031 245.976562 127.992188 245.90625 127.285156 245.765625 C 126.578125 245.625 125.894531 245.414062 125.226562 245.140625 C 124.5625 244.863281 123.929688 244.523438 123.328125 244.121094 C 122.730469 243.722656 122.175781 243.265625 121.664062 242.753906 C 121.15625 242.246094 120.699219 241.691406 120.300781 241.089844 C 119.898438 240.488281 119.5625 239.855469 119.285156 239.1875 C 119.007812 238.523438 118.800781 237.835938 118.660156 237.128906 C 118.519531 236.417969 118.449219 235.703125 118.449219 234.984375 C 118.449219 234.261719 118.519531 233.546875 118.660156 232.839844 C 118.800781 232.128906 119.007812 231.441406 119.285156 230.777344 C 119.5625 230.109375 119.898438 229.476562 120.300781 228.875 C 120.699219 228.273438 121.15625 227.71875 121.664062 227.210938 C 122.175781 226.699219 122.730469 226.242188 123.328125 225.84375 C 123.929688 225.441406 124.5625 225.101562 125.226562 224.828125 C 125.894531 224.550781 126.578125 224.339844 127.285156 224.199219 C 127.992188 224.058594 128.707031 223.988281 129.429688 223.988281 C 130.148438 223.988281 130.863281 224.058594 131.570312 224.199219 C 132.277344 224.339844 132.964844 224.550781 133.628906 224.828125 C 134.296875 225.101562 134.929688 225.441406 135.527344 225.84375 C 136.128906 226.242188 136.679688 226.699219 137.191406 227.210938 C 137.699219 227.71875 138.15625 228.273438 138.558594 228.875 C 138.957031 229.476562 139.296875 230.109375 139.570312 230.777344 C 139.847656 231.441406 140.054688 232.128906 140.195312 232.839844 C 140.335938 233.546875 140.40625 234.261719 140.40625 234.984375 Z M 140.40625 234.984375 " fill-opacity="1" fill-rule="nonzero"/><path fill="#524327" d="M 217.398438 237.296875 C 217.398438 238.015625 217.328125 238.730469 217.1875 239.441406 C 217.046875 240.148438 216.839844 240.835938 216.5625 241.503906 C 216.285156 242.167969 215.949219 242.800781 215.546875 243.402344 C 215.148438 244.003906 214.691406 244.558594 214.183594 245.070312 C 213.671875 245.578125 213.117188 246.035156 212.519531 246.4375 C 211.917969 246.835938 211.285156 247.175781 210.621094 247.453125 C 209.953125 247.726562 209.269531 247.9375 208.5625 248.078125 C 207.855469 248.21875 207.140625 248.289062 206.417969 248.289062 C 205.699219 248.289062 204.984375 248.21875 204.277344 248.078125 C 203.570312 247.9375 202.882812 247.726562 202.21875 247.453125 C 201.550781 247.175781 200.917969 246.835938 200.320312 246.4375 C 199.71875 246.035156 199.164062 245.578125 198.65625 245.070312 C 198.144531 244.558594 197.691406 244.003906 197.289062 243.402344 C 196.890625 242.800781 196.550781 242.167969 196.277344 241.503906 C 196 240.835938 195.792969 240.148438 195.652344 239.441406 C 195.511719 238.730469 195.441406 238.015625 195.441406 237.296875 C 195.441406 236.574219 195.511719 235.859375 195.652344 235.152344 C 195.792969 234.441406 196 233.753906 196.277344 233.089844 C 196.550781 232.421875 196.890625 231.789062 197.289062 231.1875 C 197.691406 230.585938 198.144531 230.03125 198.65625 229.523438 C 199.164062 229.011719 199.71875 228.554688 200.320312 228.15625 C 200.917969 227.753906 201.550781 227.414062 202.21875 227.140625 C 202.882812 226.863281 203.570312 226.652344 204.277344 226.511719 C 204.984375 226.371094 205.699219 226.300781 206.417969 226.300781 C 207.140625 226.300781 207.855469 226.371094 208.5625 226.511719 C 209.269531 226.652344 209.953125 226.863281 210.621094 227.140625 C 211.285156 227.414062 211.917969 227.753906 212.519531 228.15625 C 213.117188 228.554688 213.671875 229.011719 214.183594 229.523438 C 214.691406 230.03125 215.148438 230.585938 215.546875 231.1875 C 215.949219 231.789062 216.285156 232.421875 216.5625 233.089844 C 216.839844 233.753906 217.046875 234.441406 217.1875 235.152344 C 217.328125 235.859375 217.398438 236.574219 217.398438 237.296875 Z M 217.398438 237.296875 " fill-opacity="1" fill-rule="nonzero"/><path fill="#524327" d="M 167.90625 248.8125 C 165.460938 248.8125 162.996094 248.195312 160.855469 246.945312 C 156.3125 244.308594 153.511719 238.992188 153.878906 233.734375 C 153.910156 233.300781 154.296875 232.992188 154.710938 233.023438 C 155.144531 233.054688 155.449219 233.425781 155.421875 233.855469 C 155.082031 238.542969 157.574219 243.261719 161.625 245.621094 C 165.675781 247.980469 171.019531 247.808594 174.898438 245.1875 C 178.792969 242.582031 180.964844 237.695312 180.335938 233.054688 C 180.273438 232.640625 180.566406 232.238281 180.996094 232.191406 C 181.414062 232.144531 181.8125 232.421875 181.859375 232.855469 C 182.582031 238.082031 180.117188 243.554688 175.761719 246.484375 C 173.453125 248.042969 170.664062 248.828125 167.894531 248.828125 Z M 167.90625 248.8125 " fill-opacity="1" fill-rule="nonzero"/></svg>